<svg width="290" height="127" viewBox="0 0 290 127" fill="none" xmlns="http://www.w3.org/2000/svg">
<g filter="url(#filter0_d_332_2913)">
<path d="M60.6524 106V70.24H74.3804C76.8444 70.24 79.0204 70.672 80.9084 71.536C82.8284 72.4 84.3324 73.68 85.4204 75.376C86.5084 77.072 87.0524 79.168 87.0524 81.664C87.0524 84.096 86.4924 86.16 85.3724 87.856C84.2844 89.552 82.7804 90.848 80.8604 91.744C78.9724 92.608 76.8124 93.04 74.3804 93.04H68.0924V106H60.6524ZM68.0924 86.56H74.4284C75.4844 86.56 76.3964 86.352 77.1644 85.936C77.9324 85.52 78.5244 84.944 78.9404 84.208C79.3884 83.472 79.6124 82.624 79.6124 81.664C79.6124 80.672 79.3884 79.808 78.9404 79.072C78.5244 78.336 77.9324 77.76 77.1644 77.344C76.3964 76.928 75.4844 76.72 74.4284 76.72H68.0924V86.56ZM103.367 106.576C100.775 106.576 98.4068 105.984 96.2628 104.8C94.1508 103.616 92.4548 102 91.1748 99.952C89.9268 97.872 89.3027 95.52 89.3027 92.896C89.3027 90.24 89.9268 87.888 91.1748 85.84C92.4548 83.792 94.1508 82.176 96.2628 80.992C98.4068 79.808 100.775 79.216 103.367 79.216C105.959 79.216 108.311 79.808 110.423 80.992C112.535 82.176 114.215 83.792 115.463 85.84C116.743 87.888 117.383 90.24 117.383 92.896C117.383 95.52 116.743 97.872 115.463 99.952C114.215 102 112.535 103.616 110.423 104.8C108.311 105.984 105.959 106.576 103.367 106.576ZM103.367 100.096C104.679 100.096 105.815 99.792 106.775 99.184C107.767 98.576 108.535 97.728 109.079 96.64C109.655 95.552 109.943 94.304 109.943 92.896C109.943 91.488 109.655 90.256 109.079 89.2C108.535 88.112 107.767 87.264 106.775 86.656C105.815 86.016 104.679 85.696 103.367 85.696C102.055 85.696 100.903 86.016 99.9108 86.656C98.9188 87.264 98.1348 88.112 97.5588 89.2C97.0148 90.256 96.7428 91.488 96.7428 92.896C96.7428 94.304 97.0148 95.552 97.5588 96.64C98.1348 97.728 98.9188 98.576 99.9108 99.184C100.903 99.792 102.055 100.096 103.367 100.096ZM121.624 106V79.792H128.344V86.08L127.864 85.168C128.44 82.96 129.384 81.472 130.696 80.704C132.04 79.904 133.624 79.504 135.448 79.504H136.984V85.744H134.728C132.968 85.744 131.544 86.288 130.456 87.376C129.368 88.432 128.824 89.936 128.824 91.888V106H121.624ZM153.702 106.288C150.534 106.288 148.07 105.44 146.31 103.744C144.582 102.016 143.718 99.616 143.718 96.544V86.032H139.302V79.792H139.542C140.886 79.792 141.91 79.456 142.614 78.784C143.35 78.112 143.718 77.104 143.718 75.76V73.84H150.918V79.792H157.062V86.032H150.918V96.064C150.918 96.96 151.078 97.712 151.398 98.32C151.718 98.896 152.214 99.328 152.886 99.616C153.558 99.904 154.39 100.048 155.382 100.048C155.606 100.048 155.862 100.032 156.15 100C156.438 99.968 156.742 99.936 157.062 99.904V106C156.582 106.064 156.038 106.128 155.43 106.192C154.822 106.256 154.246 106.288 153.702 106.288ZM174.289 106.576C171.697 106.576 169.329 105.984 167.185 104.8C165.073 103.616 163.377 102 162.097 99.952C160.849 97.872 160.225 95.52 160.225 92.896C160.225 90.24 160.849 87.888 162.097 85.84C163.377 83.792 165.073 82.176 167.185 80.992C169.329 79.808 171.697 79.216 174.289 79.216C176.881 79.216 179.233 79.808 181.345 80.992C183.457 82.176 185.137 83.792 186.385 85.84C187.665 87.888 188.305 90.24 188.305 92.896C188.305 95.52 187.665 97.872 186.385 99.952C185.137 102 183.457 103.616 181.345 104.8C179.233 105.984 176.881 106.576 174.289 106.576ZM174.289 100.096C175.601 100.096 176.737 99.792 177.697 99.184C178.689 98.576 179.457 97.728 180.001 96.64C180.577 95.552 180.865 94.304 180.865 92.896C180.865 91.488 180.577 90.256 180.001 89.2C179.457 88.112 178.689 87.264 177.697 86.656C176.737 86.016 175.601 85.696 174.289 85.696C172.977 85.696 171.825 86.016 170.833 86.656C169.841 87.264 169.057 88.112 168.481 89.2C167.937 90.256 167.665 91.488 167.665 92.896C167.665 94.304 167.937 95.552 168.481 96.64C169.057 97.728 169.841 98.576 170.833 99.184C171.825 99.792 172.977 100.096 174.289 100.096ZM193.074 106V70.24H200.514V88.144L198.45 87.424L212.754 70.24H222.066L207.906 87.328L208.338 82.048L222.354 106H213.666L204.93 90.88L200.514 96.208V106H193.074ZM225.499 106V79.792H232.699V106H225.499ZM225.499 77.44V70.24H232.699V77.44H225.499ZM250.592 106.288C247.424 106.288 244.96 105.44 243.2 103.744C241.472 102.016 240.608 99.616 240.608 96.544V86.032H236.192V79.792H236.432C237.776 79.792 238.8 79.456 239.504 78.784C240.24 78.112 240.608 77.104 240.608 75.76V73.84H247.808V79.792H253.952V86.032H247.808V96.064C247.808 96.96 247.968 97.712 248.288 98.32C248.608 98.896 249.104 99.328 249.776 99.616C250.448 99.904 251.28 100.048 252.272 100.048C252.496 100.048 252.752 100.032 253.04 100C253.328 99.968 253.632 99.936 253.952 99.904V106C253.472 106.064 252.928 106.128 252.32 106.192C251.712 106.256 251.136 106.288 250.592 106.288ZM266.283 106.576C264.395 106.576 262.763 106.272 261.387 105.664C260.011 105.056 258.955 104.192 258.219 103.072C257.483 101.92 257.115 100.56 257.115 98.992C257.115 97.52 257.451 96.224 258.123 95.104C258.795 93.952 259.819 92.992 261.195 92.224C262.603 91.456 264.347 90.912 266.427 90.592L274.443 89.296V94.576L267.723 95.776C266.699 95.968 265.915 96.304 265.371 96.784C264.827 97.232 264.555 97.888 264.555 98.752C264.555 99.552 264.859 100.176 265.467 100.624C266.075 101.072 266.827 101.296 267.723 101.296C268.907 101.296 269.947 101.04 270.843 100.528C271.739 100.016 272.427 99.328 272.907 98.464C273.419 97.568 273.675 96.592 273.675 95.536V88.72C273.675 87.728 273.275 86.896 272.475 86.224C271.707 85.552 270.651 85.216 269.307 85.216C268.027 85.216 266.891 85.568 265.899 86.272C264.939 86.976 264.235 87.904 263.787 89.056L258.027 86.32C258.539 84.848 259.355 83.584 260.475 82.528C261.595 81.472 262.939 80.656 264.507 80.08C266.075 79.504 267.787 79.216 269.643 79.216C271.851 79.216 273.803 79.616 275.499 80.416C277.195 81.216 278.507 82.336 279.435 83.776C280.395 85.184 280.875 86.832 280.875 88.72V106H274.155V101.776L275.787 101.488C275.019 102.64 274.171 103.6 273.243 104.368C272.315 105.104 271.275 105.648 270.123 106C268.971 106.384 267.691 106.576 266.283 106.576Z" fill="white"/>
</g>
<defs>
<filter id="filter0_d_332_2913" x="56.6523" y="70.24" width="228.223" height="44.336" filterUnits="userSpaceOnUse" color-interpolation-filters="sRGB">
<feFlood flood-opacity="0" result="BackgroundImageFix"/>
<feColorMatrix in="SourceAlpha" type="matrix" values="0 0 0 0 0 0 0 0 0 0 0 0 0 0 0 0 0 0 127 0" result="hardAlpha"/>
<feOffset dy="4"/>
<feGaussianBlur stdDeviation="2"/>
<feComposite in2="hardAlpha" operator="out"/>
<feColorMatrix type="matrix" values="0 0 0 0 0 0 0 0 0 0 0 0 0 0 0 0 0 0 0.25 0"/>
<feBlend mode="normal" in2="BackgroundImageFix" result="effect1_dropShadow_332_2913"/>
<feBlend mode="normal" in="SourceGraphic" in2="effect1_dropShadow_332_2913" result="shape"/>
</filter>
</defs>
</svg>
