<svg width="129" height="125" viewBox="0 0 129 125" fill="none" xmlns="http://www.w3.org/2000/svg">
<path d="M55.152 27.4428C56.8291 28.415 57.8034 29.5744 58.3726 31.3863C58.7694 32.9155 58.7951 34.3714 58.7548 35.9406C58.7496 36.335 58.7496 36.335 58.7443 36.7373C58.7353 37.3765 58.7227 38.0155 58.7065 38.6546C58.8559 38.6032 59.0053 38.5517 59.1592 38.4987C64.1627 36.8165 69.9938 37.1881 74.7708 39.3671C76.4067 40.15 77.9112 41.0172 79.3053 42.1687C79.5603 42.3499 79.8152 42.5311 80.0778 42.7178C82.8277 45.0113 84.4704 48.6361 84.7689 52.1118C84.8992 55.8551 83.3207 59.4468 80.8503 62.249C80.6591 62.4975 80.4679 62.746 80.2709 63.002C78.6026 64.927 76.2823 66.3725 74.1556 67.7711C75.5646 70.9934 77.7085 72.7018 80.9016 74.1545C83.0118 75.1273 84.2703 76.1651 85.4689 78.125C86.0008 79.9552 86.0319 81.6774 85.2114 83.4275C84.103 85.3162 82.4672 86.4756 80.3353 87.0984C77.0503 87.6913 74.413 87.0166 71.5808 85.3414C69.7079 84.0457 68.6213 82.4721 67.461 80.5723C67.1734 80.1391 66.8811 79.7091 66.5888 79.2789C64.8743 76.7407 63.5789 74.1595 62.5923 71.2755C62.4747 70.9333 62.3532 70.5924 62.2275 70.2529C62.0674 69.816 61.9245 69.3731 61.7833 68.93C61.1747 68.1334 60.9365 68.1438 59.9626 67.981C59.7282 67.9404 59.4937 67.8997 59.2521 67.8578C59.0721 67.8292 58.892 67.8006 58.7065 67.7711C58.705 67.9396 58.7035 68.1081 58.702 68.2817C58.6855 70.0409 58.6637 71.7999 58.639 73.559C58.6304 74.2149 58.6232 74.8707 58.6173 75.5266C58.6087 76.4713 58.5952 77.4157 58.5808 78.3603C58.5784 78.7977 58.5784 78.7977 58.5758 79.244C58.5317 81.6368 58.1 83.3442 56.3982 85.1335C54.8429 86.4955 53.1263 87.1837 51.0373 87.1533C48.5553 86.9143 46.7473 85.6426 45.1825 83.8216C43.9461 82.2337 43.9912 80.2455 43.9955 78.3242C43.9949 78.1306 43.9943 77.937 43.9937 77.7375C43.9921 77.0926 43.9923 76.4477 43.9925 75.8029C43.9917 75.3389 43.9908 74.8749 43.9899 74.4109C43.9876 73.1533 43.987 71.8957 43.9868 70.6381C43.9866 69.8517 43.9861 69.0654 43.9854 68.2791C43.983 65.5342 43.982 62.7893 43.9822 60.0444C43.9823 57.4884 43.9796 54.9324 43.9756 52.3763C43.9722 50.1794 43.9708 47.9824 43.971 45.7855C43.971 44.4744 43.9703 43.1634 43.9676 41.8523C43.9651 40.6191 43.9651 39.3858 43.9669 38.1526C43.9672 37.701 43.9666 37.2494 43.965 36.7979C43.946 30.9137 43.946 30.9137 46.0898 28.6145C48.5999 26.1675 52.0715 26.0505 55.152 27.4428ZM60.8046 50.6656C59.6739 52.1804 59.5116 53.6526 59.7365 55.4719C60.5744 56.9422 61.9802 57.6967 63.5988 58.2329C64.4256 58.2776 64.4256 58.2776 65.1437 58.2329C65.3968 57.5064 65.6487 56.7795 65.9 56.0523C65.9716 55.8474 66.0431 55.6424 66.1168 55.4312C66.7869 53.4872 67.4238 51.5654 66.5759 49.589C66.2331 48.9841 66.2331 48.9841 65.9161 48.6948C64.0219 48.5416 62.1465 49.3575 60.8046 50.6656Z" fill="white"/>
<path d="M68.4911 38.4036C68.7725 38.4146 69.054 38.4256 69.344 38.4369C70.684 38.5168 71.4762 38.6887 72.6108 39.4076C73.0589 39.5316 73.51 39.6455 73.9626 39.7527C77.0634 40.5448 79.6645 42.4782 81.6228 44.9297C81.8299 45.1005 82.037 45.2714 82.2504 45.4474C84.1665 47.5886 84.8405 50.7259 84.777 53.5099C84.4807 56.7634 83.0092 59.8002 80.8503 62.249C80.6592 62.4975 80.468 62.746 80.271 63.002C78.6027 64.9269 76.2824 66.3725 74.1557 67.7711C75.5646 70.9934 77.7086 72.7018 80.9017 74.1544C83.0119 75.1273 84.2704 76.1651 85.469 78.125C86.0009 79.9551 86.0319 81.6774 85.2115 83.4274C84.103 85.3161 82.4673 86.4755 80.3354 87.0984C77.0504 87.6912 74.413 87.0165 71.5809 85.3413C69.7203 84.0543 68.5993 82.4747 67.4611 80.5723C67.2912 80.3238 67.1212 80.0753 66.9461 79.8193C66.8681 79.5844 66.7901 79.3494 66.7098 79.1074C66.4211 78.2846 66.0482 77.6387 65.5783 76.9013C64.2895 74.7917 63.3947 72.6676 62.8264 70.2811C62.7308 70.0999 62.6352 69.9187 62.5367 69.732C62.2453 69.1437 62.2962 68.6681 62.3114 68.0221C62.6251 68.0069 62.9387 67.9917 63.2619 67.976C63.68 67.9548 64.0981 67.9335 64.5161 67.9123C64.7221 67.9024 64.928 67.8925 65.1402 67.8824C67.4303 67.7639 68.9243 67.6817 70.5509 66.014C71.454 65.0201 71.4828 63.9809 71.4491 62.698C71.2409 61.5388 70.6021 60.8167 69.7785 59.9899C69.6245 59.8123 69.4705 59.6347 69.3118 59.4517C68.5941 58.8582 68.0652 58.7899 67.1393 58.6722C66.8618 58.6346 66.5843 58.5971 66.2984 58.5584C66.0873 58.5338 65.8762 58.5093 65.6587 58.4839C65.8005 56.9632 66.1554 55.6493 66.6887 54.2168C66.926 53.5227 66.9765 53.1167 66.9713 52.402C66.9705 52.2006 66.9696 51.9991 66.9688 51.7916C66.9666 51.5824 66.9645 51.3733 66.9622 51.1577C66.9611 50.9456 66.9599 50.7335 66.9587 50.515C66.9557 49.9919 66.9511 49.4688 66.9461 48.9458C65.3764 48.4357 64.0246 48.537 62.5206 49.2125C61.0943 49.9866 60.0123 50.8142 59.5294 52.3775C59.3997 52.9903 59.296 53.5955 59.2216 54.2168C58.9667 54.2168 58.7118 54.2168 58.4491 54.2168C58.2014 53.4055 58.1604 52.6764 58.1624 51.8316C58.1624 51.5553 58.1625 51.2789 58.1625 50.9943C58.1638 50.6975 58.1651 50.4007 58.1665 50.0949C58.1669 49.7899 58.1672 49.4849 58.1676 49.1706C58.1691 48.1962 58.1723 47.2219 58.1756 46.2475C58.1769 45.587 58.178 44.9264 58.1791 44.2659C58.1819 42.6465 58.1862 41.027 58.1917 39.4076C59.1286 39.2392 60.0661 39.0746 61.0039 38.9105C61.2664 38.8633 61.5289 38.816 61.7993 38.7674C64.0597 38.375 66.2041 38.2855 68.4911 38.4036Z" fill="white"/>
<path d="M68.4911 38.4036C68.7725 38.4146 69.054 38.4256 69.344 38.4369C70.684 38.5168 71.4762 38.6887 72.6108 39.4076C73.0589 39.5316 73.51 39.6455 73.9626 39.7527C77.0634 40.5448 79.6645 42.4782 81.6228 44.9297C81.8299 45.1005 82.037 45.2714 82.2504 45.4474C84.1665 47.5886 84.8405 50.7259 84.777 53.5099C84.4807 56.7634 83.0092 59.8002 80.8503 62.249C80.6592 62.4975 80.468 62.746 80.271 63.002C78.6027 64.9269 76.2824 66.3725 74.1557 67.7711C75.5646 70.9934 77.7086 72.7018 80.9017 74.1544C83.0119 75.1273 84.2704 76.1651 85.469 78.125C86.0009 79.9551 86.0319 81.6774 85.2115 83.4274C84.103 85.3161 82.4673 86.4755 80.3354 87.0984C77.0504 87.6912 74.413 87.0165 71.5809 85.3413C69.3893 83.8253 67.8831 81.7661 66.9461 79.3172C67.1161 79.3172 67.286 79.3172 67.4611 79.3172C67.9539 79.9798 68.3902 80.6469 68.7988 81.3616C69.4115 82.481 69.4115 82.481 70.5027 83.0823C70.6885 83.0823 70.8744 83.0823 71.0659 83.0823C71.0659 83.4136 71.0659 83.745 71.0659 84.0863C71.4058 84.1692 71.7457 84.252 72.0958 84.3373C72.0958 84.503 72.0958 84.6687 72.0958 84.8393C72.4357 84.8393 72.7756 84.8393 73.1258 84.8393C73.1258 85.005 73.1258 85.1707 73.1258 85.3413C73.2692 85.3507 73.4126 85.3601 73.5603 85.3698C74.608 85.4578 75.5163 85.5848 76.4892 85.9845C77.7491 86.4837 78.9109 86.5624 80.2227 86.1257C80.4298 86.0325 80.6369 85.9394 80.8503 85.8434C81.2885 85.7502 81.2885 85.7502 81.7354 85.6551C83.1489 85.1716 83.8396 84.3357 84.6804 83.1607C85.1507 81.811 85.2751 80.3654 84.7559 79.0084C84.3938 78.3672 84.1084 77.8932 83.4252 77.5602C83.4252 77.2289 83.4252 76.8976 83.4252 76.5562C82.7457 76.2013 82.1194 75.9607 81.3653 75.8032C81.3653 75.5547 81.3653 75.3062 81.3653 75.0502C80.9523 75.0079 80.5392 74.9662 80.1262 74.9247C79.8961 74.9014 79.6661 74.8781 79.4291 74.8541C78.7691 74.7882 78.7691 74.7882 78.018 74.7992C78.018 74.5507 78.018 74.3022 78.018 74.0462C77.6075 73.6102 77.6075 73.6102 77.0685 73.199C76.8817 73.0457 76.6948 72.8923 76.5023 72.7343C76.3227 72.5874 76.1431 72.4405 75.9581 72.2891C75.4921 71.8856 75.0865 71.4901 74.6707 71.0341C74.6707 70.7856 74.6707 70.5371 74.6707 70.2811C74.3308 70.1983 73.9909 70.1154 73.6408 70.0301C73.5133 69.0361 73.5133 69.0361 73.3833 68.0221C72.7611 67.9802 72.7611 67.9802 72.0958 68.0221C71.9259 68.1877 71.756 68.3534 71.5809 68.5241C70.8887 68.5918 70.2184 68.546 69.521 68.5241C69.9371 68.0117 70.367 67.5098 70.8084 67.0181C70.9784 67.0181 71.1483 67.0181 71.3234 67.0181C71.3712 66.6997 71.3712 66.6997 71.4199 66.3749C71.4731 66.0901 71.5262 65.8054 71.5809 65.512C71.634 65.2014 71.6871 64.8908 71.7418 64.5708C71.8586 64.3016 71.9755 64.0324 72.0958 63.755C73.0131 63.4256 73.0131 63.4256 73.8982 63.253C73.9832 63.0873 74.0682 62.9217 74.1557 62.751C74.4425 62.65 74.4425 62.65 74.7351 62.547C75.6109 62.1784 76.0858 61.6722 76.7306 60.994C76.874 60.8645 77.0173 60.7351 77.1651 60.6018C77.8043 59.9193 78.02 59.23 78.2755 58.3427C78.533 57.4799 78.533 57.4799 79.0479 56.7269C79.1173 56.18 79.1631 55.63 79.1928 55.0797C79.2806 53.5122 79.2806 53.5122 79.5629 52.9618C79.393 52.9618 79.223 52.9618 79.0479 52.9618C78.6755 52.2884 78.4425 51.6878 78.2916 50.9381C78.096 50.0313 77.8762 49.1354 77.6318 48.2398C77.5707 48.0156 77.5096 47.7914 77.4467 47.5603C77.2586 46.9781 77.0279 46.4696 76.7306 45.9337C76.7365 46.0881 76.7425 46.2424 76.7487 46.4014C76.7533 46.6043 76.758 46.8071 76.7628 47.0162C76.7687 47.2171 76.7747 47.418 76.7809 47.6251C76.7306 48.1928 76.7306 48.1928 76.2156 48.9458C75.2769 49.3329 74.1269 49.3128 73.1258 49.1968C72.4821 48.8516 72.4821 48.8516 72.0958 48.4438C72.0958 48.2781 72.0958 48.1124 72.0958 47.9417C71.8409 47.8589 71.586 47.7761 71.3234 47.6907C71.2384 48.1049 71.1534 48.5191 71.0659 48.9458C69.2957 48.4751 69.2957 48.4751 69.006 48.1928C68.5719 48.1747 68.137 48.1717 67.7025 48.1771C67.4658 48.1793 67.2292 48.1816 66.9854 48.1839C66.8025 48.1868 66.6196 48.1898 66.4312 48.1928C66.3462 48.3584 66.2612 48.5241 66.1737 48.6948C65.8444 48.6689 65.5152 48.643 65.1759 48.6163C63.4623 48.6216 62.1091 49.2943 60.7937 50.3361C59.664 51.4668 59.4055 52.6804 59.2216 54.2168C58.9667 54.2168 58.7118 54.2168 58.4491 54.2168C58.2014 53.4055 58.1604 52.6764 58.1624 51.8316C58.1624 51.5553 58.1625 51.2789 58.1625 50.9943C58.1638 50.6975 58.1651 50.4007 58.1665 50.0949C58.1669 49.7899 58.1672 49.4849 58.1676 49.1706C58.1691 48.1962 58.1723 47.2219 58.1756 46.2475C58.1769 45.587 58.178 44.9264 58.1791 44.2659C58.1819 42.6465 58.1862 41.027 58.1917 39.4076C59.1286 39.2392 60.0661 39.0746 61.0039 38.9105C61.2664 38.8633 61.5289 38.816 61.7993 38.7674C64.0597 38.375 66.2041 38.2855 68.4911 38.4036Z" fill="white"/>
<path d="M44.5449 52.9619C44.7998 53.0861 44.7998 53.0861 45.0598 53.2129C45.1395 53.6555 45.1395 53.6555 45.2208 54.1071C45.4771 55.3566 45.9939 56.4255 46.5725 57.5584C46.66 57.7325 46.7476 57.9066 46.8377 58.0859C47.342 59.0508 47.8504 59.7412 48.6646 60.492C48.7496 60.7405 48.8346 60.989 48.9221 61.245C49.5151 61.87 50.0991 62.4215 50.805 62.9236C50.9483 63.0323 51.0917 63.141 51.2395 63.253C51.2395 63.4187 51.2395 63.5843 51.2395 63.755C51.4243 63.8204 51.6092 63.8857 51.7997 63.9531C52.7961 64.3695 53.6396 64.9562 54.5335 65.5493C55.2524 65.9539 55.9285 66.2505 56.6983 66.5451C56.9298 66.6341 57.1613 66.7231 57.3999 66.8148C57.5761 66.8819 57.7524 66.949 57.9341 67.0181C57.9761 68.9339 58.008 70.8497 58.0275 72.7659C58.0368 73.6559 58.0495 74.5457 58.07 75.4356C58.0936 76.4618 58.1022 77.4878 58.1101 78.5143C58.1194 78.8294 58.1287 79.1446 58.1383 79.4693C58.1393 81.6778 57.6268 83.1559 56.1317 84.8394C55.476 85.3581 54.8402 85.7551 54.0718 86.0944C53.8663 86.1853 53.6609 86.2762 53.4492 86.3699C51.6294 86.9899 49.6967 86.6974 47.9676 85.9444C46.5831 85.1189 45.5077 83.7428 44.8023 82.3293C44.5959 81.492 44.5129 80.7159 44.5139 79.8561C44.5135 79.6179 44.5132 79.3796 44.5128 79.1341C44.5137 78.8757 44.5147 78.6174 44.5156 78.3512C44.5156 78.0768 44.5155 77.8024 44.5155 77.5197C44.5157 76.6139 44.5177 75.708 44.5197 74.8021C44.5202 74.1737 44.5206 73.5452 44.5208 72.9167C44.5217 71.4321 44.5237 69.9476 44.5263 68.4631C44.5295 66.6066 44.5309 64.7502 44.5323 62.8937C44.535 59.5831 44.5394 56.2725 44.5449 52.9619Z" fill="white"/>
<path d="M65.9162 47.9418C68.6196 47.6377 70.3377 48.3653 72.6108 49.6988C72.7821 49.8489 72.9533 49.9991 73.1298 50.1537C73.654 50.5286 73.654 50.5286 74.4172 50.3606C74.692 50.282 74.9669 50.2034 75.25 50.1224C75.5275 50.0457 75.805 49.969 76.0909 49.89C76.302 49.8269 76.5131 49.7638 76.7305 49.6988C76.7305 49.4503 76.7305 49.2018 76.7305 48.9458C76.9005 48.9458 77.0704 48.9458 77.2455 48.9458C78.6912 51.9482 78.5644 55.1132 77.503 58.2329C76.5773 60.1188 74.928 61.9076 72.9739 62.8069C72.3533 63.002 72.3533 63.002 71.5808 63.002C71.5171 62.826 71.4534 62.65 71.3877 62.4686C71.0194 61.6428 70.5803 60.9688 70.0359 60.241C69.866 60.0132 69.6961 59.7854 69.521 59.5507C68.3527 58.6965 67.0856 58.6326 65.6587 58.4839C65.8005 56.9632 66.1554 55.6493 66.6886 54.2169C66.926 53.5227 66.9765 53.1167 66.9713 52.402C66.9704 52.2006 66.9696 51.9992 66.9687 51.7916C66.9666 51.5824 66.9644 51.3733 66.9622 51.1577C66.9605 50.8396 66.9605 50.8396 66.9587 50.515C66.9557 49.9919 66.951 49.4689 66.9461 48.9458C66.7762 48.9458 66.6062 48.9458 66.4311 48.9458C66.4311 48.6973 66.4311 48.4488 66.4311 48.1928C66.2612 48.1099 66.0913 48.0271 65.9162 47.9418Z" fill="white"/>
<path d="M58.1917 39.4076C58.4466 39.5319 58.4466 39.5319 58.7066 39.6586C58.7066 41.5637 58.7066 43.4689 58.7066 45.4317C59.1315 45.1004 59.5563 44.7691 59.994 44.4277C60.7504 44.0639 60.7504 44.0639 61.539 43.7531C61.7992 43.6486 62.0594 43.5441 62.3275 43.4364C64.8471 42.5578 67.891 42.5909 70.4011 43.4747C71.5403 43.8174 72.7171 43.9249 73.8972 44.0688C74.6707 44.1767 74.6707 44.1767 75.4431 44.4277C75.5706 44.8004 75.5706 44.8004 75.7006 45.1807C75.9555 45.3464 76.2105 45.512 76.4731 45.6827C76.623 46.2543 76.623 46.2543 76.6823 46.9221C76.7052 47.1418 76.7281 47.3615 76.7517 47.5878C76.7306 48.1928 76.7306 48.1928 76.2156 48.9458C75.2769 49.3329 74.1269 49.3128 73.1258 49.1968C72.4821 48.8516 72.4821 48.8516 72.0958 48.4438C72.0958 48.2781 72.0958 48.1124 72.0958 47.9418C71.8409 47.8589 71.586 47.7761 71.3234 47.6908C71.2384 48.1049 71.1534 48.5191 71.0659 48.9458C69.2957 48.4751 69.2957 48.4751 69.006 48.1928C68.5719 48.1747 68.137 48.1717 67.7025 48.1771C67.4658 48.1793 67.2292 48.1816 66.9854 48.1839C66.8025 48.1869 66.6196 48.1898 66.4312 48.1928C66.3462 48.3584 66.2612 48.5241 66.1737 48.6948C65.8444 48.6689 65.5152 48.643 65.1759 48.6163C63.4623 48.6216 62.1091 49.2944 60.7937 50.3361C59.664 51.4668 59.4055 52.6804 59.2216 54.2169C58.9667 54.2169 58.7118 54.2169 58.4491 54.2169C58.2014 53.4056 58.1604 52.6764 58.1624 51.8316C58.1624 51.5553 58.1625 51.279 58.1625 50.9943C58.1638 50.6975 58.1651 50.4007 58.1665 50.0949C58.1669 49.7899 58.1672 49.4849 58.1676 49.1707C58.1691 48.1963 58.1723 47.2219 58.1756 46.2475C58.1769 45.587 58.178 44.9264 58.1791 44.2659C58.1819 42.6465 58.1862 41.0271 58.1917 39.4076Z" fill="white"/>
<path d="M68.491 38.4036C68.9162 38.4196 68.9162 38.4196 69.35 38.436C70.6817 38.5178 71.4843 38.6852 72.6108 39.4076C73.3756 39.6159 74.1476 39.7687 74.9281 39.9096C75.0556 40.5309 75.0556 40.5309 75.1856 41.1647C75.0157 41.2475 74.8457 41.3303 74.6707 41.4157C74.9256 41.4985 75.1805 41.5813 75.4431 41.6667C75.1666 42.3984 74.9853 42.866 74.4132 43.4237C74.5831 43.5894 74.753 43.755 74.9281 43.9257C73.8396 44.2085 72.9633 44.1359 71.8544 43.9728C71.5494 43.9297 71.2444 43.8867 70.9301 43.8424C70.0359 43.6747 70.0359 43.6747 69.2745 43.41C68.3387 43.1266 67.4659 43.0866 66.4955 43.0942C66.2234 43.0958 66.2234 43.0958 65.9458 43.0974C63.0725 43.1578 60.8625 44.2712 58.4491 45.6827C58.4491 43.6948 58.4491 41.7068 58.4491 39.6586C61.6667 38.404 65.0671 38.2665 68.491 38.4036Z" fill="white"/>
<path d="M66.6886 48.4438C69.0822 48.5549 70.8311 49.3767 72.6108 50.9538C73.4154 52.1304 73.2416 53.341 73.1258 54.7189C72.6828 56.1823 71.8563 57.1414 70.8084 58.2329C70.6278 58.44 70.4473 58.6471 70.2612 58.8605C70.1019 58.9847 69.9426 59.1089 69.7785 59.237C69.3339 59.1517 69.3339 59.1517 68.7485 58.986C68.2128 58.8933 67.6763 58.8046 67.1392 58.7193C66.8618 58.6749 66.5843 58.6306 66.2984 58.5849C66.0873 58.5516 65.8762 58.5183 65.6587 58.4839C65.8005 56.9633 66.1554 55.6493 66.6886 54.2169C67.005 53.2915 66.9836 52.4346 66.9783 51.4715C66.9793 51.2918 66.9803 51.112 66.9813 50.9269C66.9797 50.0648 66.9666 49.2674 66.6886 48.4438Z" fill="white"/>
<path d="M76.4731 45.6827C77.3652 46.4734 77.7654 47.2844 78.0019 48.4281C78.2201 49.4457 78.4528 50.4588 78.6939 51.4715C78.7945 51.8952 78.7945 51.8952 78.8971 52.3275C78.9468 52.5368 78.9966 52.7462 79.0479 52.9619C79.2179 52.9619 79.3878 52.9619 79.5629 52.9619C79.5404 53.5689 79.5129 54.175 79.4824 54.7816C79.4766 54.9528 79.4708 55.124 79.4648 55.3003C79.4067 56.361 79.2488 56.9362 78.533 57.7309C78.3584 58.3158 78.1869 58.9015 78.018 59.488C77.6639 60.1312 77.6639 60.1312 77.2455 60.743C77.0809 61.007 76.9163 61.271 76.7467 61.5431C76.2333 62.2255 75.9983 62.5035 75.1857 62.751C74.8458 62.751 74.5059 62.751 74.1557 62.751C74.0283 63.1238 74.0283 63.1238 73.8982 63.504C73.006 63.6283 73.006 63.6283 72.0958 63.755C72.1118 63.9673 72.1277 64.1795 72.1441 64.3982C72.0855 65.4458 71.7863 66.0779 71.3234 67.0181C71.1534 67.0181 70.9835 67.0181 70.8084 67.0181C70.7341 67.1786 70.6597 67.3391 70.5831 67.5044C70.2934 68.0221 70.2934 68.0221 69.7785 68.2731C70.6582 68.315 70.6582 68.315 71.5809 68.2731C71.7508 68.1074 71.9207 67.9418 72.0958 67.7711C72.7556 67.724 72.7556 67.724 73.3833 67.7711C73.6407 68.0221 73.6407 68.0221 73.6568 68.7908C73.6515 69.0341 73.6462 69.2774 73.6407 69.5281C73.354 69.4764 73.0672 69.4246 72.7717 69.3712C72.3097 69.3246 72.3097 69.3246 71.8383 69.2771C71.6684 69.4428 71.4985 69.6084 71.3234 69.7791C70.2154 70.0968 69.1222 70.0301 67.9761 70.0301C67.6759 70.0918 67.6759 70.0918 67.3696 70.1546C66.5869 70.3 65.8594 70.3053 65.0633 70.2968C64.7881 70.2946 64.513 70.2923 64.2295 70.29C64.0214 70.287 63.8132 70.2841 63.5988 70.2811C63.5139 69.9498 63.4289 69.6185 63.3413 69.2771C63.0015 69.1943 62.6616 69.1115 62.3114 69.0261C62.3114 68.6948 62.3114 68.3635 62.3114 68.0221C62.6251 68.0069 62.9387 67.9917 63.2619 67.976C63.68 67.9548 64.098 67.9336 64.5161 67.9123C64.7221 67.9024 64.928 67.8925 65.1402 67.8824C68.1792 67.7269 68.1792 67.7269 70.5509 66.0141C71.1752 65.2229 71.3192 64.8739 71.3556 63.8648C71.5809 63.002 71.5809 63.002 72.0385 62.7285C72.4445 62.5708 72.852 62.4168 73.2606 62.2657C75.4193 61.3595 76.6208 59.5282 77.503 57.4799C78.4011 54.7019 78.1836 51.6891 77.2455 48.9458C77.0756 48.9458 76.9057 48.9458 76.7306 48.9458C76.7306 49.1943 76.7306 49.4428 76.7306 49.6988C75.5996 50.206 74.6312 50.5545 73.3833 50.7028C73.3833 50.5372 73.3833 50.3715 73.3833 50.2008C73.0965 50.0921 73.0965 50.0921 72.8039 49.9812C72.2072 49.7432 71.6377 49.4858 71.0659 49.1968C71.0659 48.617 71.0659 48.0372 71.0659 47.4398C71.4058 47.6054 71.7457 47.7711 72.0958 47.9418C72.0958 48.1074 72.0958 48.2731 72.0958 48.4438C72.991 48.9818 73.6954 48.9992 74.7351 48.9772C75.1513 48.9704 75.1513 48.9704 75.5759 48.9634C75.787 48.9576 75.9981 48.9518 76.2156 48.9458C76.2592 48.5903 76.302 48.2347 76.3443 47.879C76.3802 47.582 76.3802 47.582 76.4168 47.279C76.4889 46.6193 76.4889 46.6193 76.4731 45.6827Z" fill="white"/>
<path d="M47.3772 27.6104C47.5472 27.6933 47.7171 27.7761 47.8922 27.8614C47.6781 28.0299 47.6781 28.0299 47.4597 28.2017C45.9101 29.4623 45.3745 30.2118 45.1725 32.1756C45.1562 32.3914 45.14 32.6072 45.1232 32.8296C45.0599 33.3835 45.0599 33.3835 44.8024 33.8855C44.7767 34.5012 44.7666 35.1098 44.7679 35.7256C44.7674 35.9174 44.7668 36.1093 44.7662 36.307C44.7645 36.9535 44.7648 37.6 44.765 38.2464C44.7642 38.7086 44.7633 39.1707 44.7624 39.6328C44.7601 40.891 44.7595 42.1492 44.7593 43.4074C44.7591 44.4571 44.7581 45.5069 44.7572 46.5567C44.7551 49.0338 44.7545 51.511 44.7547 53.9881C44.7548 56.5437 44.7521 59.0993 44.748 61.6548C44.7447 63.8479 44.7433 66.041 44.7435 68.2341C44.7435 69.5443 44.7428 70.8545 44.7401 72.1647C44.7376 73.3977 44.7375 74.6308 44.7394 75.8638C44.7397 76.316 44.7391 76.7682 44.7375 77.2204C44.7355 77.8386 44.7367 78.4567 44.7387 79.0749C44.7374 79.2531 44.7361 79.4312 44.7347 79.6148C44.751 81.9184 45.5139 83.4587 47.1197 85.0904C48.8203 86.351 50.704 86.6028 52.7844 86.3454C54.9686 85.6992 56.2141 84.6778 57.3658 82.7764C57.8841 81.6124 57.9654 80.4382 57.987 79.1801C57.9921 78.9139 57.9973 78.6477 58.0025 78.3734C58.0068 78.0902 58.0112 77.8069 58.0156 77.5151C58.0209 77.222 58.0263 76.9288 58.0318 76.6268C58.0486 75.6934 58.0638 74.76 58.079 73.8266C58.0901 73.1925 58.1013 72.5585 58.1126 71.9244C58.1402 70.3727 58.1663 68.8209 58.1916 67.2691C59.3812 67.3519 60.5708 67.4347 61.7964 67.5201C63.3482 70.6128 63.3482 70.6128 63.6953 72.2578C64.1655 74.3285 65.2743 76.4719 66.6403 78.125C66.7412 78.27 66.8421 78.4149 66.9461 78.5643C66.8611 78.8128 66.7762 79.0613 66.6886 79.3173C64.8572 76.8103 63.5876 74.1861 62.5925 71.2758C62.4748 70.9335 62.3532 70.5925 62.2275 70.2529C62.0674 69.816 61.9245 69.3731 61.7833 68.93C61.1747 68.1334 60.9365 68.1438 59.9626 67.981C59.7282 67.9404 59.4937 67.8997 59.2522 67.8578C59.0721 67.8292 58.8921 67.8006 58.7066 67.7711C58.7051 67.9396 58.7035 68.1081 58.702 68.2817C58.6855 70.0409 58.6637 71.7999 58.639 73.559C58.6304 74.2149 58.6232 74.8707 58.6174 75.5266C58.6087 76.4712 58.5952 77.4157 58.5808 78.3603C58.5784 78.7977 58.5784 78.7977 58.5759 79.244C58.5317 81.6368 58.1 83.3442 56.3983 85.1335C54.8429 86.4955 53.1263 87.1836 51.0373 87.1533C48.5554 86.9143 46.7473 85.6426 45.1826 83.8216C43.9462 82.2337 43.9912 80.2455 43.9955 78.3242C43.9949 78.1306 43.9943 77.9369 43.9937 77.7374C43.9921 77.0926 43.9923 76.4477 43.9925 75.8029C43.9917 75.3389 43.9909 74.8749 43.9899 74.4109C43.9876 73.1533 43.987 71.8957 43.9869 70.6381C43.9867 69.8517 43.9861 69.0654 43.9854 68.2791C43.9831 65.5342 43.982 62.7893 43.9822 60.0444C43.9824 57.4884 43.9796 54.9323 43.9756 52.3763C43.9722 50.1794 43.9708 47.9824 43.971 45.7855C43.9711 44.4744 43.9703 43.1634 43.9676 41.8523C43.9651 40.6191 43.9651 39.3858 43.967 38.1526C43.9672 37.701 43.9666 37.2494 43.9651 36.7978C43.946 30.8781 43.946 30.8781 46.0898 28.6145C46.8301 27.9869 46.8301 27.9869 47.3772 27.6104Z" fill="white"/>
<path d="M83.1676 57.7309C83.4251 58.4839 83.4251 58.4839 83.1193 59.1546C82.1643 60.7357 81.2156 62.0276 79.8203 63.253C79.6188 63.4523 79.4174 63.6516 79.2098 63.857C77.681 65.3273 75.9808 66.6651 74.1556 67.7711C75.5645 70.9934 77.7085 72.7018 80.9016 74.1545C83.0118 75.1273 84.2703 76.1651 85.4689 78.125C86.0008 79.9552 86.0318 81.6774 85.2114 83.4275C84.1029 85.3161 82.4672 86.4756 80.3353 87.0984C77.0503 87.6913 74.4129 87.0165 71.5808 85.3414C69.3892 83.8253 67.883 81.7661 66.946 79.3173C67.116 79.3173 67.2859 79.3173 67.461 79.3173C67.9538 79.9798 68.3901 80.647 68.7987 81.3616C69.4114 82.481 69.4114 82.481 70.5026 83.0823C70.6884 83.0823 70.8743 83.0823 71.0658 83.0823C71.0658 83.4137 71.0658 83.745 71.0658 84.0863C71.4057 84.1692 71.7456 84.252 72.0957 84.3374C72.0957 84.503 72.0957 84.6687 72.0957 84.8394C72.4356 84.8394 72.7755 84.8394 73.1257 84.8394C73.1257 85.005 73.1257 85.1707 73.1257 85.3414C73.2691 85.3507 73.4125 85.3601 73.5602 85.3698C74.6079 85.4578 75.5162 85.5848 76.4891 85.9846C77.749 86.4837 78.9109 86.5624 80.2226 86.1258C80.4297 86.0326 80.6368 85.9394 80.8502 85.8434C81.1423 85.7813 81.4344 85.7191 81.7353 85.6551C83.1488 85.1717 83.8395 84.3357 84.6803 83.1608C85.1506 81.811 85.275 80.3654 84.7558 79.0084C84.3937 78.3672 84.1083 77.8933 83.4251 77.5602C83.4251 77.2289 83.4251 76.8976 83.4251 76.5562C82.7456 76.2014 82.1193 75.9607 81.3652 75.8032C81.3652 75.5547 81.3652 75.3062 81.3652 75.0502C80.9522 75.0079 80.5391 74.9662 80.1261 74.9247C79.896 74.9014 79.666 74.8781 79.429 74.8541C78.769 74.7882 78.769 74.7882 78.0179 74.7992C78.0179 74.5507 78.0179 74.3022 78.0179 74.0462C77.6074 73.6102 77.6074 73.6102 77.0684 73.199C76.8816 73.0457 76.6947 72.8923 76.5022 72.7343C76.3226 72.5874 76.143 72.4405 75.958 72.2892C75.492 71.8856 75.0864 71.4901 74.6706 71.0341C74.6706 70.7856 74.6706 70.5372 74.6706 70.2811C74.3307 70.1983 73.9908 70.1155 73.6407 70.0301C73.4632 69.064 73.4091 68.2298 73.6407 67.2691C74.2396 66.7232 74.8712 66.4084 75.5929 66.0297C78.2253 64.4813 80.5823 62.059 82.1377 59.488C82.2479 59.3084 82.3581 59.1288 82.4716 58.9438C82.7109 58.5436 82.9407 58.1379 83.1676 57.7309Z" fill="white"/>
<path d="M55.8742 27.8614C57.6466 29.2475 58.3018 30.737 58.7066 32.8815C58.7873 33.9047 58.7812 34.9154 58.7549 35.9406C58.7496 36.335 58.7496 36.335 58.7443 36.7373C58.7353 37.3765 58.7227 38.0155 58.7066 38.6546C58.8559 38.6032 59.0053 38.5517 59.1592 38.4987C64.1627 36.8165 69.9939 37.1881 74.7708 39.3671C76.4048 40.1491 77.9167 41.013 79.3054 42.1687C79.4468 42.2767 79.5882 42.3848 79.7339 42.4962C80.5741 43.1458 81.2415 43.8405 81.8802 44.6787C81.7953 44.8444 81.7103 45.01 81.6227 45.1807C81.4438 44.9588 81.2649 44.7368 81.0806 44.5081C80.3723 43.6809 79.5915 43.0333 78.71 42.3883C78.5616 42.2792 78.4133 42.1702 78.2604 42.0578C76.3786 40.6979 74.781 40.0662 72.4921 39.5861C71.8383 39.4076 71.8383 39.4076 71.3233 38.9056C68.0733 38.251 64.4288 38.478 61.2064 39.1618C60.1078 39.387 59.2865 39.3629 58.1916 39.1566C58.188 38.857 58.188 38.857 58.1843 38.5513C58.1704 37.6339 58.1489 36.7167 58.1272 35.7994C58.1236 35.4853 58.1199 35.1711 58.1162 34.8474C58.0556 32.591 57.754 30.7392 56.357 28.8968C54.193 27.3376 52.0754 27.1736 49.4371 27.3594C48.921 27.4358 48.4054 27.5172 47.8922 27.6104C50.2261 25.7416 53.4619 26.4629 55.8742 27.8614Z" fill="white"/>
<path d="M76.4731 45.6827C77.3653 46.4734 77.7655 47.2844 78.0019 48.4281C78.2201 49.4457 78.4529 50.4588 78.6939 51.4715C78.7945 51.8952 78.7945 51.8952 78.8971 52.3275C78.9469 52.5368 78.9967 52.7462 79.048 52.9619C79.2179 52.9619 79.3878 52.9619 79.5629 52.9619C79.5405 53.5689 79.5129 54.175 79.4825 54.7816C79.4767 54.9528 79.4708 55.124 79.4649 55.3003C79.4068 56.361 79.2488 56.9362 78.533 57.7309C78.3584 58.3158 78.1869 58.9015 78.018 59.488C77.4792 60.6172 76.8034 61.1294 75.7006 61.747C75.5307 61.747 75.3608 61.747 75.1857 61.747C75.1857 61.9127 75.1857 62.0783 75.1857 62.249C74.7736 62.46 74.3603 62.6688 73.9465 62.8765C73.6015 63.0512 73.6015 63.0512 73.2495 63.2295C72.6108 63.504 72.6108 63.504 71.8384 63.504C71.8384 63.3384 71.8384 63.1727 71.8384 63.002C72.0033 62.9318 72.1683 62.8616 72.3383 62.7892C74.9559 61.6065 76.462 60.1241 77.503 57.4799C78.3634 54.6711 78.1929 51.7164 77.2456 48.9458C77.0756 48.9458 76.9057 48.9458 76.7306 48.9458C76.7306 49.1943 76.7306 49.4428 76.7306 49.6988C75.5996 50.206 74.6312 50.5545 73.3833 50.7028C73.3833 50.5372 73.3833 50.3715 73.3833 50.2008C73.1921 50.1283 73.0009 50.0559 72.8039 49.9812C72.2072 49.7432 71.6377 49.4858 71.0659 49.1968C71.0659 48.617 71.0659 48.0372 71.0659 47.4398C71.5757 47.6883 71.5757 47.6883 72.0959 47.9418C72.0959 48.1074 72.0959 48.2731 72.0959 48.4438C72.991 48.9818 73.6954 48.9992 74.7351 48.9772C75.1513 48.9704 75.1513 48.9704 75.5759 48.9634C75.787 48.9576 75.9981 48.9518 76.2156 48.9458C76.2593 48.5903 76.302 48.2347 76.3444 47.879C76.3802 47.582 76.3802 47.582 76.4168 47.279C76.489 46.6193 76.489 46.6193 76.4731 45.6827Z" fill="white"/>
<path d="M72.6108 51.4558C72.7807 51.5386 72.9506 51.6215 73.1257 51.7068C73.2414 54.2505 72.9891 55.917 71.1896 57.8358C71.0009 58.0324 71.0009 58.0324 70.8084 58.2329C70.5375 58.5435 70.5375 58.5435 70.2612 58.8604C70.1019 58.9847 69.9426 59.1089 69.7784 59.2369C69.3017 59.1516 69.3017 59.1516 68.7485 58.9859C68.5666 58.9416 68.3847 58.8973 68.1973 58.8516C67.6944 58.729 67.1915 58.6065 66.6886 58.4839C67.649 56.1982 68.6026 54.9435 70.8084 53.7148C70.9846 53.6152 71.1609 53.5155 71.3424 53.4129C71.7637 53.1763 72.187 52.9432 72.6108 52.7108C72.6108 52.2967 72.6108 51.8825 72.6108 51.4558Z" fill="white"/>
<path d="M47.3772 27.6104C47.5472 27.6933 47.7171 27.7761 47.8922 27.8614C47.6781 28.0299 47.6781 28.0299 47.4597 28.2017C45.9101 29.4623 45.3745 30.2118 45.1725 32.1756C45.1562 32.3914 45.14 32.6072 45.1232 32.8296C45.0598 33.3835 45.0598 33.3835 44.8024 33.8855C44.7728 34.3158 44.7594 34.7472 44.7536 35.1784C44.7493 35.4555 44.745 35.7327 44.7405 36.0182C44.737 36.3271 44.7335 36.6361 44.7299 36.9545C44.7253 37.2844 44.7206 37.6144 44.7158 37.9543C44.7029 38.8807 44.6916 39.8072 44.6807 40.7336C44.6736 41.3208 44.6661 41.9079 44.6584 42.4951C44.4925 55.1033 44.3948 67.7125 44.2874 80.3213C44.2024 80.3213 44.1175 80.3213 44.0299 80.3213C44.0179 74.1749 44.0088 68.0286 44.0032 61.8822C44.0006 59.0283 43.997 56.1743 43.9911 53.3204C43.9859 50.8326 43.9826 48.3448 43.9815 45.8569C43.9808 44.54 43.9792 43.223 43.9755 41.906C43.972 40.6656 43.9709 39.4252 43.9717 38.1847C43.9715 37.7303 43.9705 37.2759 43.9685 36.8215C43.9439 30.8802 43.9439 30.8802 46.0898 28.6145C46.8301 27.9869 46.8301 27.9869 47.3772 27.6104Z" fill="white"/>
<path d="M66.1737 48.4438C66.751 48.8301 66.751 48.8301 67.2036 49.4478C67.3006 50.142 67.3365 50.7184 67.3163 51.4087C67.3181 51.581 67.3199 51.7533 67.3218 51.9309C67.306 53.185 66.9798 54.0734 66.4312 55.2209C66.2331 55.8401 66.0451 56.4625 65.8679 57.0877C65.7793 57.398 65.6907 57.7083 65.5994 58.028C65.5013 58.3779 65.5013 58.3779 65.4012 58.7349C64.2384 58.7541 63.1892 58.7606 62.0539 58.4839C61.969 58.1526 61.884 57.8213 61.7964 57.4799C61.6584 57.4644 61.5203 57.4488 61.378 57.4328C60.4424 57.1208 59.7514 56.7929 59.2216 55.9739C58.9257 54.2157 59.0003 52.4674 59.994 50.9538C61.6027 49.2655 63.7102 47.88 66.1737 48.4438ZM60.8047 50.6655C59.674 52.1804 59.5116 53.6525 59.7366 55.4719C60.5745 56.9422 61.9803 57.6967 63.5988 58.2329C64.4257 58.2776 64.4257 58.2776 65.1437 58.2329C65.3968 57.5064 65.6488 56.7795 65.9001 56.0523C65.9716 55.8473 66.0432 55.6424 66.1169 55.4312C66.787 53.4871 67.4238 51.5654 66.576 49.589C66.2332 48.984 66.2332 48.984 65.9162 48.6948C64.0219 48.5416 62.1466 49.3574 60.8047 50.6655Z" fill="white"/>
<path d="M58.1917 67.2691C59.976 67.3933 59.976 67.3933 61.7964 67.5201C63.3482 70.6128 63.3482 70.6128 63.6954 72.2578C64.1655 74.3285 65.2744 76.4719 66.6404 78.125C66.7917 78.3424 66.7917 78.3424 66.9461 78.5643C66.8612 78.8127 66.7762 79.0612 66.6887 79.3173C64.8573 76.8103 63.5877 74.186 62.5925 71.2758C62.4748 70.9335 62.3533 70.5925 62.2276 70.2529C62.0674 69.816 61.9246 69.3731 61.7834 68.93C61.1574 67.9577 61.1574 67.9577 58.7066 67.7711C58.6217 72.3268 58.5367 76.8825 58.4491 81.5763C58.3642 81.5763 58.2792 81.5763 58.1917 81.5763C58.1917 76.8549 58.1917 72.1335 58.1917 67.2691Z" fill="white"/>
<path d="M55.8742 27.8614C57.6466 29.2475 58.3018 30.737 58.7066 32.8815C58.7873 33.9047 58.7812 34.9154 58.7549 35.9406C58.7496 36.335 58.7496 36.335 58.7443 36.7373C58.7353 37.3765 58.7227 38.0155 58.7066 38.6546C59.4713 38.5304 59.4713 38.5304 60.2515 38.4036C59.4633 39.0622 59.2906 39.1566 58.1916 39.1566C58.188 38.857 58.188 38.857 58.1843 38.5513C58.1704 37.6339 58.1489 36.7167 58.1272 35.7994C58.1236 35.4853 58.1199 35.1711 58.1162 34.8474C58.0556 32.591 57.754 30.7392 56.357 28.8968C54.193 27.3376 52.0754 27.1736 49.4371 27.3594C48.921 27.4358 48.4054 27.5172 47.8922 27.6104C50.2261 25.7416 53.4619 26.4629 55.8742 27.8614Z" fill="white"/>
<path d="M71.0659 65.261C71.1933 65.5095 71.1933 65.5095 71.3234 65.7631C71.0039 66.1727 70.6815 66.5802 70.3578 66.9867C70.1786 67.2138 69.9993 67.441 69.8147 67.675C69.2902 68.2441 68.9334 68.4696 68.2336 68.7751C68.1486 68.9408 68.0636 69.1064 67.9761 69.2771C66.0638 69.303 64.2077 69.2768 62.3114 69.0261C62.3114 68.6948 62.3114 68.3635 62.3114 68.0221C62.7819 67.9993 62.7819 67.9993 63.2619 67.976C63.68 67.9548 64.098 67.9336 64.5161 67.9123C64.825 67.8975 64.825 67.8975 65.1402 67.8824C67.6223 67.87 67.6223 67.87 69.7302 66.7984C69.8752 66.6697 70.0203 66.5409 70.1697 66.4082C70.6057 65.9794 70.6057 65.9794 71.0659 65.261Z" fill="white"/>
<path d="M81.8802 45.1807C83.7997 46.8568 84.5588 49.6645 84.7689 52.1118C84.8374 54.0781 84.5611 56.0699 83.4252 57.7309C83.466 57.4109 83.5068 57.0909 83.5489 56.7612C83.6939 55.4779 83.7481 54.2053 83.7631 52.9148C83.7706 52.6982 83.778 52.4815 83.7857 52.2584C83.8003 50.8299 83.5738 50.1066 82.6527 48.9458C82.4485 48.3683 82.4485 48.3683 82.3469 47.8633C82.2392 46.9917 82.2392 46.9917 81.8802 46.6867C81.8697 46.1848 81.8693 45.6826 81.8802 45.1807Z" fill="white"/>
<path d="M71.0659 47.4398C71.5757 47.6883 71.5757 47.6883 72.0959 47.9418C72.0959 48.1074 72.0959 48.2731 72.0959 48.4438C72.991 48.9818 73.6954 48.9992 74.7351 48.9772C75.1513 48.9704 75.1513 48.9704 75.5759 48.9634C75.787 48.9576 75.9981 48.9518 76.2156 48.9458C76.3006 48.6973 76.3856 48.4488 76.4731 48.1928C76.5581 48.3584 76.643 48.5241 76.7306 48.6948C76.9005 48.7776 77.0705 48.8604 77.2456 48.9458C77.0756 48.9458 76.9057 48.9458 76.7306 48.9458C76.7306 49.1943 76.7306 49.4428 76.7306 49.6988C75.5996 50.206 74.6312 50.5545 73.3833 50.7028C73.3833 50.5371 73.3833 50.3715 73.3833 50.2008C73.1921 50.1283 73.0009 50.0558 72.8039 49.9812C72.2072 49.7432 71.6377 49.4858 71.0659 49.1968C71.0659 48.617 71.0659 48.0371 71.0659 47.4398Z" fill="white"/>
<path d="M57.9342 80.5723C58.0192 80.5723 58.1041 80.5723 58.1917 80.5723C58.3008 82.0881 58.164 83.1175 57.1617 84.3374C55.6554 85.9411 53.7589 87.1023 51.481 87.2082C48.7501 86.9124 46.9305 85.7456 45.0599 83.8353C45.1449 83.6697 45.2299 83.504 45.3174 83.3333C45.5033 83.5197 45.6892 83.7061 45.8807 83.8981C47.5344 85.4743 48.9678 86.3455 51.3039 86.4866C53.0524 86.425 54.4757 85.8537 55.8743 84.8394C57.0373 83.5267 57.7178 82.3003 57.9342 80.5723Z" fill="white"/>
<path d="M65.4012 57.7309C65.4862 57.9794 65.5712 58.2279 65.6587 58.4839C65.9721 58.4736 66.2854 58.4632 66.6082 58.4526C67.5175 58.4494 68.1821 58.5843 69.006 58.9859C69.006 59.1516 69.006 59.3173 69.006 59.488C69.16 59.5553 69.3141 59.6226 69.4727 59.6919C70.4938 60.2323 71.116 60.9622 71.5809 61.998C71.8249 63.4834 71.7932 64.6595 70.8728 65.9042C70.3158 66.5638 69.8087 66.9272 69.006 67.2691C69.2659 66.836 69.5257 66.403 69.7855 65.9699C70.0718 65.4774 70.0718 65.4774 70.2935 64.759C70.4634 64.759 70.6333 64.759 70.8084 64.759C70.8293 64.3147 70.8443 63.8702 70.8567 63.4256C70.8657 63.1781 70.8746 62.9305 70.8839 62.6755C70.7963 61.8888 70.6325 61.7445 70.036 61.245C69.951 60.9965 69.866 60.748 69.7785 60.492C69.3512 60.238 68.9221 59.9868 68.4911 59.739C68.4911 59.5733 68.4911 59.4076 68.4911 59.237C68.0848 59.2447 68.0848 59.2447 67.6703 59.2526C66.8619 59.2397 66.1817 59.1704 65.4012 58.9859C65.4012 58.5718 65.4012 58.1576 65.4012 57.7309Z" fill="white"/>
<path d="M58.1917 39.4076C58.4466 39.5319 58.4466 39.5319 58.7066 39.6586C58.7066 43.8002 58.7066 47.9418 58.7066 52.2088C59.089 52.0846 59.089 52.0846 59.4791 51.9578C59.3941 52.7033 59.3091 53.4488 59.2216 54.2169C58.9667 54.2169 58.7118 54.2169 58.4491 54.2169C58.2014 53.4056 58.1604 52.6764 58.1624 51.8316C58.1624 51.5553 58.1625 51.279 58.1625 50.9943C58.1638 50.6975 58.1651 50.4007 58.1665 50.0949C58.1669 49.7899 58.1672 49.4849 58.1676 49.1707C58.1691 48.1963 58.1723 47.2219 58.1756 46.2475C58.1769 45.587 58.178 44.9264 58.1791 44.2659C58.1819 42.6465 58.1862 41.0271 58.1917 39.4076Z" fill="white"/>
<path d="M66.6886 48.4438C68.5574 48.5305 69.7627 48.9562 71.3233 49.9498C71.5782 50.1051 71.8331 50.2604 72.0958 50.4204C72.7931 51.1427 72.8108 51.741 72.8682 52.7109C72.2567 53.103 72.2567 53.103 71.5808 53.4639C71.4109 53.381 71.2409 53.2982 71.0658 53.2129C71.3128 53.1274 71.3128 53.1274 71.5647 53.0403C72.1658 52.7479 72.1658 52.7479 72.2889 52.052C72.3101 51.8552 72.3314 51.6585 72.3533 51.4558C72.0134 51.373 71.6735 51.2902 71.3233 51.2048C71.3233 51.0392 71.3233 50.8735 71.3233 50.7028C71.0525 50.7184 71.0525 50.7184 70.7762 50.7342C69.5618 50.6827 68.5224 50.2559 67.4611 49.6988C67.4611 49.5331 67.4611 49.3675 67.4611 49.1968C67.2061 49.114 66.9512 49.0311 66.6886 48.9458C66.6886 48.7801 66.6886 48.6145 66.6886 48.4438Z" fill="white"/>
<path d="M83.1677 57.7309C83.4252 58.4839 83.4252 58.4839 83.1194 59.1546C82.1643 60.7357 81.2157 62.0276 79.8204 63.253C79.6189 63.4523 79.4174 63.6516 79.2099 63.857C77.6811 65.3273 75.9809 66.6651 74.1557 67.7711C74.2331 67.9102 74.3104 68.0493 74.3901 68.1927C74.488 68.3745 74.5859 68.5564 74.6868 68.7437C74.7854 68.9243 74.8839 69.1048 74.9855 69.2908C75.0516 69.452 75.1176 69.6131 75.1857 69.7791C75.1007 69.9448 75.0157 70.1104 74.9282 70.2811C74.7107 69.9692 74.4968 69.655 74.2845 69.3399C74.165 69.1651 74.0455 68.9904 73.9224 68.8104C73.6407 68.2731 73.6407 68.2731 73.6407 67.2691C74.1245 66.9102 74.1245 66.9102 74.8155 66.5474C77.7484 64.8276 80.3961 62.367 82.1378 59.488C82.2479 59.3084 82.3581 59.1288 82.4717 58.9438C82.711 58.5436 82.9408 58.1379 83.1677 57.7309Z" fill="white"/>
<path d="M65.9161 47.9418C68.474 47.6541 70.5369 48.2078 72.6107 49.6988C72.8411 50.3861 72.8411 50.3861 72.8682 50.9538C73.1231 51.0367 73.3781 51.1195 73.6407 51.2048C73.5557 52.3645 73.4707 53.5241 73.3832 54.7189C73.2982 54.7189 73.2133 54.7189 73.1257 54.7189C73.1221 54.516 73.1184 54.3131 73.1147 54.1041C73.0637 52.435 73.0637 52.435 72.3372 50.9695C70.5097 49.7187 68.9392 48.7499 66.6886 48.4438C66.6036 48.6094 66.5187 48.7751 66.4311 48.9458C66.4311 48.6973 66.4311 48.4488 66.4311 48.1928C66.2612 48.11 66.0912 48.0271 65.9161 47.9418Z" fill="white"/>
<path d="M72.6108 51.4558C72.7808 51.5386 72.9507 51.6215 73.1258 51.7068C73.2755 54.999 73.2755 54.999 72.3533 56.4759C71.8435 56.7244 71.8435 56.7244 71.3234 56.9779C71.3234 56.0668 71.3234 55.1556 71.3234 54.2169C70.9835 54.2997 70.6436 54.3825 70.2935 54.4679C71.0165 53.7239 71.628 53.1011 72.6108 52.7108C72.6108 52.2967 72.6108 51.8825 72.6108 51.4558Z" fill="white"/>
<path d="M80.8503 74.2972C82.6104 74.9027 83.9033 75.8071 84.9701 77.3092C85.5156 78.8286 85.5456 80.2278 85.4851 81.8273C85.4001 81.8273 85.3151 81.8273 85.2276 81.8273C85.2053 81.6244 85.1831 81.4216 85.1602 81.2125C84.9375 79.5616 84.7781 78.6708 83.4252 77.5602C83.4252 77.2289 83.4252 76.8976 83.4252 76.5562C82.7457 76.2014 82.1194 75.9607 81.3653 75.8032C81.3653 75.4719 81.3653 75.1406 81.3653 74.7992C81.1954 74.7992 81.0254 74.7992 80.8503 74.7992C80.8503 74.6335 80.8503 74.4679 80.8503 74.2972Z" fill="white"/>
<path d="M84.4551 78.5643C84.625 78.6471 84.795 78.7299 84.9701 78.8153C85.4173 80.1232 85.5222 81.6038 84.9942 82.9039C84.2918 84.0408 83.3879 84.9432 82.3952 85.8434C82.2253 85.7606 82.0553 85.6777 81.8802 85.5924C82.0502 85.2611 82.2201 84.9297 82.3952 84.5884C82.5652 84.6712 82.7351 84.754 82.9102 84.8394C82.9102 84.5909 82.9102 84.3424 82.9102 84.0864C83.1651 84.0864 83.42 84.0864 83.6826 84.0864C83.7676 83.5065 83.8526 82.9267 83.9401 82.3293C84.0251 82.3293 84.1101 82.3293 84.1976 82.3293C84.2826 81.0869 84.3676 79.8444 84.4551 78.5643Z" fill="white"/>
<path d="M61.7964 68.2731C62.7962 69.4798 63.3206 70.6377 63.6471 72.148C64.1537 74.2584 65.2414 76.4322 66.6403 78.125C66.7412 78.27 66.8421 78.4149 66.9461 78.5643C66.8611 78.8128 66.7761 79.0613 66.6886 79.3173C64.978 76.9757 63.7337 74.521 62.7459 71.8185C62.6803 71.6394 62.6148 71.4604 62.5472 71.2758C62.195 70.2793 61.9398 69.3226 61.7964 68.2731Z" fill="white"/>
<path d="M65.723 37.6035C66.1407 37.5989 66.1407 37.5989 66.5669 37.5942C68.3008 37.5912 69.8968 37.7459 71.5808 38.1526C71.5808 38.2354 71.5808 38.3183 71.5808 38.4036C67.8421 38.4036 64.1034 38.4036 60.2515 38.4036C61.8536 37.3624 63.8621 37.6046 65.723 37.6035Z" fill="white"/>
<path d="M65.1437 48.4438C65.7903 48.529 66.3014 48.6134 66.8545 48.9605C67.3964 49.7171 67.3151 50.5045 67.3001 51.3931C67.3031 51.5665 67.3061 51.7399 67.3092 51.9186C67.3018 53.182 66.9859 54.0646 66.4311 55.2209C66.233 55.8401 66.045 56.4625 65.8678 57.0877C65.7792 57.398 65.6906 57.7083 65.5993 58.028C65.5339 58.2613 65.4685 58.4946 65.4012 58.735C64.8064 58.6521 64.2116 58.5693 63.5988 58.4839C63.5988 58.4011 63.5988 58.3183 63.5988 58.2329C64.1086 58.2329 64.6184 58.2329 65.1437 58.2329C65.1689 58.0896 65.1941 57.9463 65.2201 57.7986C65.4628 56.5156 65.7873 55.2999 66.2058 54.06C66.7312 52.4277 67.0059 51.2473 66.3506 49.6047C65.9439 48.8913 65.9439 48.8913 65.1437 48.4438Z" fill="white"/>
<path d="M66.415 42.8746C66.5928 42.8715 66.7705 42.8685 66.9536 42.8653C68.078 42.8622 69.0023 42.9853 70.0359 43.4237C70.1634 43.6722 70.1634 43.6722 70.2934 43.9257C70.144 43.9076 69.9947 43.8894 69.8408 43.8708C68.9108 43.7631 68.0128 43.6747 67.0748 43.6747C66.8624 43.6747 66.65 43.6747 66.4311 43.6747C66.3461 43.5919 66.2612 43.509 66.1736 43.4237C65.5299 43.3818 65.5299 43.3818 64.8862 43.4237C64.8012 43.5065 64.7163 43.5893 64.6287 43.6747C64.3526 43.7109 64.0764 43.7472 63.7919 43.7845C62.8489 43.8856 62.8489 43.8856 62.1021 44.2081C61.9163 44.2805 61.7304 44.353 61.5389 44.4277C61.369 44.3449 61.199 44.262 61.0239 44.1767C61.3394 44.0126 61.6561 43.851 61.9734 43.6904C62.1496 43.6001 62.3259 43.5098 62.5075 43.4168C63.7759 42.8795 65.0505 42.8758 66.415 42.8746Z" fill="white"/>
<path d="M71.5808 38.4036C72.9331 38.5453 73.9615 38.9836 75.1534 39.5802C75.3358 39.6704 75.5181 39.7606 75.706 39.8536C77.0105 40.5126 78.1858 41.237 79.3054 42.1687C79.4468 42.2768 79.5882 42.3848 79.7338 42.4962C80.5741 43.1458 81.2415 43.8405 81.8802 44.6787C81.7952 44.8444 81.7103 45.0101 81.6227 45.1807C81.4438 44.9588 81.2649 44.7368 81.0806 44.5081C80.3722 43.6808 79.5913 43.0336 78.7099 42.3883C78.5621 42.2791 78.4144 42.1698 78.2621 42.0573C77.1965 41.2839 76.1515 40.6567 74.9281 40.1607C72.3972 39.0956 72.3972 39.0956 71.5808 38.4036Z" fill="white"/>
<path d="M57.1616 30.1205C58.1714 31.3189 58.2238 32.2321 58.2167 33.764C58.2155 34.2347 58.2155 34.2347 58.2142 34.715C58.212 35.0418 58.2099 35.3686 58.2077 35.7053C58.2065 36.036 58.2053 36.3667 58.2041 36.7074C58.2011 37.5238 58.1969 38.3402 58.1916 39.1566C58.3615 39.2395 58.5314 39.3223 58.7065 39.4076C58.3667 39.3248 58.0268 39.242 57.6766 39.1566C57.6701 38.9632 57.6637 38.7697 57.657 38.5704C57.6269 37.6833 57.5954 36.7963 57.5639 35.9093C57.5538 35.605 57.5437 35.3006 57.5333 34.9871C57.4742 33.3522 57.3753 31.7433 57.1616 30.1205Z" fill="white"/>
<path d="M70.2934 58.2329C70.7762 58.4839 70.7762 58.4839 71.3233 58.986C71.4722 59.4777 71.619 59.9713 71.7257 60.4733C71.8762 61.1691 72.1126 61.8296 72.3533 62.5C72.0984 62.6657 71.8435 62.8313 71.5808 63.002C71.5171 62.826 71.4534 62.65 71.3877 62.4686C70.819 61.1935 70.0485 60.1807 69.006 59.237C69.2609 59.237 69.5158 59.237 69.7784 59.237C69.9484 58.9056 70.1183 58.5743 70.2934 58.2329Z" fill="white"/>
<path d="M69.5209 54.4679C69.6909 54.5507 69.8608 54.6335 70.0359 54.7189C69.9274 54.8282 69.8188 54.9376 69.707 55.0503C68.8093 56.0015 68.3008 56.6379 68.2335 57.9819C68.4353 58.013 68.6371 58.044 68.845 58.076C69.5209 58.2329 69.5209 58.2329 70.0359 58.7349C69.9509 58.9006 69.866 59.0663 69.7784 59.2369C68.2335 58.8604 68.2335 58.8604 66.6886 58.4839C67.3723 56.8566 67.9719 55.4745 69.5209 54.4679Z" fill="white"/>
<path d="M76.473 45.6827C77.3874 46.5741 77.7598 47.2573 78.0179 48.4752C78.0598 48.6696 78.1016 48.8641 78.1447 49.0644C78.1878 49.2738 78.231 49.4831 78.2754 49.6988C78.3239 49.9314 78.3723 50.1641 78.4223 50.4038C78.5465 51.0052 78.6692 51.6068 78.7904 52.2088C78.5355 52.2917 78.2806 52.3745 78.0179 52.4598C77.9837 52.2722 77.9496 52.0845 77.9143 51.8912C77.8689 51.644 77.8234 51.3968 77.7765 51.1421C77.7317 50.8975 77.6869 50.6529 77.6408 50.4008C77.5277 49.825 77.3991 49.2613 77.2455 48.6948C77.0755 48.6948 76.9056 48.6948 76.7305 48.6948C76.6455 47.7008 76.5606 46.7068 76.473 45.6827Z" fill="white"/>
<path d="M84.9701 77.8112C85.7877 78.6083 85.8014 79.3797 85.8391 80.4625C85.8187 82.29 85.2903 83.6928 84.0226 85.0521C83.146 85.825 82.2158 86.4301 81.1078 86.8474C80.8529 86.7646 80.598 86.6817 80.3353 86.5964C80.4847 86.5233 80.6341 86.4501 80.7879 86.3748C82.7071 85.3931 84.1266 84.3353 85.0515 82.3823C85.519 80.9084 85.2908 79.2966 84.9701 77.8112Z" fill="white"/>
<path d="M70.0359 54.4679C70.0359 55.2209 70.0359 55.2209 69.8911 55.6601C69.7333 56.2808 69.7333 56.2808 69.9233 57.1348C69.9604 57.4143 69.9976 57.6939 70.0359 57.9819C69.866 58.1476 69.696 58.3132 69.5209 58.4839C68.8611 58.4212 68.8611 58.4212 68.2335 58.2329C67.976 57.7309 67.976 57.7309 68.1209 57.0563C68.585 56.0137 69.2432 55.2892 70.0359 54.4679Z" fill="white"/>
<path d="M58.7065 45.4317C58.9615 45.556 58.9615 45.556 59.2215 45.6827C59.1365 47.4222 59.0516 49.1617 58.964 50.9538C59.2189 50.9538 59.4738 50.9538 59.7365 50.9538C59.6834 50.7985 59.6303 50.6432 59.5756 50.4832C59.5278 50.2192 59.5278 50.2192 59.479 49.9498C59.6489 49.7841 59.8189 49.6185 59.994 49.4478C60.6699 49.5419 60.6699 49.5419 61.2814 49.6988C61.048 50.0249 60.8114 50.3486 60.5733 50.6714C60.4419 50.852 60.3104 51.0325 60.175 51.2186C59.7365 51.7068 59.7365 51.7068 58.7065 52.2088C58.7065 49.9724 58.7065 47.7359 58.7065 45.4317Z" fill="white"/>
<path d="M66.946 79.3173C67.116 79.3173 67.2859 79.3173 67.461 79.3173C67.987 80.0199 68.4448 80.7484 68.9043 81.4939C70.3121 83.7765 70.3121 83.7765 72.6107 85.0904C72.6107 85.256 72.6107 85.4217 72.6107 85.5924C72.9506 85.6752 73.2905 85.758 73.6407 85.8434C73.3857 85.9262 73.1308 86.009 72.8682 86.0944C70.1329 84.6992 68.4245 82.3905 66.946 79.8193C66.946 79.6536 66.946 79.4879 66.946 79.3173Z" fill="white"/>
<path d="M76.9881 59.2369C77.073 59.4854 77.158 59.7339 77.2456 59.99C76.4633 61.4021 76.4633 61.4021 75.6363 61.7156C75.4876 61.726 75.3389 61.7363 75.1857 61.747C75.1857 61.9126 75.1857 62.0783 75.1857 62.249C74.7736 62.46 74.3603 62.6687 73.9465 62.8765C73.7165 62.993 73.4865 63.1095 73.2495 63.2295C72.6108 63.504 72.6108 63.504 71.8384 63.504C71.8384 63.3383 71.8384 63.1727 71.8384 63.002C71.9944 62.9405 72.1504 62.879 72.3111 62.8157C74.2591 61.9685 75.5598 60.7626 76.9881 59.2369Z" fill="white"/>
<path d="M67.2036 50.2008C67.3735 50.2836 67.5435 50.3665 67.7186 50.4518C68.0347 51.8507 68.1031 53.3348 67.7186 54.7189C67.3775 54.8905 67.034 55.0576 66.6886 55.2209C66.3541 56.1109 66.3541 56.1109 66.1737 56.9779C65.9162 56.4759 65.9162 56.4759 66.051 55.9592C66.1233 55.7621 66.1957 55.5651 66.2702 55.3621C66.3412 55.1657 66.4123 54.9693 66.4855 54.7669C66.5525 54.5854 66.6196 54.4039 66.6886 54.2169C66.9732 53.3847 67.0288 52.6596 67.091 51.7853C67.1125 51.4892 67.1341 51.1932 67.1563 50.8881C67.1719 50.6613 67.1875 50.4345 67.2036 50.2008Z" fill="white"/>
<path d="M71.3234 48.1928C72.8361 48.6634 72.8361 48.6634 73.1258 48.9458C74.2912 48.9837 75.3358 48.972 76.4731 48.6948C76.0985 49.638 76.0985 49.638 75.5236 49.8871C74.2484 50.0214 73.417 50.1023 72.2567 49.4949C71.5808 48.9458 71.5808 48.9458 71.3234 48.1928Z" fill="white"/>
<path d="M59.2216 52.7108C59.3066 52.7108 59.3915 52.7108 59.4791 52.7108C59.4678 52.9079 59.4565 53.1049 59.4449 53.308C59.4335 54.9468 59.4335 54.9468 60.2817 56.2965C61.3362 57.0148 62.3965 57.5392 63.5988 57.9819C63.5988 58.1476 63.5988 58.3133 63.5988 58.4839C63.8537 58.5668 64.1086 58.6496 64.3713 58.7349C63.6066 58.6521 62.8418 58.5693 62.0539 58.4839C61.9689 58.1526 61.884 57.8213 61.7964 57.4799C61.6584 57.4644 61.5203 57.4489 61.378 57.4329C60.4445 57.1215 59.7419 56.7977 59.2216 55.9739C59.0877 54.8754 59.1323 53.8118 59.2216 52.7108Z" fill="white"/>
<path d="M58.4491 45.6827C58.5341 45.6827 58.619 45.6827 58.7066 45.6827C58.7066 47.8364 58.7066 49.99 58.7066 52.2088C58.9615 52.126 59.2164 52.0432 59.479 51.9578C59.3941 52.7033 59.3091 53.4488 59.2216 54.2169C58.9666 54.2169 58.7117 54.2169 58.4491 54.2169C58.4491 51.4006 58.4491 48.5843 58.4491 45.6827Z" fill="white"/>
<path d="M57.6766 71.0341C57.7616 71.0341 57.8465 71.0341 57.9341 71.0341C57.9532 72.5886 57.9672 74.143 57.9765 75.6975C57.9804 76.2264 57.9857 76.7552 57.9923 77.284C58.0017 78.0441 58.0061 78.8041 58.0095 79.5643C58.0135 79.8007 58.0175 80.0371 58.0216 80.2807C58.0216 80.5017 58.0217 80.7228 58.0218 80.9505C58.0235 81.1445 58.0252 81.3384 58.027 81.5383C57.9105 82.2152 57.6154 82.5681 57.1616 83.0823C57.1506 82.6641 57.1512 82.2455 57.1616 81.8273C57.2891 81.703 57.2891 81.703 57.4191 81.5763C57.4604 80.798 57.486 80.0246 57.5006 79.2457C57.5086 78.8952 57.5086 78.8952 57.5168 78.5377C57.5337 77.7883 57.5488 77.0389 57.5639 76.2895C57.5751 75.7828 57.5863 75.276 57.5976 74.7693C57.6253 73.5242 57.6513 72.2792 57.6766 71.0341Z" fill="white"/>
<path d="M73.3832 52.7108C73.4682 52.7108 73.5531 52.7108 73.6407 52.7108C74.1593 55.2215 74.1593 55.2215 73.5321 56.4259C73.0818 56.9945 72.6495 57.508 72.0958 57.9819C71.9258 57.9819 71.7559 57.9819 71.5808 57.9819C71.9459 56.8593 72.3824 55.7953 72.8682 54.7189C73.0382 54.7189 73.2081 54.7189 73.3832 54.7189C73.3832 54.0562 73.3832 53.3936 73.3832 52.7108Z" fill="white"/>
<path d="M68.491 54.9699C68.3848 55.0579 68.2786 55.1459 68.1691 55.2366C67.3262 56.1463 66.6321 57.2595 66.4311 58.4839C66.1762 58.4839 65.9213 58.4839 65.6587 58.4839C65.6265 57.8878 65.6265 57.8878 65.6587 57.2289C65.8286 57.0633 65.9985 56.8976 66.1736 56.7269C66.248 56.4784 66.3223 56.2299 66.3989 55.9739C66.6886 55.2209 66.6886 55.2209 67.1875 54.8601C67.7185 54.7189 67.7185 54.7189 68.491 54.9699Z" fill="white"/>
<path d="M57.9341 80.5723C58.0191 80.5723 58.1041 80.5723 58.1916 80.5723C58.3006 82.0861 58.1659 83.1205 57.1617 84.3374C56.2558 85.2786 55.4955 85.9916 54.2006 86.3297C53.9882 86.3349 53.7757 86.3401 53.5569 86.3454C54.1346 85.9121 54.6844 85.5407 55.3271 85.2002C56.6777 84.1732 57.5012 82.787 57.9019 81.1684C57.9126 80.9717 57.9232 80.775 57.9341 80.5723Z" fill="white"/>
<path d="M69.521 49.1968C70.8226 49.5291 71.6775 50.0017 72.6108 50.9538C72.8361 51.9108 72.8361 51.9108 72.8683 52.7108C72.2568 53.103 72.2568 53.103 71.5809 53.4638C71.4109 53.381 71.241 53.2982 71.0659 53.2128C71.2305 53.1559 71.3952 53.0989 71.5648 53.0403C72.1659 52.7479 72.1659 52.7479 72.289 52.0519C72.3102 51.8552 72.3314 51.6585 72.3533 51.4558C72.0135 51.373 71.6736 51.2902 71.3234 51.2048C71.3234 51.0391 71.3234 50.8735 71.3234 50.7028C71.1535 50.7028 70.9835 50.7028 70.8084 50.7028C70.7235 50.5371 70.6385 50.3715 70.5509 50.2008C70.0296 50.0371 70.0296 50.0371 69.521 49.9498C69.521 49.7013 69.521 49.4528 69.521 49.1968Z" fill="white"/>
<path d="M58.7066 39.4076C58.9615 39.4905 59.2165 39.5733 59.4791 39.6586C59.3941 39.7415 59.3092 39.8243 59.2216 39.9096C59.1811 40.3194 59.157 40.7308 59.1401 41.1421C59.1294 41.3904 59.1186 41.6388 59.1074 41.8946C59.0923 42.2865 59.0923 42.2865 59.0768 42.6864C59.0657 42.9486 59.0545 43.2109 59.0431 43.481C59.0157 44.1312 58.9894 44.7814 58.9641 45.4317C58.7942 45.5146 58.6242 45.5974 58.4492 45.6827C58.4417 44.6839 58.4371 43.6852 58.4331 42.6864C58.4309 42.4011 58.4287 42.1159 58.4265 41.8221C58.4257 41.5511 58.4249 41.2801 58.424 41.0009C58.4227 40.7498 58.4213 40.4988 58.4199 40.2401C58.4492 39.6586 58.4492 39.6586 58.7066 39.4076Z" fill="white"/>
<path d="M51.4969 27.1084C53.5237 27.1999 55.1744 27.6347 56.6466 29.0537C56.8166 29.2401 56.9865 29.4265 57.1616 29.6185C57.0766 29.7841 56.9917 29.9498 56.9041 30.1205C56.6492 30.0376 56.3943 29.9548 56.1317 29.8695C56.1317 29.7038 56.1317 29.5381 56.1317 29.3675C55.7918 29.2018 55.4519 29.0361 55.1017 28.8655C55.1017 28.6998 55.1017 28.5341 55.1017 28.3634C54.337 28.2392 54.337 28.2392 53.5568 28.1124C53.5568 27.9468 53.5568 27.7811 53.5568 27.6104C52.8771 27.5276 52.1973 27.4448 51.4969 27.3594C51.4969 27.2766 51.4969 27.1938 51.4969 27.1084Z" fill="white"/>
<path d="M47.3772 27.6104C47.5472 27.6933 47.7171 27.7761 47.8922 27.8614C47.6781 28.0299 47.6781 28.0299 47.4597 28.2017C45.908 29.464 45.371 30.2061 45.1886 32.1756C45.1753 32.3914 45.1621 32.6072 45.1484 32.8296C45.0599 33.3835 45.0599 33.3835 44.5449 33.8855C44.4462 31.5292 44.7767 30.0385 46.4358 28.2634C46.8623 27.8614 46.8623 27.8614 47.3772 27.6104Z" fill="white"/>
<path d="M75.1857 70.2811C75.43 70.4934 75.6742 70.7056 75.9259 70.9243C77.4265 72.176 78.9808 73.3846 80.8503 74.0462C79.9682 74.3328 79.6425 74.2215 78.8186 73.8491C77.2541 72.9708 75.7448 72.0097 75.1857 70.2811Z" fill="white"/>
<path d="M73.6407 68.2731C74.438 69.3005 75.2046 70.3488 75.9742 71.3959C76.3732 71.9096 76.7628 72.3544 77.2455 72.7912C76.1057 72.4419 75.4447 71.918 74.6707 71.0341C74.6707 70.7857 74.6707 70.5372 74.6707 70.2811C74.3308 70.1983 73.9909 70.1155 73.6407 70.0301C73.6407 69.4503 73.6407 68.8705 73.6407 68.2731Z" fill="white"/>
<path d="M70.5509 53.4639C70.7209 53.5467 70.8908 53.6295 71.0659 53.7149C70.5882 54.2582 70.2381 54.4913 69.5532 54.7816C68.0665 55.5932 67.3902 57.0082 66.6886 58.4839C66.5146 58.0535 66.5146 58.0535 66.4312 57.4799C66.7259 56.9142 66.7259 56.9142 67.1553 56.3347C67.2951 56.1429 67.4348 55.951 67.5788 55.7533C67.7099 55.5776 67.841 55.4019 67.9761 55.2209C68.146 54.9724 68.3159 54.7239 68.491 54.4679C69.0857 54.2034 69.6865 53.9515 70.2934 53.7149C70.3784 53.632 70.4634 53.5492 70.5509 53.4639Z" fill="white"/>
<path d="M78.7904 52.4598C78.8754 52.6255 78.9603 52.7912 79.0479 52.9618C79.2178 52.9618 79.3878 52.9618 79.5629 52.9618C79.5474 53.5691 79.525 54.1748 79.4985 54.7816C79.4948 54.9528 79.4912 55.124 79.4874 55.3003C79.443 56.1926 79.3686 56.6521 78.7783 57.3505C78.6124 57.476 78.4464 57.6016 78.2754 57.7309C78.2432 56.2877 78.2432 56.2877 78.5329 55.7229C78.592 55.1696 78.6387 54.615 78.6778 54.06C78.6993 53.7617 78.7209 53.4633 78.7431 53.156C78.7587 52.9263 78.7743 52.6965 78.7904 52.4598Z" fill="white"/>
<path d="M69.7784 42.9217C70.6281 42.9217 71.4778 42.9217 72.3533 42.9217C72.3533 43.0874 72.3533 43.253 72.3533 43.4237C73.203 43.5065 74.0527 43.5894 74.9281 43.6747C74.8432 43.8404 74.7582 44.006 74.6707 44.1767C74.0965 44.1479 73.5226 44.1159 72.9487 44.0826C72.6291 44.0651 72.3095 44.0476 71.9801 44.0296C71.1449 43.9347 70.534 43.7701 69.7784 43.4237C69.7784 43.258 69.7784 43.0924 69.7784 42.9217Z" fill="white"/>
<path d="M71.3233 61.998C71.4083 61.998 71.4933 61.998 71.5808 61.998C71.732 63.4825 71.8071 64.6616 70.8727 65.9042C70.3158 66.5637 69.8087 66.9271 69.006 67.2691C69.2658 66.836 69.5256 66.403 69.7855 65.9699C70.0717 65.4774 70.0717 65.4774 70.2934 64.759C70.4633 64.759 70.6333 64.759 70.8084 64.759C70.8084 64.5934 70.8084 64.4277 70.8084 64.257C70.9783 64.257 71.1483 64.257 71.3233 64.257C71.3233 63.5115 71.3233 62.7661 71.3233 61.998Z" fill="white"/>
<path d="M72.6108 51.4558C72.7808 51.5386 72.9507 51.6215 73.1258 51.7068C73.2526 53.5604 73.2526 53.5604 72.6108 54.3424C72.4409 54.4666 72.2709 54.5909 72.0959 54.7189C72.0959 54.4704 72.0959 54.2219 72.0959 53.9659C71.5011 54.1315 70.9063 54.2972 70.2935 54.4679C71.0165 53.7239 71.628 53.1011 72.6108 52.7108C72.6108 52.2967 72.6108 51.8825 72.6108 51.4558Z" fill="white"/>
<path d="M63.3414 47.9418C63.7598 47.935 64.1782 47.9301 64.5966 47.9261C64.8296 47.9232 65.0626 47.9203 65.3027 47.9173C65.9162 47.9418 65.9162 47.9418 66.4312 48.1928C66.3462 48.3584 66.2613 48.5241 66.1737 48.6948C65.9586 48.6773 65.9586 48.6773 65.7392 48.6595C64.3352 48.5948 63.432 48.7894 62.2159 49.4792C61.7965 49.6988 61.7965 49.6988 61.2815 49.6988C61.2815 49.4503 61.2815 49.2018 61.2815 48.9458C61.7063 48.9458 62.1312 48.9458 62.5689 48.9458C62.5689 48.7801 62.5689 48.6145 62.5689 48.4438C62.8238 48.4438 63.0787 48.4438 63.3414 48.4438C63.3414 48.2781 63.3414 48.1125 63.3414 47.9418Z" fill="white"/>
<path d="M63.3413 69.2771C64.8708 69.4428 66.4002 69.6084 67.976 69.7791C67.8911 69.9448 67.8061 70.1104 67.7186 70.2811C66.359 70.2811 64.9995 70.2811 63.5988 70.2811C63.5138 69.9498 63.4289 69.6185 63.3413 69.2771Z" fill="white"/>
<path d="M68.491 38.1526C70.7971 38.1965 72.5953 38.6865 74.6706 39.6586C73.7821 39.9473 73.563 39.8607 72.7073 39.5645C72.5022 39.4953 72.297 39.426 72.0857 39.3547C71.5808 39.1566 71.5808 39.1566 71.3233 38.9056C70.8472 38.847 70.3694 38.802 69.891 38.7644C69.6305 38.7434 69.3699 38.7224 69.1015 38.7007C68.7993 38.6779 68.7993 38.6779 68.491 38.6546C68.491 38.489 68.491 38.3233 68.491 38.1526Z" fill="white"/>
<path d="M69.7784 55.2209C70.0334 55.2209 70.2883 55.2209 70.5509 55.2209C70.748 56.1601 70.8202 56.812 70.5509 57.7309C70.6359 57.8966 70.7208 58.0623 70.8084 58.2329C70.4685 58.3158 70.1286 58.3986 69.7784 58.4839C69.7838 58.2562 69.7891 58.0284 69.7945 57.7937C69.8113 57.0151 69.8113 57.0151 69.6336 56.4288C69.521 55.9739 69.521 55.9739 69.7784 55.2209Z" fill="white"/>
<path d="M70.0359 83.0823C70.3758 83.0823 70.7156 83.0823 71.0658 83.0823C71.0658 83.4137 71.0658 83.745 71.0658 84.0864C71.4057 84.1692 71.7456 84.252 72.0958 84.3374C72.0958 84.503 72.0958 84.6687 72.0958 84.8394C72.4356 84.8394 72.7755 84.8394 73.1257 84.8394C73.1257 85.005 73.1257 85.1707 73.1257 85.3414C73.4656 85.507 73.8055 85.6727 74.1556 85.8434C73.3832 85.8434 73.3832 85.8434 72.6107 85.5924C72.6107 85.4267 72.6107 85.2611 72.6107 85.0904C72.4727 85.0748 72.3346 85.0593 72.1923 85.0433C71.2795 84.7389 70.7416 84.2254 70.0359 83.5843C70.0359 83.4187 70.0359 83.253 70.0359 83.0823Z" fill="white"/>
<path d="M61.7964 68.2731C63.0808 69.8233 63.5238 71.364 63.8563 73.2932C63.6863 73.2932 63.5164 73.2932 63.3413 73.2932C63.0817 72.6455 62.8246 71.997 62.5688 71.3479C62.4952 71.1648 62.4215 70.9816 62.3456 70.7929C62.2759 70.615 62.2061 70.437 62.1343 70.2537C62.0696 70.0907 62.0049 69.9277 61.9382 69.7598C61.7964 69.2771 61.7964 69.2771 61.7964 68.2731Z" fill="white"/>
<path d="M74.9282 60.492C75.0981 60.6576 75.2681 60.8233 75.4432 60.994C74.2969 62.074 73.4101 62.6893 71.8384 63.002C72.0959 62.249 72.0959 62.249 72.8683 61.747C73.5603 61.7156 73.5603 61.7156 74.1557 61.747C74.1557 61.4985 74.1557 61.25 74.1557 60.994C74.4107 60.994 74.6656 60.994 74.9282 60.994C74.9282 60.8283 74.9282 60.6627 74.9282 60.492Z" fill="white"/>
<path d="M77.5029 40.9137C79.1926 41.9582 80.6858 43.0953 81.8802 44.6787C81.7952 44.8444 81.7102 45.0101 81.6227 45.1807C81.3917 44.8779 81.3917 44.8779 81.156 44.5689C80.2732 43.5207 79.171 42.7341 78.0772 41.9059C77.8877 41.7441 77.6982 41.5824 77.5029 41.4157C77.5029 41.25 77.5029 41.0843 77.5029 40.9137Z" fill="white"/>
<path d="M80.8503 74.2972C82.6547 74.918 83.8204 75.8589 84.9701 77.3092C84.8851 77.4749 84.8002 77.6406 84.7126 77.8112C84.4736 77.4851 84.4736 77.4851 84.2298 77.1524C83.4394 76.2099 82.4541 75.6995 81.3683 75.1247C81.1974 75.0173 81.0265 74.9099 80.8503 74.7992C80.8503 74.6335 80.8503 74.4679 80.8503 74.2972Z" fill="white"/>
<path d="M84.1976 82.8313C84.3676 82.9142 84.5375 82.997 84.7126 83.0823C84.1004 84.2096 83.3323 84.9705 82.3952 85.8434C82.2253 85.7605 82.0553 85.6777 81.8802 85.5924C82.0502 85.261 82.2201 84.9297 82.3952 84.5884C82.5652 84.6712 82.7351 84.754 82.9102 84.8394C82.9102 84.5909 82.9102 84.3424 82.9102 84.0863C83.1651 84.0863 83.42 84.0863 83.6826 84.0863C83.8526 83.6722 84.0225 83.258 84.1976 82.8313Z" fill="white"/>
<path d="M77.2455 54.9699C77.5004 55.0527 77.7553 55.1355 78.0179 55.2209C77.9589 55.7026 77.8932 56.1836 77.8248 56.6642C77.789 56.9321 77.7531 57.2 77.7162 57.476C77.4747 58.3333 77.1633 58.6735 76.473 59.2369C76.6094 58.5058 76.7822 57.8159 77.0041 57.1034C77.2151 56.3355 77.2943 55.7557 77.2455 54.9699Z" fill="white"/>
<path d="M71.5809 65.5121C71.7508 65.5121 71.9208 65.5121 72.0958 65.5121C71.8185 66.5935 71.5707 67.4287 70.8084 68.2731C71.0633 68.3559 71.3182 68.4388 71.5809 68.5241C70.9011 68.5241 70.2214 68.5241 69.521 68.5241C69.9371 68.0118 70.367 67.5099 70.8084 67.0181C70.9784 67.0181 71.1483 67.0181 71.3234 67.0181C71.4084 66.5211 71.4933 66.0241 71.5809 65.5121Z" fill="white"/>
<path d="M81.1078 59.739C81.3627 59.739 81.6176 59.739 81.8803 59.739C81.4889 61.0956 80.5223 61.9942 79.5629 63.002C79.4779 62.7535 79.393 62.505 79.3054 62.249C79.4754 62.249 79.6453 62.249 79.8204 62.249C79.8204 62.0833 79.8204 61.9177 79.8204 61.747C79.9903 61.747 80.1603 61.747 80.3354 61.747C80.3354 61.4985 80.3354 61.25 80.3354 60.994C80.5053 60.994 80.6752 60.994 80.8503 60.994C80.9353 60.5798 81.0203 60.1657 81.1078 59.739Z" fill="white"/>
<path d="M65.9161 47.9418C66.4148 47.9214 66.9138 47.9068 67.4128 47.8947C67.6906 47.886 67.9684 47.8772 68.2546 47.8682C69.006 47.9418 69.006 47.9418 69.7784 48.6948C68.7588 48.6119 67.7391 48.5291 66.6886 48.4438C66.6036 48.6094 66.5187 48.7751 66.4311 48.9458C66.4311 48.6973 66.4311 48.4488 66.4311 48.1928C66.2612 48.1099 66.0912 48.0271 65.9161 47.9418Z" fill="white"/>
<path d="M58.1917 66.7671C59.7141 66.7025 61.0856 66.9432 62.5689 67.2691C62.314 67.3933 62.314 67.3933 62.0539 67.5201C61.969 67.7686 61.884 68.0171 61.7964 68.2731C61.7964 68.0246 61.7964 67.7761 61.7964 67.5201C61.4884 67.5253 61.1804 67.5304 60.8631 67.5358C59.9477 67.5374 59.0914 67.4445 58.1917 67.2691C58.1917 67.1034 58.1917 66.9378 58.1917 66.7671Z" fill="white"/>
<path d="M76.2156 61.245C76.3006 61.4106 76.3855 61.5763 76.4731 61.747C75.9581 62.249 75.9581 62.249 75.1857 62.751C74.8458 62.751 74.5059 62.751 74.1557 62.751C74.0707 62.9995 73.9858 63.248 73.8982 63.504C73.3672 63.6766 73.3672 63.6766 72.8683 63.755C73.7239 62.5502 73.7239 62.5502 74.6063 62.296C74.7975 62.2805 74.9887 62.265 75.1857 62.249C75.1857 62.0833 75.1857 61.9177 75.1857 61.747C75.5255 61.5813 75.8654 61.4156 76.2156 61.245Z" fill="white"/>
<path d="M81.8802 86.0944C80.5877 86.8516 79.6367 86.9446 78.1789 86.8945C77.9894 86.8911 77.7999 86.8877 77.6046 86.8842C77.1415 86.8754 76.6785 86.8619 76.2156 86.8474C76.2156 86.7646 76.2156 86.6817 76.2156 86.5964C76.4423 86.5841 76.669 86.5718 76.9025 86.5591C77.2016 86.5404 77.5006 86.5216 77.8088 86.5023C78.2524 86.4761 78.2524 86.4761 78.7049 86.4493C81.8186 86.0721 81.8186 86.0721 81.8802 86.0944Z" fill="white"/>
<path d="M62.3114 69.0261C62.6513 69.1089 62.9912 69.1918 63.3413 69.2771C63.4719 69.7944 63.6002 70.3122 63.7276 70.8302C63.8351 71.2626 63.8351 71.2626 63.9448 71.7038C64.0919 72.4318 64.148 73.0575 64.1138 73.7952C63.7112 73.0627 63.4449 72.3505 63.2126 71.5518C62.9547 70.6879 62.679 69.853 62.3114 69.0261Z" fill="white"/>
<path d="M72.7396 67.7397C73.3833 67.7711 73.3833 67.7711 73.6408 68.0221C73.6513 68.524 73.6517 69.0262 73.6408 69.5281C73.046 69.3624 72.4512 69.1968 71.8384 69.0261C72.0933 68.9432 72.3482 68.8604 72.6108 68.7751C72.3963 68.2312 72.3963 68.2312 71.8384 68.0221C72.0959 67.7711 72.0959 67.7711 72.7396 67.7397Z" fill="white"/>
<path d="M74.9281 40.1606C77.6639 41.1803 77.6639 41.1803 78.5329 42.1687C78.108 42.1687 77.6832 42.1687 77.2455 42.1687C77.1605 41.9202 77.0755 41.6717 76.988 41.4157C76.6906 41.3328 76.3932 41.25 76.0868 41.1647C75.7894 41.0818 75.492 40.999 75.1856 40.9137C75.1006 40.6652 75.0156 40.4167 74.9281 40.1606Z" fill="white"/>
<path d="M70.0359 66.2651C68.7366 67.5008 68.7366 67.5008 67.4932 67.5985C67.2277 67.5726 66.9622 67.5468 66.6886 67.5201C67.3703 67.1535 67.6914 67.0181 68.491 67.0181C68.491 66.7696 68.491 66.5211 68.491 66.2651C69.1324 65.9525 69.3692 66.0701 70.0359 66.2651Z" fill="white"/>
<path d="M58.1916 53.2129C58.3138 53.3785 58.4359 53.5442 58.5618 53.7149C58.7609 53.9634 58.7609 53.9634 58.9641 54.2169C59.0491 54.2169 59.134 54.2169 59.2216 54.2169C59.3065 54.8795 59.3915 55.5422 59.4791 56.2249C58.7066 55.9739 58.7066 55.9739 58.1916 55.2209C58.1253 54.5446 58.1687 53.8942 58.1916 53.2129Z" fill="white"/>
<path d="M76.473 46.6867C76.558 46.6867 76.643 46.6867 76.7305 46.6867C76.7949 48.0986 76.7949 48.0986 76.2156 48.9458C75.2555 49.3417 74.1474 49.2134 73.1257 49.1968C73.1257 49.1139 73.1257 49.0311 73.1257 48.9458C73.2841 48.9183 73.4424 48.8908 73.6055 48.8624C73.8136 48.8226 74.0217 48.7828 74.2361 48.7418C74.4423 48.704 74.6484 48.6661 74.8607 48.6271C75.5131 48.4217 75.7908 48.2084 76.2156 47.6908C76.3995 47.1628 76.3995 47.1628 76.473 46.6867Z" fill="white"/>
<path d="M64.8862 43.1727C64.8012 43.3384 64.7163 43.504 64.6287 43.6747C64.0289 43.7647 63.4279 43.8475 62.8263 43.9257C62.5873 44.0189 62.3484 44.1121 62.1021 44.2081C61.9163 44.2806 61.7304 44.353 61.5389 44.4277C61.369 44.3449 61.199 44.2621 61.0239 44.1767C62.37 43.4133 63.3224 43.0457 64.8862 43.1727Z" fill="white"/>
<path d="M69.006 59.2369C69.8749 59.3743 70.3146 59.5017 71.0659 59.99C71.2429 60.8998 71.2429 60.8998 71.3233 61.747C70.8084 61.496 70.8084 61.496 70.4543 60.9155C70.0384 60.245 69.5917 59.7685 69.006 59.2369Z" fill="white"/>
<path d="M78.018 57.9819C78.103 57.9819 78.188 57.9819 78.2755 57.9819C78.4213 59.19 77.9927 59.8004 77.2456 60.743C76.9907 60.8672 76.9907 60.8672 76.7306 60.994C76.8965 60.2379 77.1555 59.6093 77.5191 58.9232C77.6124 58.7459 77.7057 58.5686 77.8018 58.3859C77.8731 58.2526 77.9445 58.1193 78.018 57.9819Z" fill="white"/>
<path d="M69.5209 54.4679C69.6908 54.5507 69.8608 54.6335 70.0359 54.7189C69.748 55.055 69.4579 55.3894 69.1669 55.7229C69.0055 55.9093 68.8442 56.0956 68.678 56.2876C68.458 56.5051 68.458 56.5051 68.2335 56.7269C68.0635 56.7269 67.8936 56.7269 67.7185 56.7269C68.1189 55.7689 68.7577 55.1727 69.5209 54.4679Z" fill="white"/>
<path d="M71.8383 69.2771C71.2182 69.8816 70.8984 69.95 70.0359 70.0301C69.4405 69.7948 69.4405 69.7948 69.006 69.5281C70.9187 68.9185 70.9187 68.9185 71.8383 69.2771Z" fill="white"/>
<path d="M52.2694 64.508C53.0258 64.6963 53.0258 64.6963 53.8144 65.01C54.0397 65.5434 54.0397 65.5434 54.0718 66.0141C53.9178 65.9312 53.7638 65.8484 53.6052 65.763C53.028 65.4599 53.028 65.4599 52.2694 65.512C52.1845 65.2635 52.0995 65.0151 52.012 64.759C52.0969 64.6762 52.1819 64.5934 52.2694 64.508Z" fill="white"/>
<path d="M79.8203 62.5C79.8203 63.253 79.8203 63.253 79.2088 63.8962C78.9858 64.0981 78.7627 64.3 78.5329 64.508C78.363 64.6737 78.193 64.8394 78.0179 65.01C77.763 64.9272 77.5081 64.8444 77.2455 64.759C78.0952 64.0136 78.9449 63.2681 79.8203 62.5Z" fill="white"/>
<path d="M69.521 49.1968C71.2467 49.6828 71.2467 49.6828 71.8384 50.4518C71.8384 50.6175 71.8384 50.7831 71.8384 50.9538C71.3395 50.8597 71.3395 50.8597 70.8084 50.7028C70.7235 50.5371 70.6385 50.3715 70.5509 50.2008C70.0296 50.0371 70.0296 50.0371 69.521 49.9498C69.521 49.7013 69.521 49.4528 69.521 49.1968Z" fill="white"/>
<path d="M59.9941 44.4277C60.249 44.4277 60.5039 44.4277 60.7665 44.4277C60.4336 45.1517 60.0817 45.6506 59.4791 46.1847C59.3091 46.0191 59.1392 45.8534 58.9641 45.6827C59.4308 45.0552 59.4308 45.0552 59.9941 44.4277Z" fill="white"/>
<path d="M66.4312 77.8112C67.2036 78.0623 67.2036 78.0623 67.5134 78.5084C67.6023 78.6873 67.6913 78.8662 67.7829 79.0506C67.9204 79.318 67.9204 79.318 68.0605 79.5908C68.1176 79.749 68.1747 79.9073 68.2335 80.0703C68.1486 80.2359 68.0636 80.4016 67.9761 80.5723C67.8061 80.1581 67.6362 79.744 67.4611 79.3173C67.2912 79.3173 67.1212 79.3173 66.9461 79.3173C66.7762 78.8203 66.6062 78.3233 66.4312 77.8112Z" fill="white"/>
<path d="M78.018 63.253C78.3579 63.3359 78.6978 63.4187 79.048 63.504C78.0283 64.3738 78.0283 64.3738 76.9881 65.2611C76.9031 65.0126 76.8181 64.7641 76.7306 64.508C76.9005 64.3424 77.0705 64.1767 77.2456 64.006C77.5005 64.006 77.7554 64.006 78.018 64.006C78.018 63.7575 78.018 63.509 78.018 63.253Z" fill="white"/>
<path d="M69.006 48.6948C69.6008 48.6948 70.1956 48.6948 70.8084 48.6948C70.9783 49.1089 71.1483 49.5231 71.3233 49.9498C69.5853 49.2595 69.5853 49.2595 69.006 48.6948Z" fill="white"/>
<path d="M70.8084 46.9377C71.0633 47.0206 71.3182 47.1034 71.5809 47.1887C71.4109 47.7686 71.241 48.3484 71.0659 48.9458C70.811 48.8629 70.5561 48.7801 70.2935 48.6948C70.5188 47.5025 70.5188 47.5025 70.8084 46.9377Z" fill="white"/>
<path d="M64.3713 73.5442C65.1822 74.4035 65.2884 75.1613 65.4012 76.3052C64.7202 75.5207 64.4114 74.7771 64.1138 73.7952C64.1987 73.7123 64.2837 73.6295 64.3713 73.5442Z" fill="white"/>
<path d="M72.8683 68.2731C72.7833 68.4387 72.6984 68.6044 72.6108 68.7751C72.0788 68.879 72.0788 68.879 71.436 68.932C71.2233 68.9507 71.0105 68.9695 70.7913 68.9888C70.5449 69.0073 70.5449 69.0073 70.2935 69.0261C70.5509 68.5241 70.5509 68.5241 71.436 68.226C72.3533 68.0221 72.3533 68.0221 72.8683 68.2731Z" fill="white"/>
<path d="M56.3892 84.5884C55.697 85.1537 55.1928 85.5628 54.3293 85.8434C54.3293 85.5949 54.3293 85.3464 54.3293 85.0904C55.4316 84.2772 55.4316 84.2772 56.3892 84.5884Z" fill="white"/>
<path d="M71.0659 60.743C71.3208 60.8258 71.5757 60.9086 71.8384 60.994C72.1441 61.7627 72.1441 61.7627 72.3533 62.5C72.0984 62.6657 71.8435 62.8313 71.5809 63.002C71.4109 62.2565 71.241 61.5111 71.0659 60.743Z" fill="white"/>
<path d="M71.8384 51.4558C72.0083 51.4558 72.1783 51.4558 72.3533 51.4558C72.3533 51.87 72.3533 52.2841 72.3533 52.7108C71.9285 52.8765 71.5036 53.0422 71.0659 53.2128C71.0659 52.9643 71.0659 52.7159 71.0659 52.4598C71.2359 52.377 71.4058 52.2942 71.5809 52.2088C71.6659 51.9603 71.7508 51.7118 71.8384 51.4558Z" fill="white"/>
<path d="M75.7006 65.01C76.0404 65.1757 76.3803 65.3414 76.7305 65.512C76.2207 65.8434 75.7109 66.1747 75.1856 66.5161C75.1006 66.2676 75.0156 66.0191 74.9281 65.7631C75.183 65.7631 75.4379 65.7631 75.7006 65.7631C75.7006 65.5146 75.7006 65.2661 75.7006 65.01Z" fill="white"/>
<path d="M82.3952 57.7309C82.6501 57.7309 82.905 57.7309 83.1677 57.7309C82.8623 58.5781 82.5817 59.1484 81.8802 59.739C81.8802 59.4076 81.8802 59.0763 81.8802 58.7349C82.0502 58.7349 82.2201 58.7349 82.3952 58.7349C82.3952 58.4036 82.3952 58.0723 82.3952 57.7309Z" fill="white"/>
<path d="M70.0359 54.4679C70.0359 55.2721 69.8445 55.7465 69.5209 56.4759C69.181 56.3931 68.8411 56.3102 68.491 56.2249C69.0008 55.6451 69.5106 55.0653 70.0359 54.4679Z" fill="white"/>
<path d="M73.6407 68.2731C74.3164 69.0415 74.4132 69.2098 74.4132 70.2811C74.1583 70.1983 73.9034 70.1155 73.6407 70.0301C73.6407 69.4503 73.6407 68.8705 73.6407 68.2731Z" fill="white"/>
<path d="M61.2815 44.1767C61.0425 44.2906 60.8035 44.4045 60.5573 44.5219C59.7265 44.9152 59.7265 44.9152 58.9641 45.4317C59.0124 44.9611 59.0124 44.9611 59.2216 44.4277C60.0698 43.9708 60.3448 43.8724 61.2815 44.1767Z" fill="white"/>
<path d="M52.2694 27.3594C52.1845 27.5251 52.0995 27.6908 52.0119 27.8614C51.2472 27.7786 50.4825 27.6958 49.6946 27.6104C50.686 26.9661 51.1328 27.1504 52.2694 27.3594Z" fill="white"/>
</svg>
