<svg width="129" height="125" viewBox="0 0 129 125" fill="none" xmlns="http://www.w3.org/2000/svg">
<path d="M55.1521 27.4428C56.8291 28.415 57.8035 29.5744 58.3727 31.3863C58.7694 32.9155 58.7951 34.3714 58.7549 35.9406C58.7496 36.335 58.7496 36.335 58.7443 36.7373C58.7353 37.3765 58.7227 38.0155 58.7066 38.6546C58.856 38.6032 59.0053 38.5517 59.1592 38.4987C64.1627 36.8165 69.9939 37.1881 74.7708 39.3671C76.4068 40.15 77.9112 41.0172 79.3054 42.1687C79.5603 42.3499 79.8152 42.5311 80.0778 42.7178C82.8278 45.0113 84.4704 48.6361 84.7689 52.1118C84.8993 55.8551 83.3208 59.4468 80.8503 62.249C80.6591 62.4975 80.4679 62.746 80.271 63.002C78.6026 64.927 76.2824 66.3725 74.1557 67.7711C75.5646 70.9934 77.7085 72.7018 80.9017 74.1545C83.0118 75.1273 84.2704 76.1651 85.4689 78.125C86.0009 79.9552 86.0319 81.6774 85.2115 83.4275C84.103 85.3162 82.4673 86.4756 80.3353 87.0984C77.0503 87.6913 74.413 87.0166 71.5808 85.3414C69.7079 84.0457 68.6214 82.4721 67.4611 80.5723C67.1735 80.1391 66.8812 79.7091 66.5889 79.2789C64.8743 76.7407 63.5789 74.1595 62.5923 71.2755C62.4747 70.9333 62.3532 70.5924 62.2275 70.2529C62.0674 69.816 61.9245 69.3731 61.7833 68.93C61.1747 68.1334 60.9365 68.1438 59.9626 67.981C59.7282 67.9404 59.4937 67.8997 59.2522 67.8578C59.0721 67.8292 58.8921 67.8006 58.7066 67.7711C58.7051 67.9396 58.7036 68.1081 58.702 68.2817C58.6855 70.0409 58.6638 71.7999 58.639 73.559C58.6305 74.2149 58.6232 74.8707 58.6174 75.5266C58.6087 76.4713 58.5952 77.4157 58.5809 78.3603C58.5784 78.7977 58.5784 78.7977 58.5759 79.244C58.5317 81.6368 58.1001 83.3442 56.3983 85.1335C54.8429 86.4955 53.1263 87.1837 51.0374 87.1533C48.5554 86.9143 46.7473 85.6426 45.1826 83.8216C43.9462 82.2337 43.9912 80.2455 43.9955 78.3242C43.9949 78.1306 43.9943 77.937 43.9937 77.7375C43.9921 77.0926 43.9923 76.4477 43.9925 75.8029C43.9918 75.3389 43.9909 74.8749 43.9899 74.4109C43.9876 73.1533 43.987 71.8957 43.9869 70.6381C43.9867 69.8517 43.9861 69.0654 43.9855 68.2791C43.9831 65.5342 43.982 62.7893 43.9822 60.0444C43.9824 57.4884 43.9797 54.9324 43.9756 52.3763C43.9722 50.1794 43.9709 47.9824 43.971 45.7855C43.9711 44.4744 43.9704 43.1634 43.9676 41.8523C43.9651 40.6191 43.9651 39.3858 43.967 38.1526C43.9673 37.701 43.9666 37.2494 43.9651 36.7979C43.9461 30.9137 43.9461 30.9137 46.0898 28.6145C48.6 26.1675 52.0716 26.0505 55.1521 27.4428ZM60.8047 50.6656C59.6739 52.1804 59.5116 53.6526 59.7365 55.4719C60.5745 56.9422 61.9803 57.6967 63.5988 58.2329C64.4257 58.2776 64.4257 58.2776 65.1437 58.2329C65.3968 57.5064 65.6488 56.7795 65.9001 56.0523C65.9716 55.8474 66.0431 55.6424 66.1168 55.4312C66.787 53.4872 67.4238 51.5654 66.576 49.589C66.2331 48.9841 66.2331 48.9841 65.9162 48.6948C64.0219 48.5416 62.1466 49.3575 60.8047 50.6656Z" fill="#60ADA9"/>
<path d="M68.491 38.4038C68.7725 38.4148 69.0539 38.4258 69.3439 38.4372C70.684 38.5171 71.4762 38.6889 72.6108 39.4079C73.0589 39.5319 73.51 39.6457 73.9626 39.753C77.0634 40.545 79.6645 42.4785 81.6228 44.9299C81.8299 45.1008 82.037 45.2716 82.2504 45.4476C84.1665 47.5889 84.8405 50.7261 84.777 53.5102C84.4807 56.7637 83.0092 59.8005 80.8503 62.2492C80.6591 62.4977 80.4679 62.7462 80.271 63.0022C78.6026 64.9272 76.2824 66.3727 74.1557 67.7713C75.5646 70.9936 77.7086 72.702 80.9017 74.1547C83.0118 75.1276 84.2704 76.1654 85.4689 78.1252C86.0009 79.9554 86.0319 81.6776 85.2115 83.4277C84.103 85.3164 82.4673 86.4758 80.3353 87.0986C77.0504 87.6915 74.413 87.0168 71.5808 85.3416C69.7203 84.0545 68.5992 82.475 67.4611 80.5725C67.2911 80.324 67.1212 80.0755 66.9461 79.8195C66.8681 79.5846 66.7901 79.3497 66.7097 79.1077C66.4211 78.2848 66.0481 77.639 65.5782 76.9016C64.2894 74.792 63.3947 72.6679 62.8264 70.2813C62.7308 70.1002 62.6352 69.919 62.5367 69.7323C62.2453 69.1439 62.2962 68.6683 62.3114 68.0223C62.625 68.0071 62.9387 67.9919 63.2619 67.9762C63.6799 67.955 64.098 67.9338 64.5161 67.9125C64.7221 67.9026 64.928 67.8928 65.1402 67.8826C67.4303 67.7641 68.9243 67.6819 70.5509 66.0143C71.454 65.0204 71.4828 63.9812 71.4491 62.6983C71.2409 61.539 70.602 60.817 69.7784 59.9902C69.6244 59.8125 69.4704 59.6349 69.3118 59.4519C68.5941 58.8585 68.0652 58.7902 67.1392 58.6724C66.8617 58.6349 66.5843 58.5973 66.2984 58.5587C66.0873 58.5341 65.8762 58.5095 65.6587 58.4842C65.8005 56.9635 66.1553 55.6495 66.6886 54.2171C66.926 53.5229 66.9765 53.117 66.9713 52.4022C66.9704 52.2008 66.9696 51.9994 66.9687 51.7919C66.9666 51.5827 66.9644 51.3735 66.9622 51.158C66.961 50.9459 66.9599 50.7338 66.9587 50.5153C66.9557 49.9922 66.951 49.4691 66.9461 48.946C65.3764 48.4359 64.0245 48.5372 62.5206 49.2127C61.0942 49.9869 60.0123 50.8144 59.5293 52.3777C59.3997 52.9906 59.2959 53.5958 59.2216 54.2171C58.9667 54.2171 58.7117 54.2171 58.4491 54.2171C58.2014 53.4058 58.1604 52.6767 58.1624 51.8318C58.1624 51.5555 58.1624 51.2792 58.1624 50.9945C58.1638 50.6977 58.1651 50.4009 58.1665 50.0951C58.1668 49.7901 58.1672 49.4851 58.1676 49.1709C58.169 48.1965 58.1723 47.2221 58.1755 46.2477C58.1768 45.5872 58.178 44.9267 58.179 44.2662C58.1819 42.6467 58.1862 41.0273 58.1916 39.4079C59.1285 39.2395 60.0661 39.0748 61.0038 38.9107C61.2663 38.8635 61.5288 38.8163 61.7993 38.7676C64.0597 38.3753 66.2041 38.2858 68.491 38.4038Z" fill="#DF5B44"/>
<path d="M68.491 38.4038C68.7725 38.4148 69.0539 38.4258 69.3439 38.4372C70.684 38.5171 71.4762 38.6889 72.6108 39.4079C73.0589 39.5319 73.51 39.6457 73.9626 39.753C77.0634 40.545 79.6645 42.4785 81.6228 44.9299C81.8299 45.1008 82.037 45.2716 82.2504 45.4476C84.1665 47.5889 84.8405 50.7261 84.777 53.5102C84.4807 56.7637 83.0092 59.8005 80.8503 62.2492C80.6591 62.4977 80.4679 62.7462 80.271 63.0022C78.6026 64.9272 76.2824 66.3727 74.1557 67.7713C75.5646 70.9936 77.7086 72.702 80.9017 74.1547C83.0118 75.1276 84.2704 76.1654 85.4689 78.1252C86.0009 79.9554 86.0319 81.6776 85.2115 83.4277C84.103 85.3164 82.4673 86.4758 80.3353 87.0986C77.0504 87.6915 74.413 87.0168 71.5808 85.3416C69.3892 83.8255 67.883 81.7663 66.9461 79.3175C67.1161 79.3175 67.286 79.3175 67.4611 79.3175C67.9538 79.98 68.3902 80.6472 68.7988 81.3618C69.4115 82.4812 69.4115 82.4812 70.5026 83.0826C70.6885 83.0826 70.8744 83.0826 71.0659 83.0826C71.0659 83.4139 71.0659 83.7452 71.0659 84.0866C71.4058 84.1694 71.7456 84.2522 72.0958 84.3376C72.0958 84.5032 72.0958 84.6689 72.0958 84.8396C72.4357 84.8396 72.7756 84.8396 73.1258 84.8396C73.1258 85.0052 73.1258 85.1709 73.1258 85.3416C73.2691 85.351 73.4125 85.3604 73.5603 85.37C74.608 85.458 75.5162 85.585 76.4892 85.9848C77.7491 86.4839 78.9109 86.5626 80.2227 86.126C80.4298 86.0328 80.6369 85.9396 80.8503 85.8436C81.2884 85.7504 81.2884 85.7504 81.7354 85.6553C83.1489 85.1719 83.8395 84.3359 84.6804 83.161C85.1506 81.8112 85.2751 80.3656 84.7558 79.0086C84.3937 78.3675 84.1084 77.8935 83.4252 77.5605C83.4252 77.2291 83.4252 76.8978 83.4252 76.5564C82.7456 76.2016 82.1194 75.961 81.3653 75.8034C81.3653 75.5549 81.3653 75.3064 81.3653 75.0504C80.9523 75.0081 80.5392 74.9664 80.1261 74.9249C79.8961 74.9016 79.6661 74.8783 79.4291 74.8543C78.769 74.7884 78.769 74.7884 78.018 74.7994C78.018 74.5509 78.018 74.3024 78.018 74.0464C77.6075 73.6104 77.6075 73.6104 77.0685 73.1993C76.8816 73.0459 76.6948 72.8925 76.5022 72.7345C76.3227 72.5876 76.1431 72.4407 75.9581 72.2894C75.4921 71.8858 75.0864 71.4903 74.6707 71.0344C74.6707 70.7859 74.6707 70.5374 74.6707 70.2813C74.3308 70.1985 73.9909 70.1157 73.6407 70.0303C73.5133 69.0364 73.5133 69.0364 73.3832 68.0223C72.761 67.9804 72.761 67.9804 72.0958 68.0223C71.9259 68.188 71.7559 68.3536 71.5808 68.5243C70.8886 68.5921 70.2184 68.5463 69.521 68.5243C69.937 68.012 70.367 67.5101 70.8084 67.0183C70.9783 67.0183 71.1483 67.0183 71.3234 67.0183C71.3712 66.6999 71.3712 66.6999 71.4199 66.3751C71.473 66.0904 71.5261 65.8056 71.5808 65.5123C71.6339 65.2017 71.6871 64.891 71.7418 64.571C71.8586 64.3018 71.9754 64.0326 72.0958 63.7552C73.0131 63.4258 73.0131 63.4258 73.8982 63.2532C73.9832 63.0876 74.0681 62.9219 74.1557 62.7512C74.4425 62.6503 74.4425 62.6503 74.735 62.5473C75.6109 62.1786 76.0857 61.6724 76.7305 60.9942C76.8739 60.8648 77.0173 60.7354 77.165 60.602C77.8042 59.9196 78.02 59.2302 78.2755 58.343C78.5329 57.4801 78.5329 57.4801 79.0479 56.7271C79.1172 56.1802 79.1631 55.6302 79.1927 55.0799C79.2806 53.5125 79.2806 53.5125 79.5629 52.9621C79.3929 52.9621 79.223 52.9621 79.0479 52.9621C78.6754 52.2886 78.4425 51.688 78.2915 50.9384C78.096 50.0316 77.8762 49.1356 77.6317 48.2401C77.5707 48.0158 77.5096 47.7916 77.4467 47.5606C77.2586 46.9784 77.0278 46.4699 76.7305 45.934C76.7365 46.0883 76.7425 46.2426 76.7486 46.4017C76.7533 46.6045 76.7579 46.8074 76.7627 47.0164C76.7687 47.2173 76.7747 47.4183 76.7808 47.6253C76.7305 48.193 76.7305 48.193 76.2156 48.946C75.2768 49.3332 74.1269 49.313 73.1258 49.197C72.482 48.8519 72.482 48.8519 72.0958 48.444C72.0958 48.2783 72.0958 48.1127 72.0958 47.942C71.8409 47.8592 71.586 47.7763 71.3234 47.691C71.2384 48.1051 71.1534 48.5193 71.0659 48.946C69.2957 48.4754 69.2957 48.4754 69.006 48.193C68.5718 48.1749 68.137 48.1719 67.7025 48.1773C67.4658 48.1796 67.2292 48.1818 66.9853 48.1842C66.8025 48.1871 66.6196 48.19 66.4311 48.193C66.3462 48.3587 66.2612 48.5243 66.1737 48.695C65.8444 48.6691 65.5151 48.6432 65.1759 48.6166C63.4622 48.6218 62.1091 49.2946 60.7936 50.3363C59.664 51.467 59.4055 52.6806 59.2216 54.2171C58.9667 54.2171 58.7117 54.2171 58.4491 54.2171C58.2014 53.4058 58.1604 52.6767 58.1624 51.8318C58.1624 51.5555 58.1624 51.2792 58.1624 50.9945C58.1638 50.6977 58.1651 50.4009 58.1665 50.0951C58.1668 49.7901 58.1672 49.4851 58.1676 49.1709C58.169 48.1965 58.1723 47.2221 58.1755 46.2477C58.1768 45.5872 58.178 44.9267 58.179 44.2662C58.1819 42.6467 58.1862 41.0273 58.1916 39.4079C59.1285 39.2395 60.0661 39.0748 61.0038 38.9107C61.2663 38.8635 61.5288 38.8163 61.7993 38.7676C64.0597 38.3753 66.2041 38.2858 68.491 38.4038Z" fill="#DE5B44"/>
<path d="M44.5449 52.9619C44.7998 53.0862 44.7998 53.0862 45.0599 53.2129C45.1395 53.6555 45.1395 53.6555 45.2208 54.1071C45.4772 55.3567 45.994 56.4256 46.5726 57.5584C46.6601 57.7325 46.7476 57.9066 46.8378 58.086C47.3421 59.0508 47.8505 59.7413 48.6647 60.492C48.7496 60.7405 48.8346 60.989 48.9222 61.245C49.5152 61.87 50.0992 62.4215 50.805 62.9236C50.9484 63.0324 51.0918 63.1411 51.2395 63.2531C51.2395 63.4187 51.2395 63.5844 51.2395 63.7551C51.4244 63.8204 51.6093 63.8858 51.7998 63.9531C52.7961 64.3696 53.6397 64.9563 54.5335 65.5494C55.2525 65.954 55.9286 66.2506 56.6983 66.5452C56.9298 66.6342 57.1614 66.7232 57.3999 66.8149C57.5762 66.8819 57.7525 66.949 57.9341 67.0181C57.9761 68.934 58.008 70.8498 58.0275 72.7659C58.0369 73.656 58.0495 74.5458 58.0701 75.4357C58.0937 76.4619 58.1022 77.4878 58.1102 78.5143C58.1195 78.8295 58.1288 79.1447 58.1383 79.4694C58.1393 81.6779 57.6269 83.156 56.1317 84.8394C55.4761 85.3582 54.8403 85.7552 54.0719 86.0944C53.8664 86.1854 53.661 86.2763 53.4493 86.37C51.6294 86.9899 49.6968 86.6975 47.9677 85.9444C46.5832 85.119 45.5078 83.7429 44.8024 82.3294C44.5959 81.4921 44.513 80.716 44.514 79.8562C44.5136 79.6179 44.5132 79.3797 44.5129 79.1342C44.5138 78.8758 44.5147 78.6174 44.5157 78.3513C44.5156 78.0769 44.5156 77.8025 44.5156 77.5198C44.5157 76.6139 44.5178 75.7081 44.5198 74.8022C44.5203 74.1737 44.5206 73.5452 44.5209 72.9167C44.5218 71.4322 44.5238 69.9477 44.5264 68.4632C44.5295 66.6067 44.5309 64.7502 44.5323 62.8937C44.5351 59.5831 44.5394 56.2725 44.5449 52.9619Z" fill="#204147"/>
<path d="M65.9162 47.9417C68.6196 47.6376 70.3377 48.3652 72.6108 49.6987C72.7821 49.8489 72.9533 49.999 73.1298 50.1537C73.654 50.5286 73.654 50.5286 74.4172 50.3606C74.692 50.2819 74.9669 50.2033 75.25 50.1223C75.5275 50.0456 75.805 49.9689 76.0909 49.8899C76.302 49.8268 76.5131 49.7637 76.7305 49.6987C76.7305 49.4502 76.7305 49.2017 76.7305 48.9457C76.9005 48.9457 77.0704 48.9457 77.2455 48.9457C78.6912 51.9482 78.5644 55.1131 77.503 58.2329C76.5773 60.1187 74.928 61.9075 72.9739 62.8068C72.3533 63.0019 72.3533 63.0019 71.5808 63.0019C71.5171 62.8259 71.4534 62.6499 71.3877 62.4686C71.0194 61.6428 70.5803 60.9687 70.0359 60.2409C69.866 60.0131 69.6961 59.7853 69.521 59.5506C68.3527 58.6965 67.0856 58.6325 65.6587 58.4839C65.8005 56.9632 66.1554 55.6492 66.6886 54.2168C66.926 53.5226 66.9765 53.1167 66.9713 52.4019C66.9704 52.2005 66.9696 51.9991 66.9687 51.7916C66.9666 51.5824 66.9644 51.3732 66.9622 51.1577C66.9605 50.8395 66.9605 50.8395 66.9587 50.515C66.9557 49.9919 66.951 49.4688 66.9461 48.9457C66.7762 48.9457 66.6062 48.9457 66.4311 48.9457C66.4311 48.6972 66.4311 48.4487 66.4311 48.1927C66.2612 48.1099 66.0913 48.027 65.9162 47.9417Z" fill="#E58531"/>
<path d="M58.1916 39.4077C58.4465 39.532 58.4465 39.532 58.7066 39.6587C58.7066 41.5638 58.7066 43.469 58.7066 45.4318C59.1314 45.1005 59.5563 44.7692 59.994 44.4278C60.7504 44.064 60.7504 44.064 61.5389 43.7532C61.7991 43.6487 62.0594 43.5442 62.3275 43.4365C64.8471 42.5579 67.8909 42.591 70.401 43.4748C71.5403 43.8175 72.7171 43.925 73.8972 44.0689C74.6707 44.1768 74.6707 44.1768 75.4431 44.4278C75.5706 44.8005 75.5706 44.8005 75.7006 45.1808C75.9555 45.3465 76.2104 45.5121 76.4731 45.6828C76.6229 46.2544 76.6229 46.2544 76.6823 46.9221C76.7052 47.1418 76.7281 47.3615 76.7517 47.5879C76.7305 48.1929 76.7305 48.1929 76.2156 48.9459C75.2768 49.333 74.1269 49.3129 73.1258 49.1969C72.482 48.8517 72.482 48.8517 72.0958 48.4439C72.0958 48.2782 72.0958 48.1125 72.0958 47.9419C71.8409 47.859 71.586 47.7762 71.3234 47.6908C71.2384 48.105 71.1534 48.5192 71.0659 48.9459C69.2957 48.4752 69.2957 48.4752 69.006 48.1929C68.5718 48.1748 68.137 48.1718 67.7025 48.1772C67.4658 48.1794 67.2292 48.1817 66.9853 48.184C66.8025 48.1869 66.6196 48.1899 66.4311 48.1929C66.3462 48.3585 66.2612 48.5242 66.1737 48.6949C65.8444 48.669 65.5151 48.6431 65.1759 48.6164C63.4622 48.6217 62.1091 49.2944 60.7936 50.3362C59.664 51.4669 59.4055 52.6805 59.2216 54.217C58.9667 54.217 58.7117 54.217 58.4491 54.217C58.2014 53.4056 58.1604 52.6765 58.1624 51.8317C58.1624 51.5554 58.1624 51.279 58.1624 50.9944C58.1638 50.6976 58.1651 50.4008 58.1665 50.095C58.1668 49.79 58.1672 49.485 58.1676 49.1708C58.169 48.1964 58.1723 47.222 58.1755 46.2476C58.1768 45.5871 58.178 44.9265 58.179 44.266C58.1819 42.6466 58.1862 41.0271 58.1916 39.4077Z" fill="#EB8E34"/>
<path d="M68.491 38.4035C68.9162 38.4195 68.9162 38.4195 69.35 38.4358C70.6817 38.5176 71.4843 38.685 72.6108 39.4075C73.3756 39.6158 74.1476 39.7686 74.9281 39.9095C75.0556 40.5307 75.0556 40.5307 75.1856 41.1645C75.0157 41.2474 74.8457 41.3302 74.6707 41.4155C74.9256 41.4984 75.1805 41.5812 75.4431 41.6665C75.1666 42.3983 74.9853 42.8659 74.4132 43.4236C74.5831 43.5892 74.753 43.7549 74.9281 43.9256C73.8396 44.2084 72.9633 44.1358 71.8544 43.9726C71.5494 43.9296 71.2444 43.8866 70.9301 43.8422C70.0359 43.6746 70.0359 43.6746 69.2745 43.4098C68.3387 43.1264 67.4659 43.0864 66.4955 43.0941C66.2234 43.0957 66.2234 43.0957 65.9458 43.0973C63.0725 43.1576 60.8625 44.271 58.4491 45.6826C58.4491 43.6947 58.4491 41.7067 58.4491 39.6585C61.6667 38.4039 65.0671 38.2664 68.491 38.4035Z" fill="#DF5D44"/>
<path d="M66.6886 48.4438C69.0822 48.555 70.8311 49.3767 72.6108 50.9539C73.4154 52.1305 73.2416 53.3411 73.1258 54.7189C72.6828 56.1824 71.8563 57.1414 70.8084 58.233C70.6278 58.4401 70.4473 58.6472 70.2612 58.8605C70.1019 58.9848 69.9426 59.109 69.7785 59.237C69.3339 59.1517 69.3339 59.1517 68.7485 58.986C68.2128 58.8933 67.6763 58.8047 67.1392 58.7193C66.8618 58.675 66.5843 58.6307 66.2984 58.585C66.0873 58.5517 65.8762 58.5183 65.6587 58.484C65.8005 56.9633 66.1554 55.6494 66.6886 54.2169C67.005 53.2916 66.9836 52.4347 66.9783 51.4716C66.9793 51.2918 66.9803 51.1121 66.9813 50.9269C66.9797 50.0649 66.9666 49.2675 66.6886 48.4438Z" fill="#1B353D"/>
<path d="M76.473 45.6826C77.3652 46.4733 77.7654 47.2843 78.0019 48.428C78.2201 49.4455 78.4528 50.4587 78.6939 51.4714C78.7944 51.8951 78.7944 51.8951 78.897 52.3274C78.9468 52.5367 78.9966 52.746 79.0479 52.9617C79.2178 52.9617 79.3878 52.9617 79.5629 52.9617C79.5404 53.5688 79.5129 54.1749 79.4824 54.7815C79.4766 54.9527 79.4708 55.1238 79.4648 55.3002C79.4067 56.3608 79.2488 56.9361 78.5329 57.7308C78.3584 58.3157 78.1868 58.9014 78.018 59.4878C77.6639 60.131 77.6639 60.131 77.2455 60.7429C77.0809 61.0069 76.9162 61.2709 76.7466 61.5429C76.2332 62.2254 75.9983 62.5033 75.1856 62.7509C74.8457 62.7509 74.5059 62.7509 74.1557 62.7509C74.0282 63.1236 74.0282 63.1236 73.8982 63.5039C73.006 63.6281 73.006 63.6281 72.0958 63.7549C72.1117 63.9672 72.1277 64.1794 72.1441 64.3981C72.0855 65.4457 71.7863 66.0778 71.3233 67.018C71.1534 67.018 70.9835 67.018 70.8084 67.018C70.734 67.1784 70.6597 67.3389 70.5831 67.5043C70.2934 68.022 70.2934 68.022 69.7784 68.273C70.6581 68.3148 70.6581 68.3148 71.5808 68.273C71.7508 68.1073 71.9207 67.9417 72.0958 67.771C72.7556 67.7239 72.7556 67.7239 73.3832 67.771C73.6407 68.022 73.6407 68.022 73.6568 68.7907C73.6515 69.034 73.6462 69.2773 73.6407 69.528C73.3539 69.4762 73.0672 69.4245 72.7717 69.3711C72.3097 69.3245 72.3097 69.3245 71.8383 69.277C71.6684 69.4427 71.4984 69.6083 71.3233 69.779C70.2154 70.0967 69.1222 70.03 67.976 70.03C67.6758 70.0916 67.6758 70.0916 67.3695 70.1545C66.5869 70.2999 65.8594 70.3052 65.0632 70.2967C64.7881 70.2944 64.5129 70.2922 64.2294 70.2898C64.0213 70.2869 63.8132 70.284 63.5988 70.281C63.5138 69.9497 63.4289 69.6184 63.3413 69.277C63.0014 69.1942 62.6616 69.1113 62.3114 69.026C62.3114 68.6947 62.3114 68.3633 62.3114 68.022C62.625 68.0068 62.9387 67.9916 63.2619 67.9759C63.6799 67.9547 64.098 67.9334 64.5161 67.9122C64.722 67.9023 64.928 67.8924 65.1402 67.8823C68.1792 67.7268 68.1792 67.7268 70.5509 66.0139C71.1752 65.2228 71.3192 64.8737 71.3555 63.8647C71.5808 63.0019 71.5808 63.0019 72.0385 62.7283C72.4445 62.5707 72.8519 62.4167 73.2605 62.2656C75.4193 61.3594 76.6207 59.5281 77.503 57.4798C78.4011 54.7017 78.1835 51.689 77.2455 48.9457C77.0756 48.9457 76.9056 48.9457 76.7305 48.9457C76.7305 49.1942 76.7305 49.4427 76.7305 49.6987C75.5995 50.2058 74.6312 50.5543 73.3832 50.7027C73.3832 50.537 73.3832 50.3714 73.3832 50.2007C73.0965 50.092 73.0965 50.092 72.8039 49.9811C72.2072 49.7431 71.6377 49.4857 71.0659 49.1967C71.0659 48.6169 71.0659 48.037 71.0659 47.4396C71.4057 47.6053 71.7456 47.771 72.0958 47.9417C72.0958 48.1073 72.0958 48.273 72.0958 48.4437C72.991 48.9817 73.6954 48.9991 74.735 48.977C75.1512 48.9703 75.1512 48.9703 75.5759 48.9633C75.787 48.9575 75.9981 48.9517 76.2156 48.9457C76.2592 48.5902 76.3019 48.2346 76.3443 47.8789C76.3802 47.5819 76.3802 47.5819 76.4167 47.2788C76.4889 46.6191 76.4889 46.6191 76.473 45.6826Z" fill="#BF4636"/>
<path d="M47.3772 27.6104C47.5472 27.6932 47.7171 27.776 47.8922 27.8614C47.6781 28.0298 47.6781 28.0298 47.4597 28.2016C45.9101 29.4622 45.3746 30.2117 45.1725 32.1755C45.1563 32.3913 45.14 32.6071 45.1232 32.8295C45.0599 33.3834 45.0599 33.3834 44.8024 33.8855C44.7767 34.5011 44.7666 35.1097 44.768 35.7255C44.7674 35.9174 44.7668 36.1092 44.7662 36.3069C44.7646 36.9534 44.7648 37.5999 44.765 38.2463C44.7642 38.7085 44.7633 39.1706 44.7624 39.6327C44.7601 40.8909 44.7595 42.1491 44.7593 43.4073C44.7591 44.457 44.7581 45.5068 44.7572 46.5566C44.7551 49.0337 44.7545 51.5109 44.7547 53.988C44.7548 56.5436 44.7521 59.0992 44.7481 61.6547C44.7447 63.8478 44.7433 66.0409 44.7435 68.234C44.7435 69.5442 44.7428 70.8544 44.7401 72.1646C44.7376 73.3977 44.7376 74.6307 44.7394 75.8637C44.7397 76.3159 44.7391 76.7681 44.7375 77.2203C44.7356 77.8385 44.7368 78.4566 44.7387 79.0748C44.7374 79.253 44.7361 79.4311 44.7347 79.6147C44.751 81.9183 45.5139 83.4586 47.1198 85.0903C48.8204 86.3509 50.704 86.6027 52.7844 86.3453C54.9686 85.6991 56.2141 84.6777 57.3659 82.7763C57.8841 81.6123 57.9654 80.4381 57.987 79.18C57.9921 78.9138 57.9973 78.6476 58.0026 78.3733C58.0069 78.0901 58.0112 77.8068 58.0156 77.515C58.021 77.2219 58.0263 76.9288 58.0318 76.6267C58.0486 75.6933 58.0638 74.7599 58.079 73.8265C58.0901 73.1924 58.1013 72.5584 58.1127 71.9243C58.1402 70.3726 58.1663 68.8208 58.1916 67.269C59.3812 67.3518 60.5708 67.4346 61.7964 67.52C63.3482 70.6127 63.3482 70.6127 63.6954 72.2577C64.1655 74.3284 65.2743 76.4718 66.6403 78.1249C66.7412 78.2699 66.8421 78.4148 66.9461 78.5642C66.8611 78.8127 66.7762 79.0612 66.6886 79.3172C64.8572 76.8102 63.5876 74.186 62.5925 71.2757C62.4748 70.9335 62.3533 70.5924 62.2275 70.2528C62.0674 69.8159 61.9245 69.373 61.7833 68.9299C61.1747 68.1333 60.9365 68.1437 59.9626 67.9809C59.7282 67.9403 59.4937 67.8996 59.2522 67.8577C59.0721 67.8291 58.8921 67.8005 58.7066 67.771C58.7051 67.9395 58.7036 68.108 58.702 68.2816C58.6855 70.0408 58.6638 71.7998 58.639 73.5589C58.6305 74.2148 58.6232 74.8706 58.6174 75.5265C58.6087 76.4712 58.5952 77.4156 58.5809 78.3602C58.5784 78.7976 58.5784 78.7976 58.5759 79.2439C58.5317 81.6367 58.1001 83.3441 56.3983 85.1334C54.8429 86.4954 53.1263 87.1835 51.0374 87.1532C48.5554 86.9142 46.7473 85.6425 45.1826 83.8215C43.9462 82.2336 43.9912 80.2454 43.9955 78.3241C43.9949 78.1305 43.9943 77.9368 43.9937 77.7374C43.9921 77.0925 43.9923 76.4476 43.9925 75.8028C43.9918 75.3388 43.9909 74.8748 43.9899 74.4108C43.9876 73.1532 43.987 71.8956 43.9869 70.638C43.9867 69.8516 43.9861 69.0653 43.9855 68.279C43.9831 65.5341 43.982 62.7892 43.9822 60.0443C43.9824 57.4883 43.9797 54.9323 43.9756 52.3762C43.9722 50.1793 43.9708 47.9823 43.971 45.7854C43.9711 44.4743 43.9704 43.1633 43.9676 41.8522C43.9651 40.619 43.9651 39.3857 43.967 38.1525C43.9673 37.7009 43.9666 37.2493 43.9651 36.7978C43.946 30.878 43.946 30.878 46.0898 28.6144C46.8301 27.9869 46.8301 27.9869 47.3772 27.6104Z" fill="#C9D3D8"/>
<path d="M83.1677 57.731C83.4251 58.484 83.4251 58.484 83.1194 59.1546C82.1643 60.7358 81.2157 62.0277 79.8204 63.253C79.6189 63.4524 79.4174 63.6517 79.2098 63.857C77.6811 65.3274 75.9809 66.6651 74.1557 67.7711C75.5646 70.9934 77.7085 72.7018 80.9017 74.1545C83.0118 75.1274 84.2704 76.1652 85.4689 78.125C86.0009 79.9552 86.0319 81.6774 85.2115 83.4275C84.103 85.3162 82.4672 86.4756 80.3353 87.0984C77.0503 87.6913 74.413 87.0166 71.5808 85.3414C69.3892 83.8253 67.883 81.7661 66.9461 79.3173C67.116 79.3173 67.286 79.3173 67.4611 79.3173C67.9538 79.9799 68.3902 80.647 68.7988 81.3616C69.4115 82.481 69.4115 82.481 70.5026 83.0824C70.6885 83.0824 70.8744 83.0824 71.0659 83.0824C71.0659 83.4137 71.0659 83.745 71.0659 84.0864C71.4057 84.1692 71.7456 84.252 72.0958 84.3374C72.0958 84.503 72.0958 84.6687 72.0958 84.8394C72.4357 84.8394 72.7756 84.8394 73.1257 84.8394C73.1257 85.0051 73.1257 85.1707 73.1257 85.3414C73.2691 85.3508 73.4125 85.3602 73.5603 85.3698C74.608 85.4578 75.5162 85.5849 76.4891 85.9846C77.7491 86.4837 78.9109 86.5624 80.2227 86.1258C80.4298 86.0326 80.6369 85.9394 80.8503 85.8434C81.1424 85.7813 81.4345 85.7192 81.7354 85.6552C83.1488 85.1717 83.8395 84.3357 84.6804 83.1608C85.1506 81.8111 85.2751 80.3654 84.7558 79.0084C84.3937 78.3673 84.1084 77.8933 83.4251 77.5603C83.4251 77.2289 83.4251 76.8976 83.4251 76.5563C82.7456 76.2014 82.1194 75.9608 81.3653 75.8032C81.3653 75.5548 81.3653 75.3063 81.3653 75.0502C80.9523 75.0079 80.5392 74.9662 80.1261 74.9247C79.8961 74.9014 79.6661 74.8781 79.4291 74.8541C78.769 74.7882 78.769 74.7882 78.018 74.7992C78.018 74.5507 78.018 74.3022 78.018 74.0462C77.6075 73.6102 77.6075 73.6102 77.0685 73.1991C76.8816 73.0457 76.6948 72.8923 76.5022 72.7343C76.3227 72.5874 76.1431 72.4405 75.9581 72.2892C75.4921 71.8856 75.0864 71.4901 74.6707 71.0342C74.6707 70.7857 74.6707 70.5372 74.6707 70.2812C74.3308 70.1983 73.9909 70.1155 73.6407 70.0302C73.4633 69.064 73.4092 68.2298 73.6407 67.2691C74.2396 66.7232 74.8713 66.4084 75.593 66.0298C78.2254 64.4813 80.5824 62.0591 82.1377 59.488C82.2479 59.3084 82.3581 59.1288 82.4716 58.9438C82.7109 58.5436 82.9407 58.138 83.1677 57.731Z" fill="#DD9082"/>
<path d="M55.8742 27.8615C57.6466 29.2476 58.3018 30.7371 58.7066 32.8816C58.7873 33.9047 58.7812 34.9155 58.7549 35.9407C58.7496 36.3351 58.7496 36.3351 58.7443 36.7374C58.7353 37.3766 58.7227 38.0156 58.7066 38.6547C58.8559 38.6033 59.0053 38.5518 59.1592 38.4988C64.1627 36.8166 69.9939 37.1882 74.7708 39.3672C76.4048 40.1492 77.9167 41.0131 79.3054 42.1688C79.4468 42.2768 79.5882 42.3849 79.7339 42.4963C80.5741 43.1459 81.2415 43.8406 81.8802 44.6788C81.7953 44.8445 81.7103 45.0101 81.6227 45.1808C81.4438 44.9589 81.2649 44.7369 81.0806 44.5082C80.3723 43.681 79.5915 43.0334 78.71 42.3884C78.5616 42.2793 78.4133 42.1703 78.2604 42.0579C76.3786 40.6979 74.781 40.0663 72.4921 39.5862C71.8383 39.4077 71.8383 39.4077 71.3233 38.9057C68.0733 38.2511 64.4288 38.4781 61.2064 39.1619C60.1078 39.3871 59.2865 39.363 58.1916 39.1567C58.188 38.8571 58.188 38.8571 58.1843 38.5514C58.1704 37.634 58.1489 36.7168 58.1272 35.7995C58.1236 35.4854 58.1199 35.1712 58.1162 34.8475C58.0556 32.5911 57.754 30.7393 56.357 28.8969C54.193 27.3377 52.0754 27.1736 49.4371 27.3595C48.921 27.4359 48.4054 27.5173 47.8922 27.6105C50.2261 25.7416 53.4619 26.463 55.8742 27.8615Z" fill="#D07263"/>
<path d="M76.473 45.6826C77.3652 46.4733 77.7654 47.2843 78.0019 48.428C78.2201 49.4455 78.4528 50.4587 78.6939 51.4714C78.7944 51.8951 78.7944 51.8951 78.897 52.3274C78.9468 52.5367 78.9966 52.746 79.0479 52.9617C79.2178 52.9617 79.3878 52.9617 79.5629 52.9617C79.5404 53.5688 79.5129 54.1749 79.4824 54.7815C79.4766 54.9527 79.4708 55.1238 79.4648 55.3002C79.4067 56.3608 79.2488 56.9361 78.5329 57.7308C78.3584 58.3157 78.1868 58.9014 78.018 59.4878C77.4792 60.6171 76.8033 61.1293 75.7006 61.7469C75.5306 61.7469 75.3607 61.7469 75.1856 61.7469C75.1856 61.9125 75.1856 62.0782 75.1856 62.2489C74.7736 62.4599 74.3603 62.6686 73.9465 62.8764C73.6014 63.0511 73.6014 63.0511 73.2495 63.2294C72.6108 63.5039 72.6108 63.5039 71.8383 63.5039C71.8383 63.3382 71.8383 63.1726 71.8383 63.0019C72.0033 62.9317 72.1682 62.8615 72.3382 62.7891C74.9559 61.6064 76.4619 60.124 77.503 57.4798C78.3634 54.671 78.1929 51.7163 77.2455 48.9457C77.0756 48.9457 76.9056 48.9457 76.7305 48.9457C76.7305 49.1942 76.7305 49.4427 76.7305 49.6987C75.5995 50.2058 74.6311 50.5543 73.3832 50.7027C73.3832 50.537 73.3832 50.3714 73.3832 50.2007C73.192 50.1282 73.0009 50.0557 72.8039 49.9811C72.2072 49.7431 71.6377 49.4857 71.0659 49.1967C71.0659 48.6169 71.0659 48.037 71.0659 47.4396C71.5757 47.6881 71.5757 47.6881 72.0958 47.9417C72.0958 48.1073 72.0958 48.273 72.0958 48.4437C72.991 48.9817 73.6954 48.9991 74.735 48.977C75.1512 48.9703 75.1512 48.9703 75.5759 48.9633C75.787 48.9575 75.9981 48.9517 76.2156 48.9457C76.2592 48.5902 76.3019 48.2346 76.3443 47.8789C76.3801 47.5819 76.3801 47.5819 76.4167 47.2788C76.4889 46.6191 76.4889 46.6191 76.473 45.6826Z" fill="#C04B25"/>
<path d="M72.6108 51.4561C72.7807 51.5389 72.9507 51.6217 73.1258 51.7071C73.2414 54.2507 72.9891 55.9172 71.1896 57.8361C71.0009 58.0326 71.0009 58.0326 70.8084 58.2332C70.5375 58.5438 70.5375 58.5438 70.2612 58.8607C70.1019 58.9849 69.9426 59.1092 69.7784 59.2372C69.3017 59.1519 69.3017 59.1519 68.7485 58.9862C68.5666 58.9418 68.3847 58.8975 68.1973 58.8518C67.6944 58.7293 67.1915 58.6067 66.6886 58.4842C67.649 56.1984 68.6027 54.9438 70.8084 53.7151C70.9846 53.6154 71.1609 53.5158 71.3425 53.4131C71.7637 53.1765 72.1871 52.9434 72.6108 52.7111C72.6108 52.2969 72.6108 51.8828 72.6108 51.4561Z" fill="#9D2E11"/>
<path d="M47.3772 27.6104C47.5472 27.6932 47.7171 27.776 47.8922 27.8614C47.6781 28.0298 47.6781 28.0298 47.4597 28.2016C45.9101 29.4622 45.3746 30.2117 45.1725 32.1755C45.1563 32.3913 45.14 32.6071 45.1232 32.8295C45.0599 33.3834 45.0599 33.3834 44.8024 33.8855C44.7728 34.3157 44.7594 34.7471 44.7536 35.1783C44.7493 35.4555 44.745 35.7326 44.7405 36.0181C44.7371 36.327 44.7336 36.636 44.73 36.9544C44.7253 37.2843 44.7207 37.6143 44.7159 37.9542C44.7029 38.8807 44.6917 39.8071 44.6807 40.7335C44.6737 41.3207 44.6661 41.9078 44.6584 42.495C44.4925 55.1032 44.3948 67.7124 44.2874 80.3212C44.2025 80.3212 44.1175 80.3212 44.0299 80.3212C44.0179 74.1748 44.0088 68.0285 44.0033 61.8821C44.0006 59.0282 43.997 56.1742 43.9911 53.3203C43.986 50.8325 43.9826 48.3447 43.9815 45.8568C43.9808 44.5399 43.9792 43.2229 43.9755 41.9059C43.972 40.6655 43.9709 39.4251 43.9717 38.1846C43.9715 37.7302 43.9705 37.2758 43.9686 36.8214C43.9439 30.8801 43.9439 30.8801 46.0898 28.6144C46.8301 27.9869 46.8301 27.9869 47.3772 27.6104Z" fill="#EEF7F7"/>
<path d="M66.1737 48.4437C66.751 48.83 66.751 48.83 67.2036 49.4477C67.3005 50.1419 67.3365 50.7184 67.3162 51.4087C67.3181 51.581 67.3199 51.7533 67.3218 51.9308C67.306 53.185 66.9797 54.0733 66.4311 55.2208C66.2331 55.84 66.045 56.4624 65.8679 57.0877C65.7793 57.3979 65.6907 57.7082 65.5993 58.0279C65.5013 58.3779 65.5013 58.3779 65.4012 58.7349C64.2384 58.7541 63.1892 58.7605 62.0539 58.4839C61.9689 58.1525 61.884 57.8212 61.7964 57.4798C61.6583 57.4643 61.5203 57.4488 61.378 57.4328C60.4424 57.1208 59.7514 56.7928 59.2216 55.9738C58.9257 54.2156 59.0003 52.4673 59.994 50.9537C61.6027 49.2655 63.7102 47.8799 66.1737 48.4437ZM60.8047 50.6655C59.6739 52.1803 59.5116 53.6525 59.7365 55.4718C60.5745 56.9422 61.9803 57.6966 63.5988 58.2329C64.4257 58.2776 64.4257 58.2776 65.1437 58.2329C65.3968 57.5063 65.6488 56.7794 65.9001 56.0523C65.9716 55.8473 66.0431 55.6423 66.1168 55.4311C66.787 53.4871 67.4238 51.5653 66.576 49.5889C66.2331 48.984 66.2331 48.984 65.9162 48.6947C64.0219 48.5415 62.1466 49.3574 60.8047 50.6655Z" fill="#F6E5CF"/>
<path d="M58.1916 67.269C59.976 67.3933 59.976 67.3933 61.7964 67.52C63.3482 70.6128 63.3482 70.6128 63.6954 72.2577C64.1655 74.3285 65.2743 76.4719 66.6403 78.125C66.7917 78.3424 66.7917 78.3424 66.9461 78.5642C66.8611 78.8127 66.7762 79.0612 66.6886 79.3172C64.8572 76.8102 63.5876 74.186 62.5925 71.2758C62.4748 70.9335 62.3533 70.5925 62.2275 70.2529C62.0674 69.816 61.9245 69.3731 61.7833 68.93C61.1574 67.9577 61.1574 67.9577 58.7066 67.7711C58.6216 72.3268 58.5366 76.8825 58.4491 81.5763C58.3641 81.5763 58.2792 81.5763 58.1916 81.5763C58.1916 76.8549 58.1916 72.1335 58.1916 67.269Z" fill="#E6F0F0"/>
<path d="M55.8742 27.8615C57.6466 29.2476 58.3018 30.7371 58.7066 32.8816C58.7873 33.9047 58.7812 34.9155 58.7549 35.9407C58.7496 36.3351 58.7496 36.3351 58.7443 36.7374C58.7353 37.3766 58.7227 38.0156 58.7066 38.6547C59.4713 38.5305 59.4713 38.5305 60.2515 38.4037C59.4633 39.0623 59.2906 39.1567 58.1916 39.1567C58.188 38.8571 58.188 38.8571 58.1843 38.5514C58.1704 37.634 58.1489 36.7168 58.1272 35.7995C58.1236 35.4854 58.1199 35.1712 58.1162 34.8475C58.0556 32.5911 57.754 30.7393 56.357 28.8969C54.193 27.3377 52.0754 27.1736 49.4371 27.3595C48.921 27.4359 48.4054 27.5173 47.8922 27.6105C50.2261 25.7416 53.4619 26.463 55.8742 27.8615Z" fill="#DEEBEB"/>
<path d="M71.0659 65.2612C71.1933 65.5097 71.1933 65.5097 71.3233 65.7632C71.0039 66.1729 70.6815 66.5804 70.3578 66.9869C70.1785 67.214 69.9993 67.4412 69.8146 67.6752C69.2902 68.2443 68.9334 68.4698 68.2335 68.7753C68.1486 68.9409 68.0636 69.1066 67.976 69.2773C66.0637 69.3032 64.2077 69.2769 62.3114 69.0263C62.3114 68.695 62.3114 68.3636 62.3114 68.0223C62.7819 67.9995 62.7819 67.9995 63.2619 67.9762C63.6799 67.955 64.098 67.9337 64.5161 67.9125C64.825 67.8977 64.825 67.8977 65.1402 67.8826C67.6223 67.8702 67.6223 67.8702 69.7302 66.7986C69.8752 66.6699 70.0203 66.5411 70.1697 66.4084C70.6057 65.9796 70.6057 65.9796 71.0659 65.2612Z" fill="#9B4538"/>
<path d="M81.8802 45.1807C83.7997 46.8568 84.5588 49.6644 84.7689 52.1117C84.8374 54.078 84.5611 56.0699 83.4252 57.7309C83.466 57.4109 83.5068 57.0909 83.5489 56.7612C83.6939 55.4778 83.7481 54.2052 83.7631 52.9147C83.7706 52.6981 83.778 52.4815 83.7857 52.2583C83.8003 50.8298 83.5738 50.1065 82.6527 48.9457C82.4485 48.3682 82.4485 48.3682 82.3469 47.8633C82.2392 46.9916 82.2392 46.9916 81.8802 46.6867C81.8697 46.1848 81.8693 45.6826 81.8802 45.1807Z" fill="#E9B9B0"/>
<path d="M71.0659 47.4399C71.5757 47.6884 71.5757 47.6884 72.0958 47.9419C72.0958 48.1076 72.0958 48.2733 72.0958 48.444C72.991 48.9819 73.6954 48.9994 74.735 48.9773C75.1512 48.9705 75.1512 48.9705 75.5759 48.9636C75.787 48.9578 75.9981 48.952 76.2156 48.946C76.3005 48.6975 76.3855 48.449 76.473 48.193C76.558 48.3586 76.643 48.5243 76.7305 48.695C76.9005 48.7778 77.0704 48.8606 77.2455 48.946C77.0756 48.946 76.9056 48.946 76.7305 48.946C76.7305 49.1945 76.7305 49.443 76.7305 49.699C75.5995 50.2061 74.6311 50.5546 73.3832 50.703C73.3832 50.5373 73.3832 50.3717 73.3832 50.201C73.192 50.1285 73.0009 50.056 72.8039 49.9814C72.2072 49.7434 71.6377 49.486 71.0659 49.197C71.0659 48.6172 71.0659 48.0373 71.0659 47.4399Z" fill="#D26D28"/>
<path d="M57.9341 80.5723C58.0191 80.5723 58.1041 80.5723 58.1916 80.5723C58.3007 82.088 58.1639 83.1175 57.1617 84.3373C55.6554 85.9411 53.7588 87.1022 51.4809 87.2082C48.75 86.9124 46.9304 85.7456 45.0599 83.8353C45.1448 83.6697 45.2298 83.504 45.3174 83.3333C45.5032 83.5197 45.6891 83.7061 45.8806 83.8981C47.5343 85.4743 48.9677 86.3454 51.3039 86.4865C53.0523 86.425 54.4756 85.8536 55.8742 84.8393C57.0373 83.5267 57.7178 82.3003 57.9341 80.5723Z" fill="#E1E6E8"/>
<path d="M65.4012 57.731C65.4862 57.9795 65.5711 58.2279 65.6587 58.484C65.972 58.4736 66.2853 58.4633 66.6082 58.4526C67.5175 58.4494 68.182 58.5844 69.006 58.986C69.006 59.1516 69.006 59.3173 69.006 59.488C69.16 59.5553 69.314 59.6226 69.4727 59.6919C70.4938 60.2323 71.116 60.9622 71.5808 61.998C71.8248 63.4834 71.7931 64.6595 70.8728 65.9043C70.3158 66.5638 69.8087 66.9272 69.006 67.2691C69.2658 66.8361 69.5257 66.403 69.7855 65.97C70.0717 65.4774 70.0717 65.4774 70.2934 64.7591C70.4634 64.7591 70.6333 64.7591 70.8084 64.7591C70.8293 64.3148 70.8442 63.8702 70.8567 63.4256C70.8656 63.1781 70.8746 62.9306 70.8838 62.6755C70.7962 61.8888 70.6324 61.7445 70.0359 61.245C69.951 60.9965 69.866 60.748 69.7784 60.492C69.3512 60.238 68.9221 59.9868 68.491 59.739C68.491 59.5733 68.491 59.4077 68.491 59.237C68.0848 59.2447 68.0848 59.2447 67.6703 59.2527C66.8619 59.2398 66.1817 59.1704 65.4012 58.986C65.4012 58.5718 65.4012 58.1577 65.4012 57.731Z" fill="#7D9A8E"/>
<path d="M58.1916 39.4077C58.4465 39.532 58.4465 39.532 58.7066 39.6587C58.7066 43.8003 58.7066 47.9419 58.7066 52.2089C59.089 52.0847 59.089 52.0847 59.479 51.9579C59.3941 52.7034 59.3091 53.4489 59.2216 54.217C58.9667 54.217 58.7117 54.217 58.4491 54.217C58.2014 53.4056 58.1604 52.6765 58.1624 51.8317C58.1624 51.5554 58.1624 51.279 58.1624 50.9944C58.1638 50.6976 58.1651 50.4008 58.1665 50.095C58.1668 49.79 58.1672 49.485 58.1676 49.1708C58.169 48.1964 58.1723 47.222 58.1755 46.2476C58.1768 45.5871 58.178 44.9265 58.179 44.266C58.1819 42.6466 58.1862 41.0271 58.1916 39.4077Z" fill="#9D9277"/>
<path d="M66.6886 48.4438C68.5575 48.5306 69.7627 48.9563 71.3234 49.9499C71.5783 50.1052 71.8332 50.2605 72.0958 50.4205C72.7931 51.1427 72.8109 51.7411 72.8683 52.7109C72.2567 53.1031 72.2567 53.1031 71.5808 53.4639C71.4109 53.3811 71.241 53.2983 71.0659 53.2129C71.3128 53.1275 71.3128 53.1275 71.5648 53.0404C72.1658 52.7479 72.1658 52.7479 72.2889 52.052C72.3102 51.8553 72.3314 51.6586 72.3533 51.4559C72.0134 51.3731 71.6735 51.2902 71.3234 51.2049C71.3234 51.0392 71.3234 50.8736 71.3234 50.7029C71.0525 50.7184 71.0525 50.7184 70.7762 50.7343C69.5618 50.6828 68.5225 50.256 67.4611 49.6989C67.4611 49.5332 67.4611 49.3675 67.4611 49.1969C67.2062 49.114 66.9513 49.0312 66.6886 48.9459C66.6886 48.7802 66.6886 48.6145 66.6886 48.4438Z" fill="#29281E"/>
<path d="M83.1677 57.731C83.4251 58.484 83.4251 58.484 83.1194 59.1546C82.1643 60.7358 81.2157 62.0277 79.8204 63.253C79.6189 63.4524 79.4174 63.6517 79.2098 63.857C77.6811 65.3274 75.9809 66.6651 74.1557 67.7711C74.233 67.9102 74.3104 68.0494 74.39 68.1927C74.488 68.3746 74.5859 68.5564 74.6867 68.7438C74.7853 68.9243 74.8839 69.1049 74.9855 69.2909C75.0515 69.452 75.1176 69.6131 75.1856 69.7792C75.1007 69.9448 75.0157 70.1105 74.9281 70.2812C74.7107 69.9693 74.4968 69.6551 74.2844 69.3399C74.1649 69.1652 74.0455 68.9904 73.9223 68.8104C73.6407 68.2731 73.6407 68.2731 73.6407 67.2691C74.1245 66.9103 74.1245 66.9103 74.8155 66.5475C77.7484 64.8276 80.3961 62.3671 82.1377 59.488C82.2479 59.3084 82.3581 59.1288 82.4716 58.9438C82.7109 58.5436 82.9407 58.138 83.1677 57.731Z" fill="#F8DCD2"/>
<path d="M65.9162 47.942C68.4741 47.6542 70.537 48.208 72.6108 49.699C72.8411 50.3863 72.8411 50.3863 72.8683 50.954C73.1232 51.0368 73.3781 51.1197 73.6407 51.205C73.5557 52.3647 73.4708 53.5243 73.3832 54.7191C73.2983 54.7191 73.2133 54.7191 73.1257 54.7191C73.1221 54.5162 73.1184 54.3133 73.1147 54.1043C73.0638 52.4352 73.0638 52.4352 72.3372 50.9697C70.5097 49.7189 68.9392 48.7501 66.6886 48.444C66.6037 48.6096 66.5187 48.7753 66.4311 48.946C66.4311 48.6975 66.4311 48.449 66.4311 48.193C66.2612 48.1101 66.0913 48.0273 65.9162 47.942Z" fill="#C77D43"/>
<path d="M72.6108 51.4561C72.7807 51.5389 72.9507 51.6217 73.1257 51.7071C73.2755 54.9993 73.2755 54.9993 72.3533 56.4761C71.8435 56.7246 71.8435 56.7246 71.3234 56.9781C71.3234 56.067 71.3234 55.1559 71.3234 54.2171C70.9835 54.2999 70.6436 54.3828 70.2934 54.4681C71.0164 53.7241 71.628 53.1014 72.6108 52.7111C72.6108 52.2969 72.6108 51.8828 72.6108 51.4561Z" fill="#8E2A0A"/>
<path d="M80.8503 74.2974C82.6103 74.9029 83.9032 75.8072 84.9701 77.3094C85.5156 78.8288 85.5455 80.228 85.485 81.8275C85.4001 81.8275 85.3151 81.8275 85.2275 81.8275C85.2053 81.6246 85.1831 81.4217 85.1602 81.2127C84.9375 79.5618 84.778 78.671 83.4251 77.5604C83.4251 77.2291 83.4251 76.8978 83.4251 76.5564C82.7456 76.2015 82.1194 75.9609 81.3653 75.8034C81.3653 75.4721 81.3653 75.1407 81.3653 74.7994C81.1953 74.7994 81.0254 74.7994 80.8503 74.7994C80.8503 74.6337 80.8503 74.468 80.8503 74.2974Z" fill="#D48478"/>
<path d="M84.4551 78.5645C84.625 78.6473 84.795 78.7301 84.9701 78.8155C85.4173 80.1234 85.5222 81.604 84.9942 82.9041C84.2918 84.0409 83.3879 84.9434 82.3952 85.8436C82.2253 85.7607 82.0553 85.6779 81.8802 85.5926C82.0502 85.2612 82.2201 84.9299 82.3952 84.5885C82.5652 84.6714 82.7351 84.7542 82.9102 84.8396C82.9102 84.5911 82.9102 84.3426 82.9102 84.0865C83.1651 84.0865 83.42 84.0865 83.6826 84.0865C83.7676 83.5067 83.8526 82.9269 83.9401 82.3295C84.0251 82.3295 84.1101 82.3295 84.1976 82.3295C84.2826 81.087 84.3676 79.8446 84.4551 78.5645Z" fill="#D26556"/>
<path d="M61.7964 68.2729C62.7962 69.4796 63.3206 70.6375 63.6471 72.1478C64.1538 74.2582 65.2415 76.432 66.6403 78.1249C66.7412 78.2698 66.8421 78.4148 66.9461 78.5641C66.8611 78.8126 66.7762 79.0611 66.6886 79.3171C64.9781 76.9755 63.7337 74.5209 62.7459 71.8184C62.6803 71.6393 62.6148 71.4602 62.5472 71.2757C62.195 70.2792 61.9398 69.3225 61.7964 68.2729Z" fill="#F9DEDB"/>
<path d="M65.7231 37.6038C66.1408 37.5992 66.1408 37.5992 66.5669 37.5945C68.3008 37.5914 69.8968 37.7461 71.5808 38.1528C71.5808 38.2357 71.5808 38.3185 71.5808 38.4038C67.8422 38.4038 64.1035 38.4038 60.2515 38.4038C61.8536 37.3626 63.8621 37.6048 65.7231 37.6038Z" fill="#EEC8C2"/>
<path d="M65.1437 48.4438C65.7904 48.529 66.3014 48.6135 66.8546 48.9606C67.3965 49.7172 67.3151 50.5045 67.3001 51.3931C67.3031 51.5666 67.3061 51.74 67.3092 51.9187C67.3019 53.1821 66.9859 54.0646 66.4311 55.221C66.2331 55.8402 66.045 56.4626 65.8679 57.0878C65.7793 57.3981 65.6906 57.7084 65.5993 58.0281C65.534 58.2614 65.4686 58.4947 65.4012 58.735C64.8064 58.6522 64.2116 58.5693 63.5988 58.484C63.5988 58.4012 63.5988 58.3183 63.5988 58.233C64.1086 58.233 64.6184 58.233 65.1437 58.233C65.1689 58.0897 65.1942 57.9463 65.2202 57.7986C65.4629 56.5157 65.7873 55.3 66.2058 54.0601C66.7312 52.4277 67.006 51.2474 66.3507 49.6047C65.9439 48.8914 65.9439 48.8914 65.1437 48.4438Z" fill="#E1E7E7"/>
<path d="M66.415 42.8746C66.5928 42.8715 66.7705 42.8685 66.9537 42.8653C68.078 42.8622 69.0024 42.9853 70.0359 43.4237C70.1634 43.6722 70.1634 43.6722 70.2934 43.9257C70.1441 43.9076 69.9947 43.8894 69.8408 43.8708C68.9108 43.7631 68.0128 43.6747 67.0749 43.6747C66.8624 43.6747 66.65 43.6747 66.4311 43.6747C66.3462 43.5919 66.2612 43.509 66.1737 43.4237C65.5299 43.3818 65.5299 43.3818 64.8862 43.4237C64.8013 43.5065 64.7163 43.5893 64.6287 43.6747C64.3526 43.7109 64.0764 43.7472 63.7919 43.7845C62.8489 43.8856 62.8489 43.8856 62.1022 44.2081C61.9163 44.2805 61.7304 44.353 61.5389 44.4277C61.369 44.3449 61.199 44.262 61.024 44.1767C61.3394 44.0126 61.6562 43.851 61.9734 43.6904C62.1497 43.6001 62.3259 43.5098 62.5075 43.4168C63.7759 42.8795 65.0505 42.8758 66.415 42.8746Z" fill="#EC813F"/>
<path d="M71.5808 38.4038C72.9331 38.5455 73.9616 38.9838 75.1534 39.5804C75.3358 39.6706 75.5181 39.7608 75.706 39.8538C77.0106 40.5128 78.1858 41.2372 79.3054 42.1689C79.4468 42.2769 79.5882 42.385 79.7339 42.4964C80.5742 43.146 81.2415 43.8407 81.8802 44.6789C81.7953 44.8446 81.7103 45.0102 81.6228 45.1809C81.4439 44.959 81.265 44.737 81.0806 44.5083C80.3723 43.681 79.5914 43.0338 78.71 42.3885C78.5622 42.2793 78.4144 42.17 78.2621 42.0575C77.1966 41.2841 76.1515 40.6569 74.9281 40.1608C72.3972 39.0958 72.3972 39.0958 71.5808 38.4038Z" fill="#F6D6D1"/>
<path d="M57.1617 30.1206C58.1715 31.319 58.2239 32.2323 58.2168 33.7641C58.2155 34.2349 58.2155 34.2349 58.2143 34.7152C58.2121 35.042 58.2099 35.3687 58.2077 35.7054C58.2066 36.0361 58.2054 36.3668 58.2042 36.7075C58.2012 37.5239 58.1969 38.3403 58.1916 39.1567C58.3616 39.2396 58.5315 39.3224 58.7066 39.4078C58.3667 39.3249 58.0268 39.2421 57.6767 39.1567C57.6702 38.9633 57.6637 38.7698 57.6571 38.5705C57.627 37.6834 57.5955 36.7964 57.564 35.9094C57.5539 35.6051 57.5438 35.3008 57.5333 34.9872C57.4742 33.3523 57.3754 31.7434 57.1617 30.1206Z" fill="#7EADAB"/>
<path d="M70.2934 58.2329C70.7762 58.4839 70.7762 58.4839 71.3233 58.9859C71.4722 59.4777 71.619 59.9712 71.7257 60.4733C71.8762 61.1691 72.1126 61.8296 72.3533 62.5C72.0984 62.6656 71.8435 62.8313 71.5808 63.002C71.5171 62.826 71.4534 62.65 71.3877 62.4686C70.819 61.1935 70.0485 60.1807 69.006 59.2369C69.2609 59.2369 69.5158 59.2369 69.7784 59.2369C69.9484 58.9056 70.1183 58.5743 70.2934 58.2329Z" fill="#D58435"/>
<path d="M69.521 54.4678C69.6909 54.5506 69.8608 54.6334 70.0359 54.7188C69.9274 54.8281 69.8189 54.9375 69.707 55.0502C68.8094 56.0014 68.3008 56.6379 68.2335 57.9818C68.4353 58.0129 68.6371 58.044 68.8451 58.076C69.521 58.2328 69.521 58.2328 70.0359 58.7348C69.951 58.9005 69.866 59.0662 69.7784 59.2368C68.2335 58.8603 68.2335 58.8603 66.6886 58.4838C67.3724 56.8565 67.972 55.4744 69.521 54.4678Z" fill="#A25636"/>
<path d="M76.4731 45.6826C77.3874 46.574 77.7598 47.2572 78.018 48.475C78.0598 48.6695 78.1016 48.864 78.1447 49.0643C78.1878 49.2737 78.231 49.483 78.2754 49.6987C78.3239 49.9313 78.3724 50.164 78.4223 50.4036C78.5466 51.0051 78.6692 51.6067 78.7904 52.2087C78.5355 52.2916 78.2806 52.3744 78.018 52.4597C77.9838 52.2721 77.9496 52.0844 77.9144 51.891C77.8689 51.6438 77.8234 51.3966 77.7766 51.142C77.7318 50.8973 77.687 50.6527 77.6408 50.4007C77.5278 49.8249 77.3991 49.2612 77.2455 48.6947C77.0756 48.6947 76.9056 48.6947 76.7305 48.6947C76.6456 47.7007 76.5606 46.7067 76.4731 45.6826Z" fill="#CA522A"/>
<path d="M84.9701 77.811C85.7877 78.6081 85.8014 79.3795 85.8391 80.4623C85.8187 82.2898 85.2903 83.6926 84.0226 85.0519C83.146 85.8248 82.2158 86.4299 81.1078 86.8472C80.8529 86.7643 80.598 86.6815 80.3353 86.5962C80.4847 86.5231 80.6341 86.4499 80.7879 86.3746C82.7071 85.3928 84.1266 84.3351 85.0515 82.3821C85.519 80.9082 85.2908 79.2964 84.9701 77.811Z" fill="#F8E0DA"/>
<path d="M70.0359 54.4678C70.0359 55.2208 70.0359 55.2208 69.8911 55.66C69.7333 56.2807 69.7333 56.2807 69.9233 57.1347C69.9605 57.4142 69.9976 57.6938 70.0359 57.9818C69.866 58.1475 69.6961 58.3132 69.521 58.4838C68.8612 58.4211 68.8612 58.4211 68.2335 58.2328C67.9761 57.7308 67.9761 57.7308 68.1209 57.0563C68.585 56.0136 69.2433 55.2891 70.0359 54.4678Z" fill="#B93F20"/>
<path d="M58.7066 45.4316C58.9615 45.5559 58.9615 45.5559 59.2216 45.6826C59.1366 47.4221 59.0516 49.1616 58.9641 50.9537C59.219 50.9537 59.4739 50.9537 59.7365 50.9537C59.6834 50.7984 59.6303 50.6431 59.5756 50.4831C59.5278 50.2191 59.5278 50.2191 59.479 49.9497C59.649 49.784 59.8189 49.6184 59.994 49.4477C60.6699 49.5418 60.6699 49.5418 61.2814 49.6987C61.0481 50.0248 60.8114 50.3485 60.5734 50.6713C60.4419 50.8519 60.3105 51.0324 60.1751 51.2185C59.7365 51.7067 59.7365 51.7067 58.7066 52.2087C58.7066 49.9723 58.7066 47.7359 58.7066 45.4316Z" fill="#D78E47"/>
<path d="M66.9461 79.3174C67.116 79.3174 67.286 79.3174 67.4611 79.3174C67.9871 80.02 68.4448 80.7485 68.9044 81.4941C70.3122 83.7766 70.3122 83.7766 72.6108 85.0905C72.6108 85.2561 72.6108 85.4218 72.6108 85.5925C72.9507 85.6753 73.2905 85.7581 73.6407 85.8435C73.3858 85.9263 73.1309 86.0091 72.8683 86.0945C70.1329 84.6993 68.4246 82.3906 66.9461 79.8194C66.9461 79.6537 66.9461 79.4881 66.9461 79.3174Z" fill="#F6D7D1"/>
<path d="M76.988 59.2368C77.073 59.4853 77.158 59.7338 77.2455 59.9898C76.4633 61.4019 76.4633 61.4019 75.6362 61.7155C75.4875 61.7258 75.3388 61.7362 75.1856 61.7469C75.1856 61.9125 75.1856 62.0782 75.1856 62.2489C74.7736 62.4599 74.3603 62.6686 73.9465 62.8764C73.7165 62.9929 73.4864 63.1093 73.2495 63.2293C72.6108 63.5039 72.6108 63.5039 71.8383 63.5039C71.8383 63.3382 71.8383 63.1726 71.8383 63.0019C71.9943 62.9404 72.1503 62.8789 72.311 62.8156C74.2591 61.9683 75.5597 60.7625 76.988 59.2368Z" fill="#B7431E"/>
<path d="M67.2036 50.2007C67.3735 50.2835 67.5435 50.3663 67.7186 50.4517C68.0347 51.8506 68.1031 53.3347 67.7186 54.7188C67.3775 54.8904 67.034 55.0575 66.6886 55.2208C66.3541 56.1108 66.3541 56.1108 66.1737 56.9778C65.9162 56.4758 65.9162 56.4758 66.051 55.9591C66.1233 55.762 66.1957 55.565 66.2702 55.362C66.3412 55.1656 66.4123 54.9692 66.4855 54.7668C66.5525 54.5853 66.6196 54.4038 66.6886 54.2167C66.9732 53.3846 67.0288 52.6595 67.091 51.7851C67.1125 51.4891 67.1341 51.193 67.1563 50.888C67.1719 50.6612 67.1875 50.4344 67.2036 50.2007Z" fill="#52656B"/>
<path d="M71.3234 48.1929C72.8361 48.6635 72.8361 48.6635 73.1258 48.9459C74.2912 48.9838 75.3358 48.9721 76.4731 48.6949C76.0985 49.638 76.0985 49.638 75.5236 49.8871C74.2484 50.0215 73.417 50.1024 72.2567 49.495C71.5808 48.9459 71.5808 48.9459 71.3234 48.1929Z" fill="#C05D19"/>
<path d="M59.2216 52.7109C59.3065 52.7109 59.3915 52.7109 59.479 52.7109C59.4678 52.908 59.4565 53.105 59.4448 53.3081C59.4335 54.9469 59.4335 54.9469 60.2817 56.2966C61.3361 57.0149 62.3964 57.5393 63.5988 57.982C63.5988 58.1477 63.5988 58.3133 63.5988 58.484C63.8537 58.5669 64.1086 58.6497 64.3713 58.735C63.6065 58.6522 62.8418 58.5694 62.0539 58.484C61.9689 58.1527 61.8839 57.8214 61.7964 57.48C61.6583 57.4645 61.5203 57.449 61.378 57.433C60.4445 57.1216 59.7419 56.7978 59.2216 55.974C59.0877 54.8755 59.1323 53.8119 59.2216 52.7109Z" fill="#BCD2CC"/>
<path d="M58.4491 45.6826C58.5341 45.6826 58.619 45.6826 58.7066 45.6826C58.7066 47.8362 58.7066 49.9898 58.7066 52.2087C58.9615 52.1259 59.2164 52.0431 59.479 51.9577C59.3941 52.7032 59.3091 53.4487 59.2216 54.2168C58.9666 54.2168 58.7117 54.2168 58.4491 54.2168C58.4491 51.4005 58.4491 48.5842 58.4491 45.6826Z" fill="#B09361"/>
<path d="M57.6766 71.0342C57.7616 71.0342 57.8466 71.0342 57.9341 71.0342C57.9532 72.5886 57.9672 74.1431 57.9766 75.6976C57.9804 76.2264 57.9857 76.7552 57.9924 77.284C58.0018 78.0442 58.0062 78.8042 58.0096 79.5644C58.0136 79.8008 58.0175 80.0372 58.0216 80.2807C58.0217 80.5018 58.0218 80.7228 58.0218 80.9506C58.0235 81.1445 58.0253 81.3385 58.027 81.5383C57.9106 82.2153 57.6154 82.5681 57.1617 83.0824C57.1507 82.6642 57.1512 82.2456 57.1617 81.8274C57.2891 81.7031 57.2891 81.7031 57.4192 81.5763C57.4605 80.798 57.486 80.0247 57.5006 79.2457C57.5087 78.8953 57.5087 78.8953 57.5168 78.5377C57.5337 77.7884 57.5489 77.039 57.564 76.2896C57.5751 75.7828 57.5863 75.2761 57.5977 74.7693C57.6253 73.5243 57.6514 72.2793 57.6766 71.0342Z" fill="#3B4D51"/>
<path d="M73.3832 52.7109C73.4682 52.7109 73.5532 52.7109 73.6407 52.7109C74.1593 55.2216 74.1593 55.2216 73.5321 56.426C73.0819 56.9945 72.6496 57.508 72.0958 57.982C71.9259 57.982 71.7559 57.982 71.5808 57.982C71.946 56.8594 72.3824 55.7954 72.8683 54.719C73.0382 54.719 73.2081 54.719 73.3832 54.719C73.3832 54.0563 73.3832 53.3937 73.3832 52.7109Z" fill="#DE823B"/>
<path d="M68.491 54.97C68.3848 55.058 68.2786 55.1461 68.1692 55.2367C67.3263 56.1465 66.6321 57.2597 66.4311 58.4841C66.1762 58.4841 65.9213 58.4841 65.6587 58.4841C65.6265 57.888 65.6265 57.888 65.6587 57.2291C65.8286 57.0634 65.9986 56.8977 66.1737 56.7271C66.248 56.4786 66.3224 56.2301 66.399 55.9741C66.6886 55.221 66.6886 55.221 67.1875 54.8602C67.7186 54.719 67.7186 54.719 68.491 54.97Z" fill="#254648"/>
<path d="M57.9341 80.5723C58.0191 80.5723 58.1041 80.5723 58.1916 80.5723C58.3006 82.0861 58.1659 83.1205 57.1617 84.3373C56.2558 85.2786 55.4955 85.9916 54.2006 86.3297C53.9882 86.3348 53.7757 86.34 53.5569 86.3454C54.1346 85.9121 54.6844 85.5407 55.3271 85.2002C56.6777 84.1732 57.5012 82.787 57.9019 81.1684C57.9126 80.9717 57.9232 80.775 57.9341 80.5723Z" fill="#CBD3D4"/>
<path d="M69.521 49.1968C70.8226 49.5291 71.6775 50.0017 72.6108 50.9538C72.8361 51.9108 72.8361 51.9108 72.8683 52.7108C72.2567 53.103 72.2567 53.103 71.5808 53.4638C71.4109 53.381 71.241 53.2982 71.0659 53.2128C71.2305 53.1559 71.3951 53.0989 71.5648 53.0403C72.1658 52.7479 72.1658 52.7479 72.2889 52.0519C72.3102 51.8552 72.3314 51.6585 72.3533 51.4558C72.0134 51.373 71.6735 51.2902 71.3234 51.2048C71.3234 51.0391 71.3234 50.8735 71.3234 50.7028C71.1534 50.7028 70.9835 50.7028 70.8084 50.7028C70.7234 50.5371 70.6385 50.3715 70.5509 50.2008C70.0296 50.0371 70.0296 50.0371 69.521 49.9498C69.521 49.7013 69.521 49.4528 69.521 49.1968Z" fill="#3F2616"/>
<path d="M58.7066 39.4077C58.9615 39.4905 59.2164 39.5734 59.479 39.6587C59.3941 39.7416 59.3091 39.8244 59.2216 39.9097C59.1811 40.3195 59.157 40.7308 59.1401 41.1422C59.1293 41.3905 59.1185 41.6389 59.1074 41.8947C59.0922 42.2866 59.0922 42.2866 59.0767 42.6865C59.0656 42.9487 59.0545 43.2109 59.043 43.4811C59.0156 44.1313 58.9894 44.7815 58.9641 45.4318C58.7941 45.5146 58.6242 45.5975 58.4491 45.6828C58.4417 44.684 58.4371 43.6853 58.433 42.6865C58.4309 42.4012 58.4287 42.116 58.4265 41.8222C58.4256 41.5512 58.4248 41.2802 58.424 41.001C58.4226 40.7499 58.4213 40.4989 58.4199 40.2402C58.4491 39.6587 58.4491 39.6587 58.7066 39.4077Z" fill="#B0604F"/>
<path d="M51.497 27.1084C53.5237 27.1999 55.1745 27.6347 56.6467 29.0537C56.8166 29.2401 56.9866 29.4264 57.1617 29.6184C57.0767 29.7841 56.9917 29.9498 56.9042 30.1204C56.6493 30.0376 56.3944 29.9548 56.1317 29.8694C56.1317 29.7038 56.1317 29.5381 56.1317 29.3674C55.7919 29.2018 55.452 29.0361 55.1018 28.8654C55.1018 28.6998 55.1018 28.5341 55.1018 28.3634C54.3371 28.2392 54.3371 28.2392 53.5569 28.1124C53.5569 27.9468 53.5569 27.7811 53.5569 27.6104C52.8771 27.5276 52.1974 27.4447 51.497 27.3594C51.497 27.2766 51.497 27.1937 51.497 27.1084Z" fill="#7FB0AD"/>
<path d="M47.3772 27.6104C47.5472 27.6932 47.7171 27.776 47.8922 27.8614C47.6781 28.0298 47.6781 28.0298 47.4597 28.2016C45.908 29.4639 45.371 30.206 45.1886 32.1755C45.1753 32.3913 45.1621 32.6071 45.1484 32.8295C45.0599 33.3834 45.0599 33.3834 44.5449 33.8855C44.4462 31.5291 44.7767 30.0384 46.4358 28.2634C46.8623 27.8614 46.8623 27.8614 47.3772 27.6104Z" fill="#B5D3D3"/>
<path d="M75.1856 70.2812C75.4299 70.4935 75.6742 70.7058 75.9259 70.9244C77.4265 72.1762 78.9808 73.3848 80.8503 74.0463C79.9682 74.333 79.6424 74.2216 78.8186 73.8492C77.2541 72.9709 75.7448 72.0098 75.1856 70.2812Z" fill="#F8DBD6"/>
<path d="M73.6407 68.2729C74.438 69.3003 75.2046 70.3486 75.9742 71.3958C76.3732 71.9095 76.7628 72.3543 77.2455 72.791C76.1056 72.4418 75.4446 71.9178 74.6707 71.034C74.6707 70.7855 74.6707 70.537 74.6707 70.281C74.3308 70.1981 73.9909 70.1153 73.6407 70.03C73.6407 69.4502 73.6407 68.8703 73.6407 68.2729Z" fill="#D67C71"/>
<path d="M70.5509 53.4639C70.7208 53.5467 70.8908 53.6295 71.0659 53.7149C70.5882 54.2582 70.238 54.4913 69.5531 54.7816C68.0665 55.5932 67.3902 57.0082 66.6886 58.4839C66.5146 58.0535 66.5146 58.0535 66.4311 57.4799C66.7258 56.9142 66.7258 56.9142 67.1553 56.3347C67.295 56.1429 67.4348 55.951 67.5788 55.7533C67.7099 55.5776 67.841 55.4019 67.976 55.2209C68.146 54.9724 68.3159 54.7239 68.491 54.4679C69.0857 54.2034 69.6865 53.9515 70.2934 53.7149C70.3784 53.632 70.4634 53.5492 70.5509 53.4639Z" fill="#433B36"/>
<path d="M78.7904 52.46C78.8754 52.6256 78.9604 52.7913 79.0479 52.962C79.2178 52.962 79.3878 52.962 79.5629 52.962C79.5474 53.5692 79.525 54.1749 79.4985 54.7817C79.4949 54.9529 79.4912 55.1241 79.4874 55.3004C79.443 56.1927 79.3686 56.6523 78.7783 57.3506C78.6124 57.4762 78.4464 57.6017 78.2754 57.731C78.2433 56.2878 78.2433 56.2878 78.5329 55.723C78.592 55.1697 78.6387 54.6151 78.6778 54.0601C78.6993 53.7618 78.7209 53.4635 78.7431 53.1561C78.7587 52.9264 78.7743 52.6966 78.7904 52.46Z" fill="#CA4E34"/>
<path d="M69.7784 42.9219C70.6281 42.9219 71.4778 42.9219 72.3533 42.9219C72.3533 43.0875 72.3533 43.2532 72.3533 43.4239C73.203 43.5067 74.0527 43.5895 74.9281 43.6749C74.8432 43.8405 74.7582 44.0062 74.6707 44.1769C74.0965 44.1481 73.5226 44.1161 72.9487 44.0828C72.6291 44.0653 72.3095 44.0478 71.9801 44.0298C71.1449 43.9349 70.534 43.7703 69.7784 43.4239C69.7784 43.2582 69.7784 43.0926 69.7784 42.9219Z" fill="#DC6335"/>
<path d="M71.3233 61.998C71.4083 61.998 71.4933 61.998 71.5808 61.998C71.732 63.4825 71.8071 64.6616 70.8727 65.9043C70.3158 66.5638 69.8087 66.9272 69.006 67.2691C69.2658 66.8361 69.5256 66.403 69.7855 65.97C70.0717 65.4774 70.0717 65.4774 70.2934 64.7591C70.4633 64.7591 70.6333 64.7591 70.8084 64.7591C70.8084 64.5934 70.8084 64.4278 70.8084 64.2571C70.9783 64.2571 71.1483 64.2571 71.3233 64.2571C71.3233 63.5116 71.3233 62.7661 71.3233 61.998Z" fill="#88887A"/>
<path d="M72.6108 51.4561C72.7807 51.5389 72.9507 51.6217 73.1257 51.7071C73.2525 53.5606 73.2525 53.5606 72.6108 54.3426C72.4408 54.4668 72.2709 54.5911 72.0958 54.7191C72.0958 54.4706 72.0958 54.2221 72.0958 53.9661C71.501 54.1318 70.9062 54.2974 70.2934 54.4681C71.0164 53.7241 71.628 53.1014 72.6108 52.7111C72.6108 52.2969 72.6108 51.8828 72.6108 51.4561Z" fill="#732A16"/>
<path d="M63.3413 47.942C63.7597 47.9352 64.1781 47.9303 64.5966 47.9263C64.8296 47.9234 65.0626 47.9205 65.3026 47.9175C65.9162 47.942 65.9162 47.942 66.4311 48.193C66.3462 48.3587 66.2612 48.5243 66.1736 48.695C65.9586 48.6775 65.9586 48.6775 65.7391 48.6597C64.3352 48.595 63.4319 48.7896 62.2158 49.4794C61.7964 49.699 61.7964 49.699 61.2814 49.699C61.2814 49.4505 61.2814 49.202 61.2814 48.946C61.7063 48.946 62.1311 48.946 62.5689 48.946C62.5689 48.7803 62.5689 48.6147 62.5689 48.444C62.8238 48.444 63.0787 48.444 63.3413 48.444C63.3413 48.2783 63.3413 48.1127 63.3413 47.942Z" fill="#DEA266"/>
<path d="M63.3413 69.2773C64.8708 69.443 66.4002 69.6087 67.976 69.7794C67.8911 69.945 67.8061 70.1107 67.7186 70.2814C66.359 70.2814 64.9995 70.2814 63.5988 70.2814C63.5138 69.95 63.4289 69.6187 63.3413 69.2773Z" fill="#D14B3A"/>
<path d="M68.491 38.1528C70.7972 38.1967 72.5953 38.6868 74.6707 39.6589C73.7822 39.9476 73.5631 39.8609 72.7073 39.5647C72.5022 39.4955 72.2971 39.4262 72.0858 39.3549C71.5808 39.1568 71.5808 39.1568 71.3234 38.9058C70.8473 38.8472 70.3694 38.8022 69.8911 38.7647C69.6306 38.7436 69.37 38.7226 69.1015 38.7009C68.7993 38.6781 68.7993 38.6781 68.491 38.6548C68.491 38.4892 68.491 38.3235 68.491 38.1528Z" fill="#D48178"/>
<path d="M69.7784 55.2207C70.0334 55.2207 70.2883 55.2207 70.5509 55.2207C70.748 56.1599 70.8202 56.8118 70.5509 57.7307C70.6359 57.8964 70.7208 58.0621 70.8084 58.2328C70.4685 58.3156 70.1286 58.3984 69.7784 58.4838C69.7838 58.256 69.7891 58.0282 69.7945 57.7935C69.8113 57.015 69.8113 57.015 69.6336 56.4287C69.521 55.9737 69.521 55.9737 69.7784 55.2207Z" fill="#AB3515"/>
<path d="M70.0359 83.0825C70.3758 83.0825 70.7157 83.0825 71.0659 83.0825C71.0659 83.4138 71.0659 83.7452 71.0659 84.0865C71.4057 84.1694 71.7456 84.2522 72.0958 84.3375C72.0958 84.5032 72.0958 84.6689 72.0958 84.8395C72.4357 84.8395 72.7756 84.8395 73.1257 84.8395C73.1257 85.0052 73.1257 85.1709 73.1257 85.3416C73.4656 85.5072 73.8055 85.6729 74.1557 85.8436C73.3832 85.8436 73.3832 85.8436 72.6108 85.5926C72.6108 85.4269 72.6108 85.2612 72.6108 85.0906C72.4727 85.075 72.3346 85.0595 72.1924 85.0435C71.2795 84.7391 70.7416 84.2256 70.0359 83.5845C70.0359 83.4189 70.0359 83.2532 70.0359 83.0825Z" fill="#CC796C"/>
<path d="M61.7964 68.2729C63.0808 69.8231 63.5239 71.3639 63.8563 73.293C63.6863 73.293 63.5164 73.293 63.3413 73.293C63.0817 72.6453 62.8246 71.9969 62.5689 71.3477C62.4952 71.1646 62.4215 70.9815 62.3456 70.7928C62.2759 70.6148 62.2062 70.4369 62.1344 70.2535C62.0696 70.0905 62.0049 69.9275 61.9382 69.7596C61.7964 69.277 61.7964 69.277 61.7964 68.2729Z" fill="#F5D8D4"/>
<path d="M74.9281 60.4922C75.0981 60.6579 75.268 60.8235 75.4431 60.9942C74.2969 62.0742 73.4101 62.6895 71.8383 63.0022C72.0958 62.2492 72.0958 62.2492 72.8683 61.7472C73.5602 61.7158 73.5602 61.7158 74.1557 61.7472C74.1557 61.4987 74.1557 61.2502 74.1557 60.9942C74.4106 60.9942 74.6655 60.9942 74.9281 60.9942C74.9281 60.8285 74.9281 60.6629 74.9281 60.4922Z" fill="#DA7135"/>
<path d="M77.503 40.9136C79.1926 41.9581 80.6859 43.0952 81.8802 44.6786C81.7953 44.8443 81.7103 45.01 81.6228 45.1806C81.3917 44.8778 81.3917 44.8778 81.1561 44.5688C80.2733 43.5206 79.1711 42.734 78.0773 41.9058C77.8878 41.744 77.6983 41.5823 77.503 41.4156C77.503 41.2499 77.503 41.0843 77.503 40.9136Z" fill="#F8DED9"/>
<path d="M80.8503 74.2974C82.6546 74.9182 83.8204 75.859 84.9701 77.3094C84.8851 77.4751 84.8001 77.6407 84.7126 77.8114C84.4736 77.4853 84.4736 77.4853 84.2298 77.1525C83.4394 76.2101 82.4541 75.6997 81.3683 75.1249C81.1973 75.0175 81.0264 74.91 80.8503 74.7994C80.8503 74.6337 80.8503 74.468 80.8503 74.2974Z" fill="#F7DBD4"/>
<path d="M84.1976 82.8315C84.3676 82.9144 84.5375 82.9972 84.7126 83.0825C84.1004 84.2098 83.3323 84.9707 82.3952 85.8436C82.2253 85.7608 82.0553 85.6779 81.8802 85.5926C82.0502 85.2613 82.2201 84.9299 82.3952 84.5886C82.5652 84.6714 82.7351 84.7542 82.9102 84.8396C82.9102 84.5911 82.9102 84.3426 82.9102 84.0866C83.1651 84.0866 83.42 84.0866 83.6826 84.0866C83.8526 83.6724 84.0225 83.2582 84.1976 82.8315Z" fill="#CE6E5D"/>
<path d="M77.2455 54.9697C77.5004 55.0526 77.7553 55.1354 78.018 55.2207C77.9589 55.7025 77.8933 56.1834 77.8248 56.664C77.789 56.9319 77.7532 57.1998 77.7162 57.4758C77.4747 58.3331 77.1633 58.6733 76.4731 59.2368C76.6094 58.5056 76.7822 57.8158 77.0041 57.1033C77.2151 56.3353 77.2944 55.7555 77.2455 54.9697Z" fill="#E47B3A"/>
<path d="M71.5808 65.5122C71.7508 65.5122 71.9207 65.5122 72.0958 65.5122C71.8185 66.5936 71.5707 67.4288 70.8084 68.2733C71.0633 68.3561 71.3182 68.4389 71.5808 68.5243C70.9011 68.5243 70.2213 68.5243 69.521 68.5243C69.937 68.0119 70.367 67.51 70.8084 67.0182C70.9783 67.0182 71.1483 67.0182 71.3234 67.0182C71.4083 66.5212 71.4933 66.0243 71.5808 65.5122Z" fill="#D5533F"/>
<path d="M81.1078 59.7388C81.3627 59.7388 81.6176 59.7388 81.8802 59.7388C81.4888 61.0954 80.5223 61.994 79.5629 63.0018C79.4779 62.7533 79.3929 62.5048 79.3054 62.2488C79.4753 62.2488 79.6453 62.2488 79.8204 62.2488C79.8204 62.0831 79.8204 61.9175 79.8204 61.7468C79.9903 61.7468 80.1602 61.7468 80.3353 61.7468C80.3353 61.4983 80.3353 61.2498 80.3353 60.9938C80.5053 60.9938 80.6752 60.9938 80.8503 60.9938C80.9353 60.5796 81.0202 60.1655 81.1078 59.7388Z" fill="#CE6F5F"/>
<path d="M65.9162 47.9417C66.4149 47.9214 66.9138 47.9068 67.4128 47.8946C67.6906 47.8859 67.9684 47.8772 68.2547 47.8682C69.006 47.9417 69.006 47.9417 69.7784 48.6947C68.7588 48.6119 67.7392 48.529 66.6886 48.4437C66.6037 48.6094 66.5187 48.775 66.4311 48.9457C66.4311 48.6972 66.4311 48.4487 66.4311 48.1927C66.2612 48.1099 66.0913 48.027 65.9162 47.9417Z" fill="#CB8A4B"/>
<path d="M58.1916 66.7669C59.714 66.7023 61.0855 66.943 62.5689 67.2689C62.314 67.3931 62.314 67.3931 62.0539 67.5199C61.9689 67.7684 61.884 68.0169 61.7964 68.2729C61.7964 68.0244 61.7964 67.7759 61.7964 67.5199C61.4884 67.525 61.1804 67.5302 60.863 67.5356C59.9477 67.5371 59.0914 67.4443 58.1916 67.2689C58.1916 67.1032 58.1916 66.9375 58.1916 66.7669Z" fill="#7DAEAB"/>
<path d="M76.2156 61.2451C76.3005 61.4108 76.3855 61.5764 76.473 61.7471C75.9581 62.2491 75.9581 62.2491 75.1856 62.7511C74.8457 62.7511 74.5059 62.7511 74.1557 62.7511C74.0707 62.9996 73.9857 63.2481 73.8982 63.5042C73.3671 63.6767 73.3671 63.6767 72.8683 63.7552C73.7239 62.5503 73.7239 62.5503 74.6063 62.2962C74.7975 62.2807 74.9886 62.2651 75.1856 62.2491C75.1856 62.0835 75.1856 61.9178 75.1856 61.7471C75.5255 61.5815 75.8654 61.4158 76.2156 61.2451Z" fill="#D04D38"/>
<path d="M81.8802 86.0943C80.5877 86.8515 79.6367 86.9445 78.1789 86.8943C77.9894 86.891 77.7999 86.8876 77.6046 86.8841C77.1415 86.8753 76.6785 86.8618 76.2156 86.8473C76.2156 86.7645 76.2156 86.6816 76.2156 86.5963C76.4423 86.584 76.669 86.5717 76.9025 86.559C77.2016 86.5403 77.5006 86.5215 77.8088 86.5022C78.2524 86.4759 78.2524 86.4759 78.7049 86.4492C81.8186 86.072 81.8186 86.072 81.8802 86.0943Z" fill="#CC7E72"/>
<path d="M62.3114 69.0259C62.6513 69.1087 62.9911 69.1915 63.3413 69.2769C63.4718 69.7942 63.6001 70.312 63.7275 70.83C63.8351 71.2624 63.8351 71.2624 63.9448 71.7036C64.0919 72.4315 64.148 73.0572 64.1138 73.795C63.7112 73.0625 63.4449 72.3503 63.2126 71.5516C62.9547 70.6877 62.6789 69.8528 62.3114 69.0259Z" fill="#CB7266"/>
<path d="M72.7395 67.7397C73.3832 67.7711 73.3832 67.7711 73.6407 68.0221C73.6512 68.524 73.6517 69.0263 73.6407 69.5281C73.0459 69.3625 72.4511 69.1968 71.8383 69.0261C72.0932 68.9433 72.3481 68.8605 72.6108 68.7751C72.3962 68.2313 72.3962 68.2313 71.8383 68.0221C72.0958 67.7711 72.0958 67.7711 72.7395 67.7397Z" fill="#C14C3C"/>
<path d="M47.8922 60.4922C48.3319 60.8136 48.7609 61.1492 49.1796 61.4962C49.1796 61.6619 49.1796 61.8275 49.1796 61.9982C48.3728 62.2604 48.1524 62.2327 47.3772 61.9982C47.3772 61.5841 47.3772 61.1699 47.3772 60.7432C47.5472 60.6604 47.7171 60.5775 47.8922 60.4922Z" fill="#122E33"/>
<path d="M74.9281 40.1606C77.6639 41.1803 77.6639 41.1803 78.5329 42.1687C78.1081 42.1687 77.6832 42.1687 77.2455 42.1687C77.1605 41.9202 77.0756 41.6717 76.988 41.4157C76.6906 41.3328 76.3932 41.25 76.0868 41.1647C75.7894 41.0818 75.492 40.999 75.1856 40.9137C75.1007 40.6652 75.0157 40.4167 74.9281 40.1606Z" fill="#D47268"/>
<path d="M70.0359 66.2651C68.7366 67.5008 68.7366 67.5008 67.4933 67.5986C67.2277 67.5727 66.9622 67.5468 66.6886 67.5201C67.3703 67.1535 67.6914 67.0181 68.491 67.0181C68.491 66.7696 68.491 66.5211 68.491 66.2651C69.1324 65.9525 69.3693 66.0701 70.0359 66.2651Z" fill="#75A89F"/>
<path d="M58.1916 53.2129C58.3138 53.3786 58.4359 53.5442 58.5618 53.7149C58.7609 53.9634 58.7609 53.9634 58.9641 54.2169C59.049 54.2169 59.134 54.2169 59.2216 54.2169C59.3065 54.8796 59.3915 55.5422 59.479 56.2249C58.7066 55.9739 58.7066 55.9739 58.1916 55.2209C58.1253 54.5446 58.1687 53.8942 58.1916 53.2129Z" fill="#78A699"/>
<path d="M76.4731 46.6865C76.558 46.6865 76.643 46.6865 76.7305 46.6865C76.7949 48.0984 76.7949 48.0984 76.2156 48.9456C75.2555 49.3415 74.1474 49.2132 73.1257 49.1966C73.1257 49.1137 73.1257 49.0309 73.1257 48.9456C73.2841 48.9181 73.4424 48.8906 73.6055 48.8622C73.8136 48.8224 74.0217 48.7826 74.2362 48.7416C74.4423 48.7038 74.6484 48.6659 74.8608 48.6269C75.5131 48.4215 75.7908 48.2082 76.2156 47.6905C76.3995 47.1626 76.3995 47.1626 76.4731 46.6865Z" fill="#E17B37"/>
<path d="M64.8862 43.1726C64.8013 43.3383 64.7163 43.504 64.6287 43.6746C64.0289 43.7646 63.4279 43.8475 62.8264 43.9256C62.5874 44.0188 62.3484 44.112 62.1022 44.208C61.9163 44.2805 61.7304 44.353 61.5389 44.4277C61.369 44.3448 61.199 44.262 61.024 44.1766C62.37 43.4132 63.3225 43.0456 64.8862 43.1726Z" fill="#F28843"/>
<path d="M69.006 59.2368C69.8749 59.3742 70.3146 59.5016 71.0659 59.9898C71.2429 60.8997 71.2429 60.8997 71.3233 61.7469C70.8084 61.4959 70.8084 61.4959 70.4543 60.9154C70.0384 60.2449 69.5917 59.7684 69.006 59.2368Z" fill="#AB9364"/>
<path d="M78.018 57.9819C78.1029 57.9819 78.1879 57.9819 78.2754 57.9819C78.4212 59.19 77.9927 59.8004 77.2455 60.743C76.9906 60.8672 76.9906 60.8672 76.7305 60.994C76.8965 60.2379 77.1554 59.6093 77.5191 58.9232C77.6123 58.7459 77.7056 58.5686 77.8017 58.3859C77.8731 58.2526 77.9444 58.1193 78.018 57.9819Z" fill="#CC4D35"/>
<path d="M69.521 54.4678C69.6909 54.5506 69.8608 54.6334 70.0359 54.7188C69.7481 55.0549 69.458 55.3893 69.1669 55.7228C69.0056 55.9092 68.8443 56.0955 68.6781 56.2876C68.458 56.505 68.458 56.505 68.2335 56.7268C68.0636 56.7268 67.8937 56.7268 67.7186 56.7268C68.119 55.7688 68.7578 55.1726 69.521 54.4678Z" fill="#82483B"/>
<path d="M71.8383 69.2769C71.2182 69.8814 70.8984 69.9499 70.0359 70.0299C69.4405 69.7946 69.4405 69.7946 69.006 69.5279C70.9187 68.9184 70.9187 68.9184 71.8383 69.2769Z" fill="#CF4B37"/>
<path d="M52.2695 64.5078C53.0258 64.6961 53.0258 64.6961 53.8144 65.0098C54.0397 65.5432 54.0397 65.5432 54.0719 66.0138C53.9179 65.931 53.7638 65.8482 53.6052 65.7628C53.028 65.4596 53.028 65.4596 52.2695 65.5118C52.1845 65.2633 52.0995 65.0148 52.012 64.7588C52.0969 64.676 52.1819 64.5932 52.2695 64.5078Z" fill="#15363A"/>
<path d="M79.8204 62.5C79.8204 63.253 79.8204 63.253 79.2088 63.8962C78.9858 64.0981 78.7627 64.3 78.5329 64.508C78.363 64.6737 78.1931 64.8394 78.018 65.01C77.7631 64.9272 77.5081 64.8444 77.2455 64.759C78.0952 64.0136 78.9449 63.2681 79.8204 62.5Z" fill="#F3CDC7"/>
<path d="M69.521 49.1968C71.2467 49.6828 71.2467 49.6828 71.8383 50.4518C71.8383 50.6175 71.8383 50.7831 71.8383 50.9538C71.3395 50.8597 71.3395 50.8597 70.8084 50.7028C70.7234 50.5371 70.6385 50.3715 70.5509 50.2008C70.0296 50.0371 70.0296 50.0371 69.521 49.9498C69.521 49.7013 69.521 49.4528 69.521 49.1968Z" fill="#302513"/>
<path d="M59.994 44.4277C60.2489 44.4277 60.5038 44.4277 60.7665 44.4277C60.4335 45.1517 60.0817 45.6507 59.4791 46.1848C59.3091 46.0191 59.1392 45.8534 58.9641 45.6828C59.4308 45.0552 59.4308 45.0552 59.994 44.4277Z" fill="#EE8A41"/>
<path d="M66.4311 77.811C67.2036 78.062 67.2036 78.062 67.5134 78.5082C67.6023 78.6871 67.6913 78.866 67.7829 79.0504C67.9203 79.3178 67.9203 79.3178 68.0605 79.5906C68.1176 79.7488 68.1747 79.9071 68.2335 80.0701C68.1486 80.2357 68.0636 80.4014 67.976 80.5721C67.8061 80.1579 67.6362 79.7438 67.4611 79.3171C67.2911 79.3171 67.1212 79.3171 66.9461 79.3171C66.7762 78.8201 66.6062 78.3231 66.4311 77.811Z" fill="#CF786D"/>
<path d="M78.018 63.2529C78.3578 63.3358 78.6977 63.4186 79.0479 63.5039C78.0283 64.3737 78.0283 64.3737 76.988 65.261C76.903 65.0125 76.8181 64.764 76.7305 64.5079C76.9005 64.3423 77.0704 64.1766 77.2455 64.0059C77.5004 64.0059 77.7553 64.0059 78.018 64.0059C78.018 63.7574 78.018 63.509 78.018 63.2529Z" fill="#CF6D5C"/>
<path d="M69.006 48.6948C69.6008 48.6948 70.1956 48.6948 70.8084 48.6948C70.9783 49.109 71.1483 49.5231 71.3233 49.9498C69.5853 49.2596 69.5853 49.2596 69.006 48.6948Z" fill="#B67A47"/>
<path d="M70.8084 46.938C71.0633 47.0208 71.3182 47.1037 71.5808 47.189C71.4109 47.7688 71.241 48.3486 71.0659 48.946C70.811 48.8632 70.556 48.7804 70.2934 48.695C70.5187 47.5027 70.5187 47.5027 70.8084 46.938Z" fill="#DF822C"/>
<path d="M64.3713 73.5439C65.1822 74.4032 65.2884 75.1611 65.4012 76.305C64.7202 75.5205 64.4114 74.7769 64.1138 73.7949C64.1987 73.7121 64.2837 73.6293 64.3713 73.5439Z" fill="#D1756D"/>
<path d="M72.8683 68.2732C72.7833 68.4389 72.6983 68.6045 72.6108 68.7752C72.0787 68.8791 72.0787 68.8791 71.436 68.9321C71.2232 68.9509 71.0105 68.9696 70.7913 68.989C70.5448 69.0074 70.5448 69.0074 70.2934 69.0262C70.5509 68.5242 70.5509 68.5242 71.436 68.2261C72.3533 68.0222 72.3533 68.0222 72.8683 68.2732Z" fill="#BF3C27"/>
<path d="M56.3892 84.5884C55.697 85.1538 55.1928 85.5628 54.3293 85.8434C54.3293 85.5949 54.3293 85.3464 54.3293 85.0904C55.4316 84.2772 55.4316 84.2772 56.3892 84.5884Z" fill="#44555B"/>
<path d="M71.0659 60.7432C71.3208 60.826 71.5757 60.9088 71.8383 60.9942C72.1441 61.7629 72.1441 61.7629 72.3533 62.5002C72.0984 62.6659 71.8435 62.8315 71.5808 63.0022C71.4109 62.2567 71.2409 61.5112 71.0659 60.7432Z" fill="#C2823E"/>
<path d="M71.8383 51.4561C72.0083 51.4561 72.1782 51.4561 72.3533 51.4561C72.3533 51.8702 72.3533 52.2844 72.3533 52.7111C71.9284 52.8767 71.5036 53.0424 71.0659 53.2131C71.0659 52.9646 71.0659 52.7161 71.0659 52.4601C71.2358 52.3772 71.4057 52.2944 71.5808 52.2091C71.6658 51.9606 71.7508 51.7121 71.8383 51.4561Z" fill="#1C2222"/>
<path d="M75.7006 65.0103C76.0405 65.1759 76.3804 65.3416 76.7305 65.5123C76.2207 65.8436 75.7109 66.1749 75.1856 66.5163C75.1007 66.2678 75.0157 66.0193 74.9281 65.7633C75.1831 65.7633 75.438 65.7633 75.7006 65.7633C75.7006 65.5148 75.7006 65.2663 75.7006 65.0103Z" fill="#D87163"/>
<path d="M82.3952 57.731C82.6501 57.731 82.905 57.731 83.1677 57.731C82.8623 58.5781 82.5817 59.1484 81.8802 59.739C81.8802 59.4077 81.8802 59.0763 81.8802 58.735C82.0502 58.735 82.2201 58.735 82.3952 58.735C82.3952 58.4036 82.3952 58.0723 82.3952 57.731Z" fill="#D0746B"/>
<path d="M70.0359 54.4678C70.0359 55.272 69.8445 55.7464 69.521 56.4758C69.1811 56.393 68.8412 56.3101 68.491 56.2248C69.0008 55.645 69.5107 55.0652 70.0359 54.4678Z" fill="#A74029"/>
<path d="M73.6407 68.2729C74.3163 69.0413 74.4132 69.2096 74.4132 70.281C74.1583 70.1981 73.9034 70.1153 73.6407 70.03C73.6407 69.4502 73.6407 68.8703 73.6407 68.2729Z" fill="#D07265"/>
<path d="M61.2814 44.1769C61.0425 44.2908 60.8035 44.4047 60.5573 44.522C59.7264 44.9154 59.7264 44.9154 58.9641 45.4319C59.0124 44.9613 59.0124 44.9613 59.2216 44.4279C60.0697 43.971 60.3448 43.8725 61.2814 44.1769Z" fill="#DB6639"/>
<path d="M52.2695 27.3596C52.1845 27.5252 52.0995 27.6909 52.012 27.8616C51.2472 27.7787 50.4825 27.6959 49.6946 27.6106C50.686 26.9663 51.1328 27.1505 52.2695 27.3596Z" fill="#63A7A2"/>
</svg>
